Mertz-Bold-FF.ufo
<glyph name="exclam" format="1">
  <advance width="515"/>
  <unicode hex="0021"/>
  <outline>
    <contour>
      <point x="255" y="-16" type="curve" smooth="yes"/>
      <point x="162" y="-16"/>
      <point x="108" y="54"/>
      <point x="108" y="127" type="curve" smooth="yes"/>
      <point x="108" y="197"/>
      <point x="161" y="270"/>
      <point x="255" y="270" type="curve" smooth="yes"/>
      <point x="347" y="270"/>
      <point x="400" y="196"/>
      <point x="400" y="127" type="curve" smooth="yes"/>
      <point x="400" y="55"/>
      <point x="346" y="-16"/>
    </contour>
    <contour>
      <point x="210" y="404" type="line"/>
      <point x="126" y="1241" type="line"/>
      <point x="382" y="1241" type="line"/>
      <point x="297" y="404" type="line"/>
    </contour>
  </outline>
</glyph>
<glyph name="quotedbl" format="1">
  <advance width="688"/>
  <unicode hex="0022"/>
  <outline>
    <contour>
      <point x="458" y="853" type="line"/>
      <point x="374" y="1451" type="line"/>
      <point x="604" y="1451" type="line"/>
      <point x="521" y="853" type="line"/>
    </contour>
    <contour>
      <point x="171" y="853" type="line"/>
      <point x="87" y="1451" type="line"/>
      <point x="317" y="1451" type="line"/>
      <point x="234" y="853" type="line"/>
    </contour>
  </outline>
</glyph>
<glyph name="numbersign" format="1">
  <advance width="1163"/>
  <unicode hex="0023"/>
  <outline>
    <contour>
      <point x="749" y="708" type="line"/>
      <point x="469" y="708" type="line"/>
      <point x="416" y="514" type="line"/>
      <point x="696" y="514" type="line"/>
    </contour>
    <contour>
      <point x="558" y="0" type="line"/>
      <point x="665" y="399" type="line"/>
      <point x="385" y="399" type="line"/>
      <point x="277" y="0" type="line"/>
      <point x="123" y="0" type="line"/>
      <point x="230" y="399" type="line"/>
      <point x="99" y="399" type="line"/>
      <point x="99" y="514" type="line"/>
      <point x="261" y="514" type="line"/>
      <point x="314" y="708" type="line"/>
      <point x="149" y="708" type="line"/>
      <point x="149" y="824" type="line"/>
      <point x="345" y="824" type="line"/>
      <point x="457" y="1241" type="line"/>
      <point x="613" y="1241" type="line"/>
      <point x="500" y="824" type="line"/>
      <point x="780" y="824" type="line"/>
      <point x="892" y="1241" type="line"/>
      <point x="1048" y="1241" type="line"/>
      <point x="935" y="824" type="line"/>
      <point x="1077" y="824" type="line"/>
      <point x="1077" y="708" type="line"/>
      <point x="904" y="708" type="line"/>
      <point x="851" y="514" type="line"/>
      <point x="1027" y="514" type="line"/>
      <point x="1027" y="399" type="line"/>
      <point x="820" y="399" type="line"/>
      <point x="712" y="0" type="line"/>
    </contour>
  </outline>
</glyph>
<glyph name="dollar" format="1">
  <advance width="956"/>
  <unicode hex="0024"/>
  <outline>
    <contour>
      <point x="548" y="-31.7456" type="curve"/>
      <point x="548" y="-222.5" type="line"/>
      <point x="456" y="-222.5" type="line"/>
      <point x="456" y="-30.8847" type="line"/>
      <point x="254.826" y="-15.8236"/>
      <point x="137.665" y="74.8342"/>
      <point x="123" y="84" type="curve"/>
      <point x="123" y="305" type="line"/>
      <point x="151" y="286"/>
      <point x="339" y="176"/>
      <point x="481" y="176" type="curve" smooth="yes"/>
      <point x="585" y="176"/>
      <point x="633" y="226"/>
      <point x="633" y="304" type="curve" smooth="yes"/>
      <point x="633" y="351"/>
      <point x="615" y="396"/>
      <point x="518" y="463" type="curve" smooth="yes"/>
      <point x="273" y="635" type="line" smooth="yes"/>
      <point x="161" y="714"/>
      <point x="95" y="828"/>
      <point x="95" y="937" type="curve" smooth="yes"/>
      <point x="95" y="1112.16"/>
      <point x="215.646" y="1268.16"/>
      <point x="456" y="1274.78" type="curve"/>
      <point x="456" y="1532.5" type="line"/>
      <point x="548" y="1532.5" type="line"/>
      <point x="548" y="1271.1" type="line"/>
      <point x="695.406" y="1256.08"/>
      <point x="801.404" y="1202.16"/>
      <point x="816" y="1191" type="curve"/>
      <point x="816" y="978" type="line"/>
      <point x="789" y="992"/>
      <point x="625" y="1067"/>
      <point x="505" y="1067" type="curve" smooth="yes"/>
      <point x="377" y="1067"/>
      <point x="340" y="1004"/>
      <point x="340" y="944" type="curve" smooth="yes"/>
      <point x="340" y="898"/>
      <point x="375" y="847"/>
      <point x="442" y="799" type="curve" smooth="yes"/>
      <point x="648" y="653" type="line"/>
      <point x="807" y="539"/>
      <point x="874" y="434"/>
      <point x="874" y="309" type="curve" smooth="yes"/>
      <point x="874" y="90.4108"/>
      <point x="723.498" y="-19.0426"/>
    </contour>
  </outline>
</glyph>
<glyph name="percent" format="1">
  <advance width="1522"/>
  <unicode hex="0025"/>
  <outline>
    <contour>
      <point x="364" y="698" type="curve" smooth="yes"/>
      <point x="206" y="698"/>
      <point x="76" y="804"/>
      <point x="76" y="970" type="curve" smooth="yes"/>
      <point x="76" y="1136"/>
      <point x="207" y="1242"/>
      <point x="365" y="1242" type="curve" smooth="yes"/>
      <point x="520" y="1242"/>
      <point x="652" y="1137"/>
      <point x="652" y="970" type="curve" smooth="yes"/>
      <point x="652" y="804"/>
      <point x="522" y="698"/>
    </contour>
    <contour>
      <point x="364" y="811" type="curve" smooth="yes"/>
      <point x="465" y="811"/>
      <point x="517" y="889"/>
      <point x="517" y="969" type="curve" smooth="yes"/>
      <point x="517" y="1049"/>
      <point x="465" y="1129"/>
      <point x="364" y="1129" type="curve" smooth="yes"/>
      <point x="263" y="1129"/>
      <point x="211" y="1049"/>
      <point x="211" y="970" type="curve" smooth="yes"/>
      <point x="211" y="887"/>
      <point x="263" y="811"/>
    </contour>
    <contour>
      <point x="1165" y="0" type="curve" smooth="yes"/>
      <point x="1007" y="0"/>
      <point x="877" y="106"/>
      <point x="877" y="272" type="curve" smooth="yes"/>
      <point x="877" y="438"/>
      <point x="1008" y="544"/>
      <point x="1166" y="544" type="curve" smooth="yes"/>
      <point x="1321" y="544"/>
      <point x="1453" y="439"/>
      <point x="1453" y="272" type="curve" smooth="yes"/>
      <point x="1453" y="106"/>
      <point x="1323" y="0"/>
    </contour>
    <contour>
      <point x="1165" y="113" type="curve" smooth="yes"/>
      <point x="1266" y="113"/>
      <point x="1318" y="191"/>
      <point x="1318" y="271" type="curve" smooth="yes"/>
      <point x="1318" y="351"/>
      <point x="1266" y="431"/>
      <point x="1165" y="431" type="curve" smooth="yes"/>
      <point x="1064" y="431"/>
      <point x="1012" y="351"/>
      <point x="1012" y="272" type="curve" smooth="yes"/>
      <point x="1012" y="189"/>
      <point x="1064" y="113"/>
    </contour>
    <contour>
      <point x="295" y="0" type="line"/>
      <point x="1011" y="1241" type="line"/>
      <point x="1222" y="1241" type="line"/>
      <point x="504" y="0" type="line"/>
    </contour>
  </outline>
</glyph>
<glyph name="ampersand" format="1">
  <advance width="1362"/>
  <unicode hex="0026"/>
  <outline>
    <contour>
      <point x="461" y="561" type="line"/>
      <point x="370" y="487"/>
      <point x="359" y="414"/>
      <point x="359" y="354" type="curve" smooth="yes"/>
      <point x="359" y="271"/>
      <point x="405" y="165"/>
      <point x="573" y="165" type="curve" smooth="yes"/>
      <point x="649" y="165"/>
      <point x="730" y="193"/>
      <point x="803" y="237" type="curve"/>
    </contour>
    <contour>
      <point x="547" y="1280" type="curve" smooth="yes"/>
      <point x="794" y="1280"/>
      <point x="892" y="1155"/>
      <point x="892" y="1005" type="curve" smooth="yes"/>
      <point x="892" y="879"/>
      <point x="829" y="778"/>
      <point x="647" y="671" type="curve"/>
      <point x="964" y="370" type="line"/>
      <point x="1015" y="426"/>
      <point x="1053" y="483"/>
      <point x="1084" y="546" type="curve"/>
      <point x="1244" y="426" type="line"/>
      <point x="1217" y="361"/>
      <point x="1173" y="292"/>
      <point x="1115" y="227" type="curve"/>
      <point x="1256" y="94" type="line"/>
      <point x="1105" y="-49" type="line"/>
      <point x="958" y="90" type="line"/>
      <point x="843" y="12"/>
      <point x="705" y="-41"/>
      <point x="549" y="-41" type="curve" smooth="yes"/>
      <point x="266" y="-41"/>
      <point x="116" y="155"/>
      <point x="116" y="325" type="curve" smooth="yes"/>
      <point x="116" y="467"/>
      <point x="204" y="587"/>
      <point x="337" y="694" type="curve"/>
      <point x="219" y="816"/>
      <point x="162" y="924"/>
      <point x="162" y="1001" type="curve" smooth="yes"/>
      <point x="162" y="1209"/>
      <point x="378" y="1280"/>
    </contour>
    <contour>
      <point x="512" y="802" type="curve"/>
      <point x="679" y="879"/>
      <point x="681" y="950"/>
      <point x="681" y="1008" type="curve" smooth="yes"/>
      <point x="681" y="1076"/>
      <point x="609" y="1112"/>
      <point x="535" y="1112" type="curve" smooth="yes"/>
      <point x="460" y="1112"/>
      <point x="383" y="1074"/>
      <point x="383" y="993" type="curve" smooth="yes"/>
      <point x="383" y="963"/>
      <point x="436" y="876"/>
    </contour>
  </outline>
</glyph>
<glyph name="parenright" format="1">
  <advance width="547"/>
  <unicode hex="0029"/>
  <outline>
    <contour>
      <point x="25" y="-68" type="line"/>
      <point x="120" y="149"/>
      <point x="166" y="398"/>
      <point x="166" y="642" type="curve" smooth="yes"/>
      <point x="166" y="887"/>
      <point x="119" y="1137"/>
      <point x="24" y="1355" type="curve"/>
      <point x="270" y="1355" type="line"/>
      <point x="364" y="1153"/>
      <point x="411" y="901"/>
      <point x="411" y="642" type="curve" smooth="yes"/>
      <point x="411" y="385"/>
      <point x="365" y="134"/>
      <point x="271" y="-68" type="curve"/>
    </contour>
  </outline>
</glyph>
<glyph name="comma" format="1">
  <advance width="520"/>
  <unicode hex="002C"/>
  <outline>
    <contour>
      <point x="118" y="-186" type="line"/>
      <point x="164" y="-128"/>
      <point x="210" y="-72"/>
      <point x="230" y="-12" type="curve"/>
      <point x="159" y="2"/>
      <point x="118" y="64"/>
      <point x="118" y="127" type="curve" smooth="yes"/>
      <point x="118" y="197"/>
      <point x="171" y="270"/>
      <point x="264" y="270" type="curve" smooth="yes"/>
      <point x="357" y="270"/>
      <point x="409" y="196"/>
      <point x="409" y="127" type="curve" smooth="yes"/>
      <point x="409" y="44"/>
      <point x="352" y="-58"/>
      <point x="200" y="-186" type="curve"/>
    </contour>
  </outline>
</glyph>
<glyph name="slash" format="1">
  <advance width="898"/>
  <unicode hex="002F"/>
  <outline>
    <contour>
      <point x="62" y="0" type="line"/>
      <point x="611" y="1241" type="line"/>
      <point x="833" y="1241" type="line"/>
      <point x="282" y="0" type="line"/>
    </contour>
  </outline>
</glyph>
<glyph name="zero" format="1">
  <advance width="1239"/>
  <unicode hex="0030"/>
  <outline>
    <contour>
      <point x="868" y="626" type="curve" smooth="yes"/>
      <point x="868" y="965.97"/>
      <point x="754.212" y="1075.6"/>
      <point x="620.319" y="1075.6" type="curve" smooth="yes"/>
      <point x="486.212" y="1075.6"/>
      <point x="372" y="965.497"/>
      <point x="372" y="626" type="curve" smooth="yes"/>
      <point x="372" y="279.61"/>
      <point x="485.657" y="167"/>
      <point x="619.485" y="167" type="curve" smooth="yes"/>
      <point x="753.656" y="167"/>
      <point x="868" y="280.393"/>
    </contour>
    <contour>
      <point x="125" y="622" type="curve" smooth="yes"/>
      <point x="125" y="1099.08"/>
      <point x="362.316" y="1277.69"/>
      <point x="619.599" y="1277.69" type="curve" smooth="yes"/>
      <point x="876.816" y="1277.69"/>
      <point x="1114" y="1099.17"/>
      <point x="1114" y="622" type="curve" smooth="yes"/>
      <point x="1114" y="147.658"/>
      <point x="876.801" y="-29.4814"/>
      <point x="619.577" y="-29.4814" type="curve" smooth="yes"/>
      <point x="362.301" y="-29.4814"/>
      <point x="125" y="147.699"/>
    </contour>
  </outline>
</glyph>
<glyph name="one" format="1">
  <advance width="824"/>
  <unicode hex="0031"/>
  <outline>
    <contour>
      <point x="373" y="0" type="line"/>
      <point x="373" y="903" type="line"/>
      <point x="303" y="864"/>
      <point x="231" y="837"/>
      <point x="124" y="805" type="curve"/>
      <point x="124" y="1029" type="line"/>
      <point x="233" y="1070"/>
      <point x="629" y="1282"/>
      <point x="629" y="1282" type="curve"/>
      <point x="629" y="0" type="line"/>
    </contour>
  </outline>
</glyph>
<glyph name="two" format="1">
  <advance width="1142"/>
  <unicode hex="0032"/>
  <outline>
    <contour>
      <point x="158.5" y="0" type="line"/>
      <point x="627.5" y="648" type="line"/>
      <point x="699.5" y="745"/>
      <point x="741.5" y="827"/>
      <point x="741.5" y="907" type="curve" smooth="yes"/>
      <point x="741.5" y="1007"/>
      <point x="673.5" y="1060"/>
      <point x="583.5" y="1060" type="curve" smooth="yes"/>
      <point x="472.5" y="1060"/>
      <point x="329.5" y="974"/>
      <point x="314.5" y="962" type="curve"/>
      <point x="232.5" y="1144" type="line"/>
      <point x="250.5" y="1160"/>
      <point x="435.5" y="1275"/>
      <point x="609.5" y="1275" type="curve" smooth="yes"/>
      <point x="851.5" y="1275"/>
      <point x="992.5" y="1118"/>
      <point x="992.5" y="904" type="curve" smooth="yes"/>
      <point x="992.5" y="769"/>
      <point x="915.5" y="633"/>
      <point x="805.5" y="488" type="curve" smooth="yes"/>
      <point x="594.5" y="211" type="line"/>
      <point x="989.5" y="211" type="line"/>
      <point x="989.5" y="0" type="line"/>
    </contour>
  </outline>
</glyph>
<glyph name="three" format="1">
  <advance width="1142"/>
  <unicode hex="0033"/>
  <outline>
    <contour>
      <point x="610.118" y="-33" type="curve" smooth="yes"/>
      <point x="422.118" y="-33"/>
      <point x="255.118" y="35"/>
      <point x="231.118" y="49" type="curve"/>
      <point x="282.118" y="242" type="line"/>
      <point x="373.118" y="196"/>
      <point x="475.118" y="173"/>
      <point x="575.118" y="173" type="curve" smooth="yes"/>
      <point x="680.118" y="173"/>
      <point x="770.118" y="234"/>
      <point x="770.118" y="341" type="curve" smooth="yes"/>
      <point x="770.118" y="472"/>
      <point x="653.118" y="535"/>
      <point x="426.118" y="594" type="curve"/>
      <point x="426.118" y="686" type="line"/>
      <point x="637.118" y="735"/>
      <point x="753.118" y="816"/>
      <point x="753.118" y="919" type="curve" smooth="yes"/>
      <point x="753.118" y="1002"/>
      <point x="691.118" y="1068"/>
      <point x="570.118" y="1068" type="curve" smooth="yes"/>
      <point x="496.118" y="1068"/>
      <point x="392.118" y="1046"/>
      <point x="283.118" y="994" type="curve"/>
      <point x="221.118" y="1175" type="line"/>
      <point x="321.118" y="1240"/>
      <point x="487.118" y="1275"/>
      <point x="613.118" y="1275" type="curve" smooth="yes"/>
      <point x="827.118" y="1275"/>
      <point x="990.118" y="1143"/>
      <point x="990.118" y="938" type="curve" smooth="yes"/>
      <point x="990.118" y="808"/>
      <point x="899.118" y="708"/>
      <point x="770.118" y="658" type="curve"/>
      <point x="920.118" y="596"/>
      <point x="1024.12" y="489"/>
      <point x="1024.12" y="309" type="curve" smooth="yes"/>
      <point x="1024.12" y="115"/>
      <point x="868.118" y="-33"/>
    </contour>
  </outline>
</glyph>
<glyph name="four" format="1">
  <advance width="1142"/>
  <unicode hex="0034"/>
  <outline>
    <contour>
      <point x="663.5" y="0" type="line"/>
      <point x="663.5" y="241" type="line"/>
      <point x="58.5" y="241" type="line"/>
      <point x="920.5" y="1268" type="line"/>
      <point x="920.5" y="426" type="line"/>
      <point x="1110.5" y="426" type="line"/>
      <point x="1110.5" y="241" type="line"/>
      <point x="920.5" y="241" type="line"/>
      <point x="920.5" y="0" type="line"/>
    </contour>
    <contour>
      <point x="434.5" y="426" type="line"/>
      <point x="663.5" y="426" type="line"/>
      <point x="663.5" y="744" type="line"/>
    </contour>
  </outline>
</glyph>
<glyph name="five" format="1">
  <advance width="1142"/>
  <unicode hex="0035"/>
  <outline>
    <contour>
      <point x="598.824" y="-33" type="curve" smooth="yes"/>
      <point x="424.824" y="-33"/>
      <point x="257.824" y="39"/>
      <point x="199.824" y="82" type="curve"/>
      <point x="250.824" y="282" type="line"/>
      <point x="313.824" y="241"/>
      <point x="454.824" y="169"/>
      <point x="587.824" y="169" type="curve" smooth="yes"/>
      <point x="717.824" y="169"/>
      <point x="786.824" y="262"/>
      <point x="786.824" y="364" type="curve" smooth="yes"/>
      <point x="786.824" y="475"/>
      <point x="697.824" y="566"/>
      <point x="591.824" y="566" type="curve" smooth="yes"/>
      <point x="528.824" y="566"/>
      <point x="460.824" y="544"/>
      <point x="424.824" y="504" type="curve"/>
      <point x="256.824" y="552" type="line"/>
      <point x="277.824" y="1242" type="line"/>
      <point x="955.824" y="1242" type="line"/>
      <point x="934.824" y="1040" type="line"/>
      <point x="477.824" y="1040" type="line"/>
      <point x="466.824" y="729" type="line"/>
      <point x="517.824" y="749"/>
      <point x="585.824" y="763"/>
      <point x="635.824" y="763" type="curve" smooth="yes"/>
      <point x="850.824" y="763"/>
      <point x="1038.82" y="630"/>
      <point x="1038.82" y="364" type="curve" smooth="yes"/>
      <point x="1038.82" y="173"/>
      <point x="923.824" y="-33"/>
    </contour>
  </outline>
</glyph>
<glyph name="six" format="1">
  <advance width="1142"/>
  <unicode hex="0036"/>
  <outline>
    <contour>
      <point x="581.5" y="580" type="curve" smooth="yes"/>
      <point x="435.5" y="580"/>
      <point x="364.5" y="477"/>
      <point x="364.5" y="368" type="curve" smooth="yes"/>
      <point x="364.5" y="260"/>
      <point x="434.5" y="162"/>
      <point x="575.5" y="162" type="curve" smooth="yes"/>
      <point x="716.5" y="162"/>
      <point x="796.5" y="265"/>
      <point x="796.5" y="374" type="curve" smooth="yes"/>
      <point x="796.5" y="486"/>
      <point x="719.5" y="580"/>
    </contour>
    <contour>
      <point x="914.5" y="1241" type="line"/>
      <point x="530.5" y="746" type="line"/>
      <point x="558.5" y="758"/>
      <point x="603.5" y="765"/>
      <point x="634.5" y="765" type="curve" smooth="yes"/>
      <point x="841.5" y="765"/>
      <point x="1031.5" y="612"/>
      <point x="1031.5" y="374" type="curve" smooth="yes"/>
      <point x="1031.5" y="124"/>
      <point x="829.5" y="-33"/>
      <point x="581.5" y="-33" type="curve" smooth="yes"/>
      <point x="320.5" y="-33"/>
      <point x="133.5" y="148"/>
      <point x="133.5" y="378" type="curve" smooth="yes"/>
      <point x="133.5" y="542"/>
      <point x="191.5" y="656"/>
      <point x="312.5" y="822" type="curve" smooth="yes"/>
      <point x="388.5" y="927"/>
      <point x="641.5" y="1241"/>
      <point x="641.5" y="1241" type="curve"/>
    </contour>
  </outline>
</glyph>
<glyph name="seven" format="1">
  <advance width="1142"/>
  <unicode hex="0037"/>
  <outline>
    <contour>
      <point x="300.118" y="0" type="line"/>
      <point x="714.118" y="1020" type="line"/>
      <point x="233.118" y="1020" type="line"/>
      <point x="233.118" y="1241" type="line"/>
      <point x="990.118" y="1241" type="line"/>
      <point x="990.118" y="1055" type="line"/>
      <point x="569.118" y="0" type="line"/>
    </contour>
  </outline>
</glyph>
<glyph name="eight" format="1">
  <advance width="1142"/>
  <unicode hex="0038"/>
  <outline>
    <contour>
      <point x="780" y="334" type="curve" smooth="yes"/>
      <point x="780" y="426"/>
      <point x="698" y="526"/>
      <point x="566" y="570" type="curve"/>
      <point x="424" y="516"/>
      <point x="364" y="429"/>
      <point x="364" y="328" type="curve" smooth="yes"/>
      <point x="364" y="221"/>
      <point x="450" y="162"/>
      <point x="566" y="162" type="curve" smooth="yes"/>
      <point x="688" y="162"/>
      <point x="780" y="218"/>
    </contour>
    <contour>
      <point x="758" y="941" type="curve" smooth="yes"/>
      <point x="758" y="1023"/>
      <point x="678" y="1081"/>
      <point x="566" y="1081" type="curve" smooth="yes"/>
      <point x="454" y="1081"/>
      <point x="378" y="1024"/>
      <point x="378" y="941" type="curve" smooth="yes"/>
      <point x="378" y="848"/>
      <point x="445" y="769"/>
      <point x="558" y="732" type="curve"/>
      <point x="702" y="779"/>
      <point x="758" y="861"/>
    </contour>
    <contour>
      <point x="1006" y="942" type="curve" smooth="yes"/>
      <point x="1006" y="829"/>
      <point x="938" y="725"/>
      <point x="806" y="649" type="curve"/>
      <point x="957" y="559"/>
      <point x="1030" y="456"/>
      <point x="1030" y="313" type="curve" smooth="yes"/>
      <point x="1030" y="84"/>
      <point x="824" y="-33"/>
      <point x="572" y="-33" type="curve" smooth="yes"/>
      <point x="337" y="-33"/>
      <point x="112" y="79"/>
      <point x="112" y="306" type="curve" smooth="yes"/>
      <point x="112" y="451"/>
      <point x="198" y="563"/>
      <point x="328" y="647" type="curve"/>
      <point x="212" y="721"/>
      <point x="136" y="828"/>
      <point x="136" y="941" type="curve" smooth="yes"/>
      <point x="136" y="1127"/>
      <point x="311" y="1275"/>
      <point x="564" y="1275" type="curve" smooth="yes"/>
      <point x="807" y="1275"/>
      <point x="1006" y="1154"/>
    </contour>
  </outline>
</glyph>
<glyph name="nine" format="1">
  <advance width="1142"/>
  <unicode hex="0039"/>
  <outline>
    <contour>
      <point x="258.382" y="0" type="line"/>
      <point x="642.382" y="495" type="line"/>
      <point x="614.382" y="483"/>
      <point x="569.382" y="476"/>
      <point x="538.382" y="476" type="curve" smooth="yes"/>
      <point x="331.382" y="476"/>
      <point x="141.382" y="629"/>
      <point x="141.382" y="867" type="curve" smooth="yes"/>
      <point x="141.382" y="1117"/>
      <point x="343.382" y="1275"/>
      <point x="591.382" y="1275" type="curve" smooth="yes"/>
      <point x="852.382" y="1275"/>
      <point x="1039.38" y="1093"/>
      <point x="1039.38" y="863" type="curve" smooth="yes"/>
      <point x="1039.38" y="699"/>
      <point x="981.382" y="585"/>
      <point x="860.382" y="419" type="curve" smooth="yes"/>
      <point x="784.382" y="314"/>
      <point x="531.382" y="0"/>
      <point x="531.382" y="0" type="curve"/>
    </contour>
    <contour>
      <point x="591.382" y="661" type="curve" smooth="yes"/>
      <point x="737.382" y="661"/>
      <point x="808.382" y="764"/>
      <point x="808.382" y="873" type="curve" smooth="yes"/>
      <point x="808.382" y="981"/>
      <point x="738.382" y="1079"/>
      <point x="597.382" y="1079" type="curve" smooth="yes"/>
      <point x="456.382" y="1079"/>
      <point x="376.382" y="976"/>
      <point x="376.382" y="867" type="curve" smooth="yes"/>
      <point x="376.382" y="755"/>
      <point x="453.382" y="661"/>
    </contour>
  </outline>
</glyph>
<glyph name="colon" format="1">
  <advance width="523"/>
  <unicode hex="003A"/>
  <outline>
    <contour>
      <point x="263" y="-23" type="curve" smooth="yes"/>
      <point x="170" y="-23"/>
      <point x="116" y="47"/>
      <point x="116" y="120" type="curve" smooth="yes"/>
      <point x="116" y="190"/>
      <point x="169" y="263"/>
      <point x="263" y="263" type="curve" smooth="yes"/>
      <point x="355" y="263"/>
      <point x="408" y="189"/>
      <point x="408" y="120" type="curve" smooth="yes"/>
      <point x="408" y="48"/>
      <point x="354" y="-23"/>
    </contour>
    <contour>
      <point x="263" y="601" type="curve" smooth="yes"/>
      <point x="170" y="601"/>
      <point x="116" y="671"/>
      <point x="116" y="744" type="curve" smooth="yes"/>
      <point x="116" y="814"/>
      <point x="169" y="887"/>
      <point x="263" y="887" type="curve" smooth="yes"/>
      <point x="355" y="887"/>
      <point x="408" y="813"/>
      <point x="408" y="744" type="curve" smooth="yes"/>
      <point x="408" y="672"/>
      <point x="354" y="601"/>
    </contour>
  </outline>
</glyph>
<glyph name="semicolon" format="1">
  <advance width="521"/>
  <unicode hex="003B"/>
  <outline>
    <contour>
      <point x="264" y="595" type="curve" smooth="yes"/>
      <point x="171" y="595"/>
      <point x="117" y="665"/>
      <point x="117" y="738" type="curve" smooth="yes"/>
      <point x="117" y="808"/>
      <point x="170" y="881"/>
      <point x="264" y="881" type="curve" smooth="yes"/>
      <point x="356" y="881"/>
      <point x="409" y="807"/>
      <point x="409" y="738" type="curve" smooth="yes"/>
      <point x="409" y="666"/>
      <point x="355" y="595"/>
    </contour>
    <contour>
      <point x="119" y="-186" type="line"/>
      <point x="165" y="-128"/>
      <point x="211" y="-72"/>
      <point x="231" y="-12" type="curve"/>
      <point x="160" y="2"/>
      <point x="119" y="64"/>
      <point x="119" y="127" type="curve" smooth="yes"/>
      <point x="119" y="197"/>
      <point x="172" y="270"/>
      <point x="265" y="270" type="curve" smooth="yes"/>
      <point x="358" y="270"/>
      <point x="410" y="196"/>
      <point x="410" y="127" type="curve" smooth="yes"/>
      <point x="410" y="44"/>
      <point x="353" y="-58"/>
      <point x="201" y="-186" type="curve"/>
    </contour>
  </outline>
</glyph>
<glyph name="question" format="1">
  <advance width="1026"/>
  <unicode hex="003F"/>
  <outline>
    <contour>
      <point x="375" y="-16" type="curve" smooth="yes"/>
      <point x="282" y="-16"/>
      <point x="228" y="54"/>
      <point x="228" y="127" type="curve" smooth="yes"/>
      <point x="228" y="197"/>
      <point x="281" y="270"/>
      <point x="375" y="270" type="curve" smooth="yes"/>
      <point x="467" y="270"/>
      <point x="520" y="196"/>
      <point x="520" y="127" type="curve" smooth="yes"/>
      <point x="520" y="55"/>
      <point x="466" y="-16"/>
    </contour>
    <contour>
      <point x="299" y="394" type="line"/>
      <point x="587" y="722"/>
      <point x="647" y="808"/>
      <point x="647" y="912" type="curve" smooth="yes"/>
      <point x="647" y="1010"/>
      <point x="582" y="1060"/>
      <point x="494" y="1060" type="curve" smooth="yes"/>
      <point x="390" y="1060"/>
      <point x="258" y="988"/>
      <point x="237" y="972" type="curve"/>
      <point x="154" y="1151" type="line"/>
      <point x="171" y="1167"/>
      <point x="347" y="1275"/>
      <point x="521" y="1275" type="curve" smooth="yes"/>
      <point x="754" y="1275"/>
      <point x="899" y="1149"/>
      <point x="899" y="948" type="curve" smooth="yes"/>
      <point x="899" y="798"/>
      <point x="792" y="656"/>
      <point x="482" y="394" type="curve"/>
    </contour>
  </outline>
</glyph>
<glyph name="at" format="1">
  <advance width="1474"/>
  <unicode hex="0040"/>
  <outline>
    <contour>
      <point x="735" y="-109" type="curve" smooth="yes"/>
      <point x="357" y="-109"/>
      <point x="34" y="125"/>
      <point x="34" y="533" type="curve" smooth="yes"/>
      <point x="34" y="847"/>
      <point x="252" y="1218"/>
      <point x="777" y="1218" type="curve" smooth="yes"/>
      <point x="1180" y="1218"/>
      <point x="1395" y="935"/>
      <point x="1395" y="636" type="curve" smooth="yes"/>
      <point x="1395" y="357"/>
      <point x="1218" y="203"/>
      <point x="1067" y="203" type="curve" smooth="yes"/>
      <point x="981" y="203"/>
      <point x="896" y="250"/>
      <point x="872" y="374" type="curve"/>
      <point x="817" y="250"/>
      <point x="718" y="204"/>
      <point x="636" y="204" type="curve" smooth="yes"/>
      <point x="499" y="204"/>
      <point x="381" y="319"/>
      <point x="372" y="494" type="curve" smooth="yes"/>
      <point x="372" y="515" type="line" smooth="yes"/>
      <point x="372" y="651"/>
      <point x="432" y="938"/>
      <point x="869" y="938" type="curve" smooth="yes"/>
      <point x="905" y="938"/>
      <point x="956" y="936"/>
      <point x="998" y="932" type="curve"/>
      <point x="998" y="503" type="line" smooth="yes"/>
      <point x="998" y="423"/>
      <point x="998" y="324"/>
      <point x="1079" y="324" type="curve" smooth="yes"/>
      <point x="1154" y="324"/>
      <point x="1237" y="400"/>
      <point x="1237" y="618" type="curve" smooth="yes"/>
      <point x="1237" y="916"/>
      <point x="1042" y="1079"/>
      <point x="792" y="1079" type="curve" smooth="yes"/>
      <point x="350" y="1079"/>
      <point x="203" y="778"/>
      <point x="203" y="533" type="curve" smooth="yes"/>
      <point x="203" y="194"/>
      <point x="438" y="32"/>
      <point x="748" y="32" type="curve" smooth="yes"/>
      <point x="947" y="32"/>
      <point x="1124" y="105"/>
      <point x="1215" y="158" type="curve"/>
      <point x="1250" y="33" type="line"/>
      <point x="1157" y="-22"/>
      <point x="977" y="-109"/>
    </contour>
    <contour>
      <point x="673" y="337" type="line" smooth="yes"/>
      <point x="744" y="342"/>
      <point x="818" y="403"/>
      <point x="847" y="468" type="curve"/>
      <point x="847" y="808" type="line"/>
      <point x="591" y="808"/>
      <point x="532" y="640"/>
      <point x="532" y="513" type="curve" smooth="yes"/>
      <point x="532" y="502"/>
      <point x="532" y="491"/>
      <point x="533" y="481" type="curve" smooth="yes"/>
      <point x="541" y="388"/>
      <point x="591" y="337"/>
      <point x="661" y="337" type="curve" smooth="yes"/>
    </contour>
  </outline>
</glyph>
<glyph name="A" format="1">
  <advance width="1284"/>
  <unicode hex="0041"/>
  <outline>
    <contour>
      <point x="64" y="0" type="line"/>
      <point x="649" y="1296" type="line"/>
      <point x="1249" y="0" type="line"/>
      <point x="985" y="0" type="line"/>
      <point x="852" y="293" type="line"/>
      <point x="457" y="293" type="line"/>
      <point x="332" y="0" type="line"/>
    </contour>
    <contour>
      <point x="506" y="450" type="line"/>
      <point x="805" y="450" type="line"/>
      <point x="651" y="815" type="line"/>
    </contour>
  </outline>
</glyph>
<glyph name="E" format="1">
  <advance width="973"/>
  <unicode hex="0045"/>
  <outline>
    <contour>
      <point x="155" y="0" type="line"/>
      <point x="155" y="1241" type="line"/>
      <point x="877" y="1241" type="line"/>
      <point x="877" y="1028" type="line"/>
      <point x="402" y="1028" type="line"/>
      <point x="402" y="744" type="line"/>
      <point x="812" y="744" type="line"/>
      <point x="812" y="534" type="line"/>
      <point x="400" y="534" type="line"/>
      <point x="400" y="220" type="line"/>
      <point x="887" y="220" type="line"/>
      <point x="887" y="0" type="line"/>
    </contour>
  </outline>
</glyph>
<glyph name="G" format="1">
  <advance width="1407"/>
  <unicode hex="0047"/>
  <outline>
    <contour>
      <point x="752" y="-33" type="curve" smooth="yes"/>
      <point x="384" y="-33"/>
      <point x="81" y="211"/>
      <point x="81" y="622" type="curve" smooth="yes"/>
      <point x="81" y="1026"/>
      <point x="388" y="1275"/>
      <point x="770" y="1275" type="curve" smooth="yes"/>
      <point x="981" y="1275"/>
      <point x="1167" y="1186"/>
      <point x="1187" y="1178" type="curve"/>
      <point x="1187" y="942" type="line"/>
      <point x="1071" y="1015"/>
      <point x="929" y="1058"/>
      <point x="795" y="1058" type="curve" smooth="yes"/>
      <point x="558" y="1058"/>
      <point x="340" y="931"/>
      <point x="340" y="622" type="curve" smooth="yes"/>
      <point x="340" y="311"/>
      <point x="551" y="183"/>
      <point x="779" y="183" type="curve" smooth="yes"/>
      <point x="907" y="183"/>
      <point x="1008" y="219"/>
      <point x="1062" y="241" type="curve"/>
      <point x="1062" y="500" type="line"/>
      <point x="765" y="500" type="line"/>
      <point x="765" y="701" type="line"/>
      <point x="1301" y="701" type="line"/>
      <point x="1301" y="112" type="line"/>
      <point x="1174" y="36"/>
      <point x="1017" y="-33"/>
    </contour>
  </outline>
</glyph>
<glyph name="H" format="1">
  <advance width="1322"/>
  <unicode hex="0048"/>
  <outline>
    <contour>
      <point x="145" y="0" type="line"/>
      <point x="145" y="1241" type="line"/>
      <point x="401" y="1241" type="line"/>
      <point x="401" y="762" type="line"/>
      <point x="920" y="762" type="line"/>
      <point x="920" y="1241" type="line"/>
      <point x="1176" y="1241" type="line"/>
      <point x="1176" y="0" type="line"/>
      <point x="920" y="0" type="line"/>
      <point x="920" y="542" type="line"/>
      <point x="401" y="542" type="line"/>
      <point x="401" y="0" type="line"/>
    </contour>
  </outline>
</glyph>
<glyph name="K" format="1">
  <advance width="1219"/>
  <unicode hex="004B"/>
  <outline>
    <contour>
      <point x="145" y="0" type="line"/>
      <point x="145" y="1241" type="line"/>
      <point x="395" y="1241" type="line"/>
      <point x="395" y="687" type="line"/>
      <point x="859" y="1241" type="line"/>
      <point x="1156" y="1241" type="line"/>
      <point x="652" y="637" type="line"/>
      <point x="1188" y="0" type="line"/>
      <point x="882" y="0" type="line"/>
      <point x="397" y="583" type="line"/>
      <point x="397" y="0" type="line"/>
    </contour>
  </outline>
</glyph>
<glyph name="L" format="1">
  <advance width="1009"/>
  <unicode hex="004C"/>
  <outline>
    <contour>
      <point x="155" y="0" type="line"/>
      <point x="155" y="1241" type="line"/>
      <point x="411" y="1241" type="line"/>
      <point x="411" y="221" type="line"/>
      <point x="914" y="221" type="line"/>
      <point x="914" y="0" type="line"/>
    </contour>
  </outline>
</glyph>
<glyph name="M" format="1">
  <advance width="1664"/>
  <unicode hex="004D"/>
  <outline>
    <contour>
      <point x="833" y="-11" type="line"/>
      <point x="420" y="670" type="line"/>
      <point x="314" y="0" type="line"/>
      <point x="74" y="0" type="line"/>
      <point x="293" y="1301" type="line"/>
      <point x="832" y="396" type="line"/>
      <point x="1371" y="1301" type="line"/>
      <point x="1590" y="0" type="line"/>
      <point x="1350" y="0" type="line"/>
      <point x="1245" y="670" type="line"/>
    </contour>
  </outline>
</glyph>
<glyph name="N" format="1">
  <advance width="1350"/>
  <unicode hex="004E"/>
  <outline>
    <contour>
      <point x="1204" y="-50" type="line"/>
      <point x="401" y="733" type="line"/>
      <point x="401" y="0" type="line"/>
      <point x="145" y="0" type="line"/>
      <point x="145" y="1297" type="line"/>
      <point x="948" y="507" type="line"/>
      <point x="948" y="1241" type="line"/>
      <point x="1204" y="1241" type="line"/>
    </contour>
  </outline>
</glyph>
<glyph name="O" format="1">
  <advance width="1509"/>
  <unicode hex="004F"/>
  <outline>
    <contour>
      <point x="754" y="182" type="curve" smooth="yes"/>
      <point x="955" y="182"/>
      <point x="1162" y="329"/>
      <point x="1162" y="619" type="curve" smooth="yes"/>
      <point x="1162" y="912"/>
      <point x="963" y="1060"/>
      <point x="754" y="1060" type="curve" smooth="yes"/>
      <point x="545" y="1060"/>
      <point x="348" y="912"/>
      <point x="348" y="620" type="curve" smooth="yes"/>
      <point x="348" y="328"/>
      <point x="549" y="182"/>
    </contour>
    <contour>
      <point x="755" y="-33" type="curve" smooth="yes"/>
      <point x="420" y="-33"/>
      <point x="89" y="184"/>
      <point x="89" y="620" type="curve" smooth="yes"/>
      <point x="89" y="1058"/>
      <point x="420" y="1275"/>
      <point x="754" y="1275" type="curve" smooth="yes"/>
      <point x="1088" y="1275"/>
      <point x="1420" y="1058"/>
      <point x="1420" y="624" type="curve" smooth="yes"/>
      <point x="1420" y="184"/>
      <point x="1088" y="-33"/>
    </contour>
  </outline>
</glyph>
<glyph name="P" format="1">
  <advance width="1063"/>
  <unicode hex="0050"/>
  <outline>
    <contour>
      <point x="161" y="0" type="line"/>
      <point x="161" y="1241" type="line"/>
      <point x="514" y="1241" type="line" smooth="yes"/>
      <point x="796" y="1241"/>
      <point x="987" y="1123"/>
      <point x="987" y="869" type="curve" smooth="yes"/>
      <point x="987" y="532"/>
      <point x="671" y="504"/>
      <point x="479" y="504" type="curve" smooth="yes"/>
      <point x="413" y="504" type="line"/>
      <point x="413" y="0" type="line"/>
    </contour>
    <contour>
      <point x="411" y="646" type="line"/>
      <point x="487" y="646" type="line" smooth="yes"/>
      <point x="645" y="646"/>
      <point x="748" y="727"/>
      <point x="748" y="864" type="curve" smooth="yes"/>
      <point x="748" y="981"/>
      <point x="677" y="1074"/>
      <point x="482" y="1074" type="curve" smooth="yes"/>
      <point x="411" y="1074" type="line"/>
    </contour>
  </outline>
</glyph>
<glyph name="Q" format="1">
  <advance width="1509"/>
  <unicode hex="0051"/>
  <outline>
    <contour>
      <point x="746" y="182" type="curve" smooth="yes"/>
      <point x="802" y="182"/>
      <point x="858" y="193"/>
      <point x="910" y="216" type="curve"/>
      <point x="827" y="311" type="line"/>
      <point x="911" y="397" type="line"/>
      <point x="1026" y="293" type="line"/>
      <point x="1102" y="366"/>
      <point x="1154" y="475"/>
      <point x="1154" y="619" type="curve" smooth="yes"/>
      <point x="1154" y="912"/>
      <point x="955" y="1060"/>
      <point x="746" y="1060" type="curve" smooth="yes"/>
      <point x="537" y="1060"/>
      <point x="340" y="912"/>
      <point x="340" y="620" type="curve" smooth="yes"/>
      <point x="340" y="328"/>
      <point x="541" y="182"/>
    </contour>
    <contour>
      <point x="1263" y="-186" type="line"/>
      <point x="1066" y="39" type="line"/>
      <point x="968" y="-9"/>
      <point x="857" y="-33"/>
      <point x="747" y="-33" type="curve" smooth="yes"/>
      <point x="412" y="-33"/>
      <point x="81" y="184"/>
      <point x="81" y="620" type="curve" smooth="yes"/>
      <point x="81" y="1058"/>
      <point x="412" y="1275"/>
      <point x="746" y="1275" type="curve" smooth="yes"/>
      <point x="1080" y="1275"/>
      <point x="1412" y="1058"/>
      <point x="1412" y="624" type="curve" smooth="yes"/>
      <point x="1412" y="405"/>
      <point x="1329" y="240"/>
      <point x="1205" y="131" type="curve"/>
      <point x="1422" y="-64" type="line"/>
    </contour>
  </outline>
</glyph>
<glyph name="R" format="1">
  <advance width="1129"/>
  <unicode hex="0052"/>
  <outline>
    <contour>
      <point x="161" y="0" type="line"/>
      <point x="161" y="1241" type="line"/>
      <point x="503" y="1241" type="line" smooth="yes"/>
      <point x="769" y="1241"/>
      <point x="975" y="1137"/>
      <point x="975" y="888" type="curve" smooth="yes"/>
      <point x="975" y="720"/>
      <point x="860" y="608"/>
      <point x="665" y="575" type="curve"/>
      <point x="1108" y="0" type="line"/>
      <point x="818" y="0" type="line"/>
      <point x="426" y="537" type="line"/>
      <point x="413" y="537" type="line"/>
      <point x="413" y="0" type="line"/>
    </contour>
    <contour>
      <point x="411" y="676" type="line"/>
      <point x="461" y="676" type="line" smooth="yes"/>
      <point x="612" y="676"/>
      <point x="735" y="746"/>
      <point x="735" y="883" type="curve" smooth="yes"/>
      <point x="735" y="1000"/>
      <point x="655" y="1074"/>
      <point x="472" y="1074" type="curve" smooth="yes"/>
      <point x="411" y="1074" type="line"/>
    </contour>
  </outline>
</glyph>
<glyph name="S" format="1">
  <advance width="956"/>
  <unicode hex="0053"/>
  <outline>
    <contour>
      <point x="513" y="-33" type="curve" smooth="yes"/>
      <point x="277" y="-33"/>
      <point x="139" y="74"/>
      <point x="123" y="84" type="curve"/>
      <point x="123" y="305" type="line"/>
      <point x="151" y="286"/>
      <point x="339" y="176"/>
      <point x="481" y="176" type="curve" smooth="yes"/>
      <point x="585" y="176"/>
      <point x="633" y="226"/>
      <point x="633" y="304" type="curve" smooth="yes"/>
      <point x="633" y="351"/>
      <point x="615" y="396"/>
      <point x="518" y="463" type="curve" smooth="yes"/>
      <point x="273" y="635" type="line" smooth="yes"/>
      <point x="161" y="714"/>
      <point x="95" y="828"/>
      <point x="95" y="937" type="curve" smooth="yes"/>
      <point x="95" y="1116"/>
      <point x="221" y="1275"/>
      <point x="472" y="1275" type="curve" smooth="yes"/>
      <point x="658" y="1275"/>
      <point x="799" y="1204"/>
      <point x="816" y="1191" type="curve"/>
      <point x="816" y="978" type="line"/>
      <point x="789" y="992"/>
      <point x="625" y="1067"/>
      <point x="505" y="1067" type="curve" smooth="yes"/>
      <point x="377" y="1067"/>
      <point x="340" y="1004"/>
      <point x="340" y="944" type="curve" smooth="yes"/>
      <point x="340" y="898"/>
      <point x="375" y="847"/>
      <point x="442" y="799" type="curve" smooth="yes"/>
      <point x="648" y="653" type="line"/>
      <point x="807" y="539"/>
      <point x="874" y="434"/>
      <point x="874" y="309" type="curve" smooth="yes"/>
      <point x="874" y="76"/>
      <point x="703" y="-33"/>
    </contour>
  </outline>
</glyph>
<glyph name="T" format="1">
  <advance width="1122"/>
  <unicode hex="0054"/>
  <outline>
    <contour>
      <point x="429" y="0" type="line"/>
      <point x="429" y="1020" type="line"/>
      <point x="55" y="1020" type="line"/>
      <point x="55" y="1241" type="line"/>
      <point x="1059" y="1241" type="line"/>
      <point x="1059" y="1020" type="line"/>
      <point x="685" y="1020" type="line"/>
      <point x="685" y="0" type="line"/>
    </contour>
  </outline>
</glyph>
<glyph name="U" format="1">
  <advance width="1402"/>
  <unicode hex="0055"/>
  <outline>
    <contour>
      <point x="690" y="-33" type="curve" smooth="yes"/>
      <point x="373" y="-33"/>
      <point x="128" y="142"/>
      <point x="128" y="493" type="curve" smooth="yes"/>
      <point x="128" y="1241" type="line"/>
      <point x="373" y="1241" type="line"/>
      <point x="373" y="494" type="line" smooth="yes"/>
      <point x="373" y="264"/>
      <point x="503" y="165"/>
      <point x="690" y="165" type="curve" smooth="yes"/>
      <point x="877" y="165"/>
      <point x="1007" y="264"/>
      <point x="1007" y="494" type="curve" smooth="yes"/>
      <point x="1007" y="1241" type="line"/>
      <point x="1252" y="1241" type="line"/>
      <point x="1252" y="493" type="line" smooth="yes"/>
      <point x="1252" y="142"/>
      <point x="1007" y="-33"/>
    </contour>
  </outline>
</glyph>
<glyph name="X" format="1">
  <advance width="1519"/>
  <unicode hex="0058"/>
  <outline>
    <contour>
      <point x="100" y="0" type="line"/>
      <point x="622" y="639" type="line"/>
      <point x="104" y="1241" type="line"/>
      <point x="397" y="1241" type="line"/>
      <point x="767" y="815" type="line"/>
      <point x="1115" y="1241" type="line"/>
      <point x="1422" y="1241" type="line"/>
      <point x="926" y="632" type="line"/>
      <point x="1474" y="0" type="line"/>
      <point x="1172" y="0" type="line"/>
      <point x="781" y="454" type="line"/>
      <point x="412" y="0" type="line"/>
    </contour>
  </outline>
</glyph>
<glyph name="Y" format="1">
  <advance width="1259"/>
  <unicode hex="0059"/>
  <outline>
    <contour>
      <point x="506" y="0" type="line"/>
      <point x="506" y="467" type="line"/>
      <point x="54" y="1241" type="line"/>
      <point x="311" y="1241" type="line"/>
      <point x="635" y="674" type="line"/>
      <point x="936" y="1241" type="line"/>
      <point x="1200" y="1241" type="line"/>
      <point x="762" y="464" type="line"/>
      <point x="762" y="0" type="line"/>
    </contour>
  </outline>
</glyph>
<glyph name="Z" format="1">
  <advance width="1059"/>
  <unicode hex="005A"/>
  <outline>
    <contour>
      <point x="80" y="0" type="line"/>
      <point x="591" y="1020" type="line"/>
      <point x="108" y="1020" type="line"/>
      <point x="108" y="1241" type="line"/>
      <point x="967" y="1241" type="line"/>
      <point x="465" y="221" type="line"/>
      <point x="950" y="221" type="line"/>
      <point x="950" y="0" type="line"/>
    </contour>
  </outline>
</glyph>
<glyph name="bracketleft" format="1">
  <advance width="817"/>
  <unicode hex="005B"/>
  <outline>
    <contour>
      <point x="152" y="0" type="line"/>
      <point x="152" y="1241" type="line"/>
      <point x="671" y="1241" type="line"/>
      <point x="671" y="1057" type="line"/>
      <point x="408" y="1057" type="line"/>
      <point x="408" y="184" type="line"/>
      <point x="671" y="184" type="line"/>
      <point x="671" y="0" type="line"/>
    </contour>
  </outline>
</glyph>
<glyph name="backslash" format="1">
  <advance width="944"/>
  <unicode hex="005C"/>
  <outline>
    <contour>
      <point x="862" y="0" type="line"/>
      <point x="642" y="0" type="line"/>
      <point x="91" y="1241" type="line"/>
      <point x="313" y="1241" type="line"/>
    </contour>
  </outline>
</glyph>
<glyph name="bracketright" format="1">
  <advance width="817"/>
  <unicode hex="005D"/>
  <outline>
    <contour>
      <point x="147" y="0" type="line"/>
      <point x="147" y="184" type="line"/>
      <point x="410" y="184" type="line"/>
      <point x="410" y="1057" type="line"/>
      <point x="147" y="1057" type="line"/>
      <point x="147" y="1241" type="line"/>
      <point x="666" y="1241" type="line"/>
      <point x="666" y="0" type="line"/>
    </contour>
  </outline>
</glyph>
<glyph name="asciicircum" format="1">
  <advance width="993"/>
  <unicode hex="005E"/>
  <outline>
    <contour>
      <point x="435" y="1118" type="line"/>
      <point x="909" y="229" type="line"/>
      <point x="653" y="229" type="line"/>
      <point x="434" y="700" type="line"/>
      <point x="221" y="229" type="line"/>
      <point x="-36" y="229" type="line"/>
    </contour>
  </outline>
</glyph>
<glyph name="underscore" format="1">
  <advance width="1001"/>
  <unicode hex="005F"/>
  <outline>
    <contour>
      <point x="142" y="-204" type="line"/>
      <point x="142" y="-1" type="line"/>
      <point x="901" y="-1" type="line"/>
      <point x="901" y="-204" type="line"/>
    </contour>
  </outline>
</glyph>
<glyph name="grave" format="1">
  <advance width="502"/>
  <unicode hex="0060"/>
  <outline>
    <contour>
      <point x="405" y="97" type="curve" smooth="yes"/>
      <point x="394" y="97"/>
      <point x="381" y="102"/>
      <point x="370" y="115" type="curve" smooth="yes"/>
      <point x="82" y="433" type="line" smooth="yes"/>
      <point x="54" y="463"/>
      <point x="42" y="493"/>
      <point x="42" y="520" type="curve" smooth="yes"/>
      <point x="42" y="570"/>
      <point x="84" y="607"/>
      <point x="130" y="607" type="curve" smooth="yes"/>
      <point x="166" y="607"/>
      <point x="207" y="583"/>
      <point x="236" y="524" type="curve" smooth="yes"/>
      <point x="430" y="158" type="line" smooth="yes"/>
      <point x="435" y="149"/>
      <point x="436" y="139"/>
      <point x="436" y="132" type="curve" smooth="yes"/>
      <point x="436" y="111"/>
      <point x="422" y="97"/>
    </contour>
  </outline>
</glyph>
<glyph name="a" format="1">
  <advance width="958"/>
  <unicode hex="0061"/>
  <outline>
    <contour>
      <point x="413" y="135" type="curve" smooth="yes"/>
      <point x="472" y="135"/>
      <point x="523" y="165"/>
      <point x="557" y="205" type="curve"/>
      <point x="557" y="408" type="line"/>
      <point x="539" y="402"/>
      <point x="470" y="382"/>
      <point x="455" y="374" type="curve"/>
      <point x="357" y="334"/>
      <point x="330" y="277"/>
      <point x="330" y="233" type="curve" smooth="yes"/>
      <point x="330" y="175"/>
      <point x="364" y="135"/>
    </contour>
    <contour>
      <point x="359" y="-22" type="curve" smooth="yes"/>
      <point x="222" y="-22"/>
      <point x="102" y="67"/>
      <point x="102" y="219" type="curve" smooth="yes"/>
      <point x="102" y="326"/>
      <point x="192" y="436"/>
      <point x="440" y="493" type="curve"/>
      <point x="558" y="521" type="line"/>
      <point x="558" y="548" type="line" smooth="yes"/>
      <point x="558" y="670"/>
      <point x="495" y="697"/>
      <point x="426" y="697" type="curve" smooth="yes"/>
      <point x="333" y="697"/>
      <point x="218" y="634"/>
      <point x="172" y="609" type="curve"/>
      <point x="106" y="784" type="line"/>
      <point x="129" y="799"/>
      <point x="264" y="885"/>
      <point x="455" y="885" type="curve" smooth="yes"/>
      <point x="609" y="885"/>
      <point x="787" y="806"/>
      <point x="787" y="593" type="curve" smooth="yes"/>
      <point x="787" y="289" type="line" smooth="yes"/>
      <point x="787" y="202"/>
      <point x="831" y="172"/>
      <point x="900" y="172" type="curve" smooth="yes"/>
      <point x="914" y="172" type="line"/>
      <point x="850" y="-15" type="line"/>
      <point x="836" y="-15" type="line" smooth="yes"/>
      <point x="764" y="-15"/>
      <point x="643" y="19"/>
      <point x="598" y="106" type="curve"/>
      <point x="531" y="9"/>
      <point x="428" y="-22"/>
    </contour>
  </outline>
</glyph>
<glyph name="b" format="1">
  <advance width="1086"/>
  <unicode hex="0062"/>
  <outline>
    <contour>
      <point x="514" y="-19" type="curve" smooth="yes"/>
      <point x="405" y="-19"/>
      <point x="275" y="5"/>
      <point x="134" y="52" type="curve"/>
      <point x="134" y="1234" type="line"/>
      <point x="367" y="1267" type="line"/>
      <point x="367" y="819" type="line"/>
      <point x="419" y="847"/>
      <point x="500" y="885"/>
      <point x="600" y="885" type="curve" smooth="yes"/>
      <point x="827" y="885"/>
      <point x="999" y="698"/>
      <point x="999" y="457" type="curve" smooth="yes"/>
      <point x="999" y="160"/>
      <point x="814" y="-19"/>
    </contour>
    <contour>
      <point x="484" y="159" type="curve" smooth="yes"/>
      <point x="658" y="159"/>
      <point x="770" y="250"/>
      <point x="770" y="438" type="curve" smooth="yes"/>
      <point x="770" y="586"/>
      <point x="690" y="698"/>
      <point x="544" y="698" type="curve" smooth="yes"/>
      <point x="478" y="698"/>
      <point x="403" y="666"/>
      <point x="367" y="649" type="curve"/>
      <point x="367" y="171" type="line"/>
      <point x="400" y="165"/>
      <point x="439" y="159"/>
    </contour>
  </outline>
</glyph>
<glyph name="c" format="1">
  <advance width="937"/>
  <unicode hex="0063"/>
  <outline>
    <contour>
      <point x="577" y="-22" type="curve" smooth="yes"/>
      <point x="283" y="-22"/>
      <point x="87" y="167"/>
      <point x="87" y="432" type="curve" smooth="yes"/>
      <point x="87" y="703"/>
      <point x="295" y="885"/>
      <point x="572" y="885" type="curve" smooth="yes"/>
      <point x="748" y="885"/>
      <point x="827" y="824"/>
      <point x="842" y="814" type="curve"/>
      <point x="842" y="606" type="line"/>
      <point x="824" y="620"/>
      <point x="739" y="696"/>
      <point x="583" y="696" type="curve" smooth="yes"/>
      <point x="412" y="696"/>
      <point x="318" y="572"/>
      <point x="318" y="433" type="curve" smooth="yes"/>
      <point x="318" y="292"/>
      <point x="411" y="166"/>
      <point x="590" y="166" type="curve" smooth="yes"/>
      <point x="717" y="166"/>
      <point x="783" y="208"/>
      <point x="842" y="240" type="curve"/>
      <point x="842" y="53" type="line"/>
      <point x="819" y="40"/>
      <point x="726" y="-22"/>
    </contour>
  </outline>
</glyph>
<glyph name="d" format="1">
  <advance width="1088"/>
  <unicode hex="0064"/>
  <outline>
    <contour>
      <point x="574" y="-22" type="curve" smooth="yes"/>
      <point x="267" y="-22"/>
      <point x="87" y="160"/>
      <point x="87" y="457" type="curve" smooth="yes"/>
      <point x="87" y="698"/>
      <point x="262" y="885"/>
      <point x="488" y="885" type="curve" smooth="yes"/>
      <point x="588" y="885"/>
      <point x="670" y="850"/>
      <point x="721" y="822" type="curve"/>
      <point x="721" y="1234" type="line"/>
      <point x="954" y="1267" type="line"/>
      <point x="954" y="52" type="line"/>
      <point x="813" y="5"/>
      <point x="683" y="-22"/>
    </contour>
    <contour>
      <point x="604" y="159" type="curve" smooth="yes"/>
      <point x="649" y="159"/>
      <point x="690" y="166"/>
      <point x="721" y="171" type="curve"/>
      <point x="721" y="652" type="line"/>
      <point x="684" y="669"/>
      <point x="620" y="698"/>
      <point x="549" y="698" type="curve" smooth="yes"/>
      <point x="401" y="698"/>
      <point x="316" y="587"/>
      <point x="316" y="438" type="curve" smooth="yes"/>
      <point x="316" y="250"/>
      <point x="431" y="159"/>
    </contour>
  </outline>
</glyph>
<glyph name="e" format="1">
  <advance width="993"/>
  <unicode hex="0065"/>
  <outline>
    <contour>
      <point x="595" y="-22" type="curve" smooth="yes"/>
      <point x="334" y="-22"/>
      <point x="87" y="131"/>
      <point x="87" y="446" type="curve" smooth="yes"/>
      <point x="87" y="686"/>
      <point x="268" y="885"/>
      <point x="518" y="885" type="curve" smooth="yes"/>
      <point x="793" y="885"/>
      <point x="908" y="674"/>
      <point x="908" y="433" type="curve" smooth="yes"/>
      <point x="908" y="380" type="line"/>
      <point x="320" y="380" type="line"/>
      <point x="347" y="213"/>
      <point x="473" y="158"/>
      <point x="611" y="158" type="curve" smooth="yes"/>
      <point x="734" y="158"/>
      <point x="828" y="201"/>
      <point x="892" y="244" type="curve"/>
      <point x="892" y="56" type="line"/>
      <point x="808" y="7"/>
      <point x="709" y="-22"/>
    </contour>
    <contour>
      <point x="327" y="518" type="curve"/>
      <point x="719" y="518" type="line"/>
      <point x="715" y="623"/>
      <point x="656" y="718"/>
      <point x="542" y="718" type="curve" smooth="yes"/>
      <point x="382" y="718"/>
      <point x="344" y="596"/>
    </contour>
  </outline>
</glyph>
<glyph name="h" format="1">
  <advance width="1166"/>
  <unicode hex="0068"/>
  <outline>
    <contour>
      <point x="139" y="0" type="line"/>
      <point x="139" y="1234" type="line"/>
      <point x="375" y="1267" type="line"/>
      <point x="375" y="759" type="line"/>
      <point x="447" y="822"/>
      <point x="559" y="885"/>
      <point x="700" y="885" type="curve" smooth="yes"/>
      <point x="879" y="885"/>
      <point x="1028" y="760"/>
      <point x="1028" y="580" type="curve" smooth="yes"/>
      <point x="1028" y="0" type="line"/>
      <point x="790" y="0" type="line"/>
      <point x="790" y="559" type="line" smooth="yes"/>
      <point x="790" y="664"/>
      <point x="724" y="704"/>
      <point x="626" y="704" type="curve" smooth="yes"/>
      <point x="504" y="704"/>
      <point x="397" y="624"/>
      <point x="377" y="585" type="curve"/>
      <point x="377" y="0" type="line"/>
    </contour>
  </outline>
</glyph>
<glyph name="i" format="1">
  <advance width="559"/>
  <unicode hex="0069"/>
  <outline>
    <contour>
      <point x="280" y="992" type="curve" smooth="yes"/>
      <point x="188" y="992"/>
      <point x="134" y="1051"/>
      <point x="134" y="1124" type="curve" smooth="yes"/>
      <point x="134" y="1194"/>
      <point x="187" y="1256"/>
      <point x="280" y="1256" type="curve" smooth="yes"/>
      <point x="373" y="1256"/>
      <point x="425" y="1193"/>
      <point x="425" y="1124" type="curve" smooth="yes"/>
      <point x="425" y="1052"/>
      <point x="372" y="992"/>
    </contour>
    <contour>
      <point x="165" y="0" type="line"/>
      <point x="165" y="860" type="line"/>
      <point x="396" y="860" type="line"/>
      <point x="396" y="0" type="line"/>
    </contour>
  </outline>
</glyph>
<glyph name="j" format="1">
  <advance width="565"/>
  <unicode hex="006A"/>
  <outline>
    <contour>
      <point x="47" y="-340" type="curve"/>
      <point x="1" y="-151" type="line"/>
      <point x="4" y="-151"/>
      <point x="35" y="-144"/>
      <point x="38" y="-143" type="curve" smooth="yes"/>
      <point x="116" y="-129"/>
      <point x="182" y="-112"/>
      <point x="182" y="-12" type="curve" smooth="yes"/>
      <point x="182" y="860" type="line"/>
      <point x="416" y="860" type="line"/>
      <point x="416" y="-36" type="line" smooth="yes"/>
      <point x="416" y="-157"/>
      <point x="365" y="-336"/>
    </contour>
    <contour>
      <point x="297" y="992" type="curve" smooth="yes"/>
      <point x="205" y="992"/>
      <point x="151" y="1051"/>
      <point x="151" y="1124" type="curve" smooth="yes"/>
      <point x="151" y="1194"/>
      <point x="204" y="1256"/>
      <point x="297" y="1256" type="curve" smooth="yes"/>
      <point x="390" y="1256"/>
      <point x="442" y="1193"/>
      <point x="442" y="1124" type="curve" smooth="yes"/>
      <point x="442" y="1052"/>
      <point x="389" y="992"/>
    </contour>
  </outline>
</glyph>
<glyph name="l" format="1">
  <advance width="677"/>
  <unicode hex="006C"/>
  <outline>
    <contour>
      <point x="616" y="16" type="line"/>
      <point x="599" y="8"/>
      <point x="528" y="-22"/>
      <point x="408" y="-22" type="curve" smooth="yes"/>
      <point x="264" y="-22"/>
      <point x="134" y="71"/>
      <point x="134" y="255" type="curve" smooth="yes"/>
      <point x="134" y="1234" type="line"/>
      <point x="367" y="1267" type="line"/>
      <point x="367" y="275" type="line" smooth="yes"/>
      <point x="367" y="191"/>
      <point x="413" y="164"/>
      <point x="465" y="164" type="curve" smooth="yes"/>
      <point x="530" y="164"/>
      <point x="616" y="192"/>
      <point x="616" y="192" type="curve"/>
    </contour>
  </outline>
</glyph>
<glyph name="m" format="1">
  <advance width="1698"/>
  <unicode hex="006D"/>
  <outline>
    <contour>
      <point x="134" y="0" type="line"/>
      <point x="134" y="860" type="line"/>
      <point x="364" y="860" type="line"/>
      <point x="364" y="759" type="line"/>
      <point x="428" y="836"/>
      <point x="559" y="885"/>
      <point x="666" y="885" type="curve" smooth="yes"/>
      <point x="782" y="885"/>
      <point x="872" y="826"/>
      <point x="919" y="746" type="curve"/>
      <point x="1006" y="835"/>
      <point x="1145" y="885"/>
      <point x="1245" y="885" type="curve" smooth="yes"/>
      <point x="1420" y="885"/>
      <point x="1578" y="780"/>
      <point x="1578" y="571" type="curve" smooth="yes"/>
      <point x="1578" y="0" type="line"/>
      <point x="1346" y="0" type="line"/>
      <point x="1346" y="551" type="line" smooth="yes"/>
      <point x="1346" y="663"/>
      <point x="1288" y="698"/>
      <point x="1200" y="698" type="curve" smooth="yes"/>
      <point x="1095" y="698"/>
      <point x="1001" y="623"/>
      <point x="968" y="587" type="curve"/>
      <point x="968" y="0" type="line"/>
      <point x="738" y="0" type="line"/>
      <point x="738" y="559" type="line" smooth="yes"/>
      <point x="738" y="665"/>
      <point x="671" y="698"/>
      <point x="597" y="698" type="curve" smooth="yes"/>
      <point x="496" y="698"/>
      <point x="405" y="635"/>
      <point x="367" y="585" type="curve"/>
      <point x="367" y="0" type="line"/>
    </contour>
  </outline>
</glyph>
<glyph name="n" format="1">
  <advance width="1143"/>
  <unicode hex="006E"/>
  <outline>
    <contour>
      <point x="134" y="0" type="line"/>
      <point x="134" y="860" type="line"/>
      <point x="369" y="860" type="line"/>
      <point x="369" y="759" type="line"/>
      <point x="442" y="822"/>
      <point x="553" y="885"/>
      <point x="694" y="885" type="curve" smooth="yes"/>
      <point x="873" y="885"/>
      <point x="1023" y="760"/>
      <point x="1023" y="580" type="curve" smooth="yes"/>
      <point x="1023" y="0" type="line"/>
      <point x="786" y="0" type="line"/>
      <point x="786" y="559" type="line" smooth="yes"/>
      <point x="786" y="664"/>
      <point x="718" y="704"/>
      <point x="621" y="704" type="curve" smooth="yes"/>
      <point x="499" y="704"/>
      <point x="392" y="624"/>
      <point x="372" y="585" type="curve"/>
      <point x="372" y="0" type="line"/>
    </contour>
  </outline>
</glyph>
<glyph name="o" format="1">
  <advance width="1134"/>
  <unicode hex="006F"/>
  <outline>
    <contour>
      <point x="567" y="-22" type="curve" smooth="yes"/>
      <point x="304" y="-22"/>
      <point x="87" y="154"/>
      <point x="87" y="431" type="curve" smooth="yes"/>
      <point x="87" y="708"/>
      <point x="305" y="885"/>
      <point x="568" y="885" type="curve" smooth="yes"/>
      <point x="826" y="885"/>
      <point x="1047" y="709"/>
      <point x="1047" y="431" type="curve" smooth="yes"/>
      <point x="1047" y="155"/>
      <point x="830" y="-22"/>
    </contour>
    <contour>
      <point x="567" y="166" type="curve" smooth="yes"/>
      <point x="736" y="166"/>
      <point x="822" y="297"/>
      <point x="822" y="430" type="curve" smooth="yes"/>
      <point x="822" y="563"/>
      <point x="736" y="696"/>
      <point x="567" y="696" type="curve" smooth="yes"/>
      <point x="399" y="696"/>
      <point x="312" y="563"/>
      <point x="312" y="431" type="curve" smooth="yes"/>
      <point x="312" y="293"/>
      <point x="399" y="166"/>
    </contour>
  </outline>
</glyph>
<glyph name="p" format="1">
  <advance width="1086"/>
  <unicode hex="0070"/>
  <outline>
    <contour>
      <point x="134" y="-379" type="line"/>
      <point x="134" y="860" type="line"/>
      <point x="368" y="860" type="line"/>
      <point x="368" y="807" type="line"/>
      <point x="414" y="849"/>
      <point x="492" y="885"/>
      <point x="601" y="885" type="curve" smooth="yes"/>
      <point x="843" y="885"/>
      <point x="999" y="690"/>
      <point x="999" y="439" type="curve" smooth="yes"/>
      <point x="999" y="172"/>
      <point x="825" y="-22"/>
      <point x="536" y="-22" type="curve" smooth="yes"/>
      <point x="444" y="-22"/>
      <point x="368" y="10"/>
      <point x="368" y="10" type="curve"/>
      <point x="368" y="-373" type="line"/>
    </contour>
    <contour>
      <point x="496" y="159" type="curve" smooth="yes"/>
      <point x="676" y="159"/>
      <point x="770" y="265"/>
      <point x="770" y="441" type="curve" smooth="yes"/>
      <point x="770" y="602"/>
      <point x="680" y="698"/>
      <point x="538" y="698" type="curve" smooth="yes"/>
      <point x="470" y="698"/>
      <point x="407" y="667"/>
      <point x="368" y="647" type="curve"/>
      <point x="368" y="176" type="line"/>
      <point x="389" y="174"/>
      <point x="438" y="159"/>
    </contour>
  </outline>
</glyph>
<glyph name="q" format="1">
  <advance width="1086"/>
  <unicode hex="0071"/>
  <outline>
    <contour>
      <point x="719" y="-378" type="line"/>
      <point x="719" y="8" type="line"/>
      <point x="674" y="-10"/>
      <point x="615" y="-22"/>
      <point x="532" y="-22" type="curve" smooth="yes"/>
      <point x="286" y="-22"/>
      <point x="87" y="159"/>
      <point x="87" y="419" type="curve" smooth="yes"/>
      <point x="87" y="711"/>
      <point x="270" y="885"/>
      <point x="518" y="885" type="curve" smooth="yes"/>
      <point x="603" y="885"/>
      <point x="678" y="852"/>
      <point x="719" y="824" type="curve"/>
      <point x="719" y="860" type="line"/>
      <point x="952" y="860" type="line"/>
      <point x="952" y="-378" type="line"/>
    </contour>
    <contour>
      <point x="563" y="166" type="curve" smooth="yes"/>
      <point x="670" y="166"/>
      <point x="719" y="179"/>
      <point x="719" y="179" type="curve"/>
      <point x="719" y="673" type="line"/>
      <point x="709" y="681"/>
      <point x="619" y="705"/>
      <point x="566" y="705" type="curve" smooth="yes"/>
      <point x="425" y="705"/>
      <point x="316" y="620"/>
      <point x="316" y="434" type="curve" smooth="yes"/>
      <point x="316" y="268"/>
      <point x="410" y="166"/>
    </contour>
  </outline>
</glyph>
<glyph name="r" format="1">
  <advance width="813"/>
  <unicode hex="0072"/>
  <outline>
    <contour>
      <point x="134" y="0" type="line"/>
      <point x="134" y="860" type="line"/>
      <point x="366" y="860" type="line"/>
      <point x="366" y="614" type="line"/>
      <point x="394" y="720"/>
      <point x="512" y="866"/>
      <point x="608" y="866" type="curve" smooth="yes"/>
      <point x="680" y="866"/>
      <point x="745" y="824"/>
      <point x="816" y="744" type="curve"/>
      <point x="717" y="558" type="line"/>
      <point x="674" y="608"/>
      <point x="622" y="640"/>
      <point x="569" y="640" type="curve" smooth="yes"/>
      <point x="473" y="640"/>
      <point x="366" y="537"/>
      <point x="366" y="379" type="curve" smooth="yes"/>
      <point x="366" y="0" type="line"/>
    </contour>
  </outline>
</glyph>
<glyph name="u" format="1">
  <advance width="1137"/>
  <unicode hex="0075"/>
  <outline>
    <contour>
      <point x="453" y="-22" type="curve" smooth="yes"/>
      <point x="270" y="-22"/>
      <point x="121" y="101"/>
      <point x="121" y="280" type="curve" smooth="yes"/>
      <point x="121" y="860" type="line"/>
      <point x="359" y="860" type="line"/>
      <point x="359" y="302" type="line" smooth="yes"/>
      <point x="359" y="196"/>
      <point x="423" y="157"/>
      <point x="521" y="157" type="curve" smooth="yes"/>
      <point x="642" y="157"/>
      <point x="745" y="236"/>
      <point x="765" y="275" type="curve"/>
      <point x="765" y="860" type="line"/>
      <point x="1003" y="860" type="line"/>
      <point x="1003" y="0" type="line"/>
      <point x="768" y="0" type="line"/>
      <point x="768" y="107" type="line"/>
      <point x="696" y="43"/>
      <point x="593" y="-22"/>
    </contour>
  </outline>
</glyph>
<glyph name="v" format="1">
  <advance width="993"/>
  <unicode hex="0076"/>
  <outline>
    <contour>
      <point x="498" y="-28" type="line"/>
      <point x="24" y="860" type="line"/>
      <point x="280" y="860" type="line"/>
      <point x="499" y="390" type="line"/>
      <point x="712" y="860" type="line"/>
      <point x="969" y="860" type="line"/>
    </contour>
  </outline>
</glyph>
<glyph name="w" format="1">
  <advance width="1311"/>
  <unicode hex="0077"/>
  <outline>
    <contour>
      <point x="392" y="-18" type="line"/>
      <point x="25" y="860" type="line"/>
      <point x="261" y="860" type="line"/>
      <point x="423" y="424" type="line"/>
      <point x="660" y="885" type="line"/>
      <point x="897" y="414" type="line"/>
      <point x="1061" y="860" type="line"/>
      <point x="1286" y="860" type="line"/>
      <point x="927" y="-18" type="line"/>
      <point x="660" y="518" type="line"/>
    </contour>
  </outline>
</glyph>
<glyph name="y" format="1">
  <advance width="987"/>
  <unicode hex="0079"/>
  <outline>
    <contour>
      <point x="160" y="-244" type="line"/>
      <point x="388" y="223" type="line"/>
      <point x="8" y="860" type="line"/>
      <point x="274" y="860" type="line"/>
      <point x="515" y="430" type="line"/>
      <point x="731" y="860" type="line"/>
      <point x="986" y="860" type="line"/>
      <point x="412" y="-244" type="line"/>
    </contour>
  </outline>
</glyph>
<glyph name="z" format="1">
  <advance width="900"/>
  <unicode hex="007A"/>
  <outline>
    <contour>
      <point x="69" y="0" type="line"/>
      <point x="502" y="685" type="line"/>
      <point x="102" y="685" type="line"/>
      <point x="102" y="860" type="line"/>
      <point x="838" y="860" type="line"/>
      <point x="431" y="181" type="line"/>
      <point x="808" y="181" type="line"/>
      <point x="808" y="0" type="line"/>
    </contour>
  </outline>
</glyph>
<glyph name="braceleft" format="1">
  <advance width="767"/>
  <unicode hex="007B"/>
  <outline>
    <contour>
      <point x="64" y="585" type="line"/>
      <point x="183" y="586"/>
      <point x="228" y="589"/>
      <point x="228" y="790" type="curve" smooth="yes"/>
      <point x="228" y="938" type="line" smooth="yes"/>
      <point x="228" y="1184"/>
      <point x="332" y="1309"/>
      <point x="554" y="1309" type="curve" smooth="yes"/>
      <point x="695" y="1309" type="line"/>
      <point x="695" y="1142" type="line"/>
      <point x="573" y="1142" type="line" smooth="yes"/>
      <point x="483" y="1142"/>
      <point x="450" y="1115"/>
      <point x="450" y="932" type="curve" smooth="yes"/>
      <point x="450" y="790" type="line" smooth="yes"/>
      <point x="450" y="633"/>
      <point x="412" y="525"/>
      <point x="291" y="500" type="curve"/>
      <point x="415" y="462"/>
      <point x="450" y="368"/>
      <point x="450" y="213" type="curve" smooth="yes"/>
      <point x="450" y="72" type="line" smooth="yes"/>
      <point x="450" y="-111"/>
      <point x="483" y="-137"/>
      <point x="573" y="-137" type="curve" smooth="yes"/>
      <point x="695" y="-137" type="line"/>
      <point x="695" y="-305" type="line"/>
      <point x="554" y="-305" type="line" smooth="yes"/>
      <point x="332" y="-305"/>
      <point x="228" y="-180"/>
      <point x="228" y="66" type="curve" smooth="yes"/>
      <point x="228" y="213" type="line" smooth="yes"/>
      <point x="228" y="413"/>
      <point x="184" y="422"/>
      <point x="64" y="423" type="curve"/>
    </contour>
  </outline>
</glyph>
<glyph name="bar" format="1">
  <advance width="540"/>
  <unicode hex="007C"/>
  <outline>
    <contour>
      <point x="153" y="-106" type="curve"/>
      <point x="153" y="1267" type="line"/>
      <point x="386" y="1267" type="line"/>
      <point x="386" y="-105" type="line" smooth="yes"/>
      <point x="386" y="-106"/>
      <point x="153" y="-106"/>
    </contour>
  </outline>
</glyph>
<glyph name="braceright" format="1">
  <advance width="769"/>
  <unicode hex="007D"/>
  <outline>
    <contour>
      <point x="704" y="419" type="line"/>
      <point x="585" y="418"/>
      <point x="540" y="415"/>
      <point x="540" y="214" type="curve" smooth="yes"/>
      <point x="540" y="66" type="line" smooth="yes"/>
      <point x="540" y="-180"/>
      <point x="437" y="-305"/>
      <point x="215" y="-305" type="curve" smooth="yes"/>
      <point x="73" y="-305" type="line"/>
      <point x="73" y="-138" type="line"/>
      <point x="195" y="-138" type="line" smooth="yes"/>
      <point x="285" y="-138"/>
      <point x="318" y="-111"/>
      <point x="318" y="72" type="curve" smooth="yes"/>
      <point x="318" y="214" type="line" smooth="yes"/>
      <point x="318" y="371"/>
      <point x="356" y="479"/>
      <point x="477" y="504" type="curve"/>
      <point x="353" y="542"/>
      <point x="318" y="636"/>
      <point x="318" y="791" type="curve" smooth="yes"/>
      <point x="318" y="932" type="line" smooth="yes"/>
      <point x="318" y="1115"/>
      <point x="285" y="1141"/>
      <point x="195" y="1141" type="curve" smooth="yes"/>
      <point x="73" y="1141" type="line"/>
      <point x="73" y="1309" type="line"/>
      <point x="215" y="1309" type="line" smooth="yes"/>
      <point x="437" y="1309"/>
      <point x="540" y="1184"/>
      <point x="540" y="938" type="curve" smooth="yes"/>
      <point x="540" y="791" type="line" smooth="yes"/>
      <point x="540" y="591"/>
      <point x="584" y="581"/>
      <point x="704" y="580" type="curve"/>
    </contour>
  </outline>
</glyph>
<glyph name="asciitilde" format="1">
  <advance width="1000"/>
  <unicode hex="007E"/>
  <outline>
    <contour>
      <point x="716" y="603" type="curve" smooth="yes"/>
      <point x="578" y="603"/>
      <point x="410" y="741"/>
      <point x="305" y="741" type="curve" smooth="yes"/>
      <point x="234" y="741"/>
      <point x="217" y="694"/>
      <point x="208" y="617" type="curve"/>
      <point x="89" y="617" type="line"/>
      <point x="91" y="792"/>
      <point x="153" y="875"/>
      <point x="301" y="875" type="curve" smooth="yes"/>
      <point x="448" y="875"/>
      <point x="614" y="738"/>
      <point x="712" y="738" type="curve" smooth="yes"/>
      <point x="773" y="738"/>
      <point x="785" y="791"/>
      <point x="794" y="861" type="curve"/>
      <point x="914" y="861" type="line"/>
      <point x="911" y="685"/>
      <point x="866" y="603"/>
    </contour>
  </outline>
</glyph>
<glyph name="exclamdown" format="1">
  <advance width="513"/>
  <unicode hex="00A1"/>
  <outline>
    <contour>
      <point x="231" y="887" type="curve" smooth="yes"/>
      <point x="324" y="887"/>
      <point x="378" y="817"/>
      <point x="378" y="744" type="curve" smooth="yes"/>
      <point x="378" y="674"/>
      <point x="325" y="601"/>
      <point x="231" y="601" type="curve" smooth="yes"/>
      <point x="139" y="601"/>
      <point x="86" y="675"/>
      <point x="86" y="744" type="curve" smooth="yes"/>
      <point x="86" y="816"/>
      <point x="140" y="887"/>
    </contour>
    <contour>
      <point x="276" y="467" type="line"/>
      <point x="360" y="-370" type="line"/>
      <point x="104" y="-370" type="line"/>
      <point x="189" y="467" type="line"/>
    </contour>
  </outline>
</glyph>
<glyph name="cent" format="1">
  <advance width="953"/>
  <unicode hex="00A2"/>
  <outline>
    <contour>
      <point x="518" y="-249" type="line"/>
      <point x="518" y="-19" type="line"/>
      <point x="257" y="4"/>
      <point x="87" y="185"/>
      <point x="87" y="432" type="curve" smooth="yes"/>
      <point x="87" y="685"/>
      <point x="268" y="861"/>
      <point x="518" y="883" type="curve"/>
      <point x="518" y="1195" type="line"/>
      <point x="606" y="1195" type="line"/>
      <point x="606" y="884" type="line"/>
      <point x="758" y="877"/>
      <point x="828" y="823"/>
      <point x="842" y="814" type="curve"/>
      <point x="842" y="592" type="line"/>
      <point x="824" y="606"/>
      <point x="739" y="682"/>
      <point x="583" y="682" type="curve" smooth="yes"/>
      <point x="412" y="682"/>
      <point x="318" y="572"/>
      <point x="318" y="433" type="curve" smooth="yes"/>
      <point x="318" y="292"/>
      <point x="411" y="178"/>
      <point x="590" y="178" type="curve" smooth="yes"/>
      <point x="717" y="178"/>
      <point x="783" y="220"/>
      <point x="842" y="252" type="curve"/>
      <point x="842" y="53" type="line"/>
      <point x="821" y="41"/>
      <point x="738" y="-14"/>
      <point x="606" y="-21" type="curve"/>
      <point x="606" y="-249" type="line"/>
    </contour>
  </outline>
</glyph>
<glyph name="sterling" format="1">
  <advance width="1140"/>
  <unicode hex="00A3"/>
  <outline>
    <contour>
      <point x="777" y="-31" type="curve" smooth="yes"/>
      <point x="674" y="-31"/>
      <point x="551" y="19"/>
      <point x="456" y="93" type="curve"/>
      <point x="435" y="62"/>
      <point x="414" y="32"/>
      <point x="390" y="0" type="curve"/>
      <point x="155" y="0" type="line"/>
      <point x="282" y="169"/>
      <point x="350" y="307"/>
      <point x="350" y="425" type="curve" smooth="yes"/>
      <point x="350" y="462"/>
      <point x="344" y="501"/>
      <point x="334" y="539" type="curve"/>
      <point x="170" y="539" type="line"/>
      <point x="170" y="702" type="line"/>
      <point x="276" y="702" type="line"/>
      <point x="244" y="785"/>
      <point x="213" y="863"/>
      <point x="213" y="923" type="curve" smooth="yes"/>
      <point x="213" y="1167"/>
      <point x="416" y="1274"/>
      <point x="637" y="1274" type="curve" smooth="yes"/>
      <point x="781" y="1274"/>
      <point x="924" y="1209"/>
      <point x="997" y="1127" type="curve"/>
      <point x="886" y="958" type="line"/>
      <point x="845" y="994"/>
      <point x="784" y="1069"/>
      <point x="667" y="1069" type="curve" smooth="yes"/>
      <point x="567" y="1069"/>
      <point x="476" y="1007"/>
      <point x="476" y="899" type="curve" smooth="yes"/>
      <point x="476" y="841"/>
      <point x="504" y="774"/>
      <point x="532" y="702" type="curve"/>
      <point x="825" y="702" type="line"/>
      <point x="825" y="539" type="line"/>
      <point x="592" y="539" type="line"/>
      <point x="601" y="503"/>
      <point x="606" y="467"/>
      <point x="606" y="430" type="curve" smooth="yes"/>
      <point x="606" y="370"/>
      <point x="584" y="305"/>
      <point x="548" y="237" type="curve"/>
      <point x="599" y="193"/>
      <point x="672" y="163"/>
      <point x="745" y="163" type="curve" smooth="yes"/>
      <point x="846" y="163"/>
      <point x="874" y="229"/>
      <point x="874" y="293" type="curve"/>
      <point x="1075" y="293" type="line"/>
      <point x="1075" y="88"/>
      <point x="964" y="-31"/>
    </contour>
  </outline>
</glyph>
<glyph name="currency" format="1">
  <advance width="1197"/>
  <unicode hex="00A4"/>
  <outline>
    <contour>
      <point x="598" y="504" type="curve" smooth="yes"/>
      <point x="800" y="504"/>
      <point x="904" y="657"/>
      <point x="904" y="813" type="curve" smooth="yes"/>
      <point x="904" y="970"/>
      <point x="798" y="1127"/>
      <point x="598" y="1127" type="curve" smooth="yes"/>
      <point x="399" y="1127"/>
      <point x="293" y="970"/>
      <point x="293" y="814" type="curve" smooth="yes"/>
      <point x="293" y="646"/>
      <point x="396" y="504"/>
    </contour>
    <contour>
      <point x="955.984" y="536.016" type="curve"/>
      <point x="1049" y="443" type="line"/>
      <point x="965" y="360" type="line"/>
      <point x="867.26" y="457.74" type="line"/>
      <point x="790.356" y="407.124"/>
      <point x="696.022" y="380"/>
      <point x="597" y="380" type="curve" smooth="yes"/>
      <point x="495.997" y="380"/>
      <point x="399.599" y="408.515"/>
      <point x="321.818" y="461.818" type="curve"/>
      <point x="220" y="360" type="line"/>
      <point x="138" y="444" type="line"/>
      <point x="235.206" y="541.206" type="line"/>
      <point x="177.855" y="611.534"/>
      <point x="143" y="703.228"/>
      <point x="143" y="813" type="curve" smooth="yes"/>
      <point x="143" y="924.498"/>
      <point x="178.179" y="1017.58"/>
      <point x="236.14" y="1088.86" type="curve"/>
      <point x="137" y="1188" type="line"/>
      <point x="221" y="1271" type="line"/>
      <point x="323.154" y="1168.85" type="line"/>
      <point x="401.052" y="1222.36"/>
      <point x="497.567" y="1251"/>
      <point x="599" y="1251" type="curve" smooth="yes"/>
      <point x="693.594" y="1251"/>
      <point x="787.505" y="1223.19"/>
      <point x="865.157" y="1171.16" type="curve"/>
      <point x="966" y="1272" type="line"/>
      <point x="1048" y="1188" type="line"/>
      <point x="953.152" y="1093.15" type="line"/>
      <point x="1014.5" y="1021.34"/>
      <point x="1053" y="926.75"/>
      <point x="1053" y="813" type="curve" smooth="yes"/>
      <point x="1053" y="700.696"/>
      <point x="1016.25" y="607.11"/>
    </contour>
  </outline>
</glyph>
<glyph name="yen" format="1">
  <advance width="1246"/>
  <unicode hex="00A5"/>
  <outline>
    <contour>
      <point x="503" y="0" type="line"/>
      <point x="503" y="378" type="line"/>
      <point x="182" y="378" type="line"/>
      <point x="182" y="524" type="line"/>
      <point x="469" y="524" type="line"/>
      <point x="397" y="648" type="line"/>
      <point x="164" y="648" type="line"/>
      <point x="164" y="795" type="line"/>
      <point x="311" y="795" type="line"/>
      <point x="51" y="1241" type="line"/>
      <point x="308" y="1241" type="line"/>
      <point x="632" y="674" type="line"/>
      <point x="933" y="1241" type="line"/>
      <point x="1196" y="1241" type="line"/>
      <point x="946" y="795" type="line"/>
      <point x="1088" y="795" type="line"/>
      <point x="1088" y="648" type="line"/>
      <point x="863" y="648" type="line"/>
      <point x="793" y="524" type="line"/>
      <point x="1069" y="524" type="line"/>
      <point x="1069" y="378" type="line"/>
      <point x="759" y="378" type="line"/>
      <point x="759" y="0" type="line"/>
    </contour>
  </outline>
</glyph>
<glyph name="brokenbar" format="1">
  <advance width="630"/>
  <unicode hex="00A6"/>
  <outline>
    <contour>
      <point x="201" y="-106" type="curve"/>
      <point x="201" y="433" type="line"/>
      <point x="433" y="433" type="line"/>
      <point x="433" y="-105" type="line" smooth="yes"/>
      <point x="433" y="-106"/>
      <point x="201" y="-106"/>
    </contour>
    <contour>
      <point x="201" y="725" type="curve"/>
      <point x="201" y="1267" type="line"/>
      <point x="433" y="1267" type="line"/>
      <point x="433" y="726" type="line" smooth="yes"/>
      <point x="433" y="725"/>
      <point x="201" y="725"/>
    </contour>
  </outline>
</glyph>
<glyph name="dieresis" format="1">
  <advance width="996"/>
  <unicode hex="00A8"/>
  <outline>
    <contour>
      <point x="275" y="120" type="curve" smooth="yes"/>
      <point x="186.151" y="120"/>
      <point x="134" y="180"/>
      <point x="134" y="253" type="curve" smooth="yes"/>
      <point x="134" y="323"/>
      <point x="185.185" y="385"/>
      <point x="275" y="385" type="curve" smooth="yes"/>
      <point x="364.793" y="385"/>
      <point x="415" y="322"/>
      <point x="415" y="253" type="curve" smooth="yes"/>
      <point x="415" y="181"/>
      <point x="363.828" y="120"/>
    </contour>
    <contour>
      <point x="726" y="120" type="curve" smooth="yes"/>
      <point x="637.151" y="120"/>
      <point x="585" y="180"/>
      <point x="585" y="253" type="curve" smooth="yes"/>
      <point x="585" y="323"/>
      <point x="636.185" y="385"/>
      <point x="726" y="385" type="curve" smooth="yes"/>
      <point x="815.793" y="385"/>
      <point x="866" y="322"/>
      <point x="866" y="253" type="curve" smooth="yes"/>
      <point x="866" y="181"/>
      <point x="814.828" y="120"/>
    </contour>
  </outline>
</glyph>
<glyph name="ordfeminine" format="1">
  <advance width="945"/>
  <unicode hex="00AA"/>
  <outline>
    <contour>
      <point x="410" y="536" type="curve" smooth="yes"/>
      <point x="469" y="536"/>
      <point x="520" y="566"/>
      <point x="554" y="606" type="curve"/>
      <point x="554" y="809" type="line"/>
      <point x="536" y="803"/>
      <point x="467" y="783"/>
      <point x="452" y="775" type="curve"/>
      <point x="354" y="735"/>
      <point x="327" y="678"/>
      <point x="327" y="634" type="curve" smooth="yes"/>
      <point x="327" y="576"/>
      <point x="361" y="536"/>
    </contour>
    <contour>
      <point x="356" y="379" type="curve" smooth="yes"/>
      <point x="219" y="379"/>
      <point x="99" y="468"/>
      <point x="99" y="620" type="curve" smooth="yes"/>
      <point x="99" y="727"/>
      <point x="189" y="837"/>
      <point x="437" y="894" type="curve"/>
      <point x="555" y="922" type="line"/>
      <point x="555" y="949" type="line" smooth="yes"/>
      <point x="555" y="1071"/>
      <point x="492" y="1096"/>
      <point x="423" y="1096" type="curve" smooth="yes"/>
      <point x="330" y="1096"/>
      <point x="215" y="1033"/>
      <point x="169" y="1008" type="curve"/>
      <point x="103" y="1185" type="line"/>
      <point x="126" y="1200"/>
      <point x="261" y="1287"/>
      <point x="452" y="1287" type="curve" smooth="yes"/>
      <point x="606" y="1287"/>
      <point x="784" y="1207"/>
      <point x="784" y="994" type="curve" smooth="yes"/>
      <point x="784" y="690" type="line" smooth="yes"/>
      <point x="784" y="603"/>
      <point x="828" y="573"/>
      <point x="897" y="573" type="curve" smooth="yes"/>
      <point x="911" y="573" type="line"/>
      <point x="847" y="386" type="line"/>
      <point x="833" y="386" type="line" smooth="yes"/>
      <point x="761" y="386"/>
      <point x="640" y="420"/>
      <point x="595" y="507" type="curve"/>
      <point x="528" y="410"/>
      <point x="425" y="379"/>
    </contour>
  </outline>
</glyph>
<glyph name="logicalnot" format="1">
  <advance width="976"/>
  <unicode hex="00AC"/>
  <outline>
    <contour>
      <point x="675" y="337" type="line"/>
      <point x="675" y="658" type="line"/>
      <point x="113" y="658" type="line"/>
      <point x="113" y="824" type="line"/>
      <point x="840" y="824" type="line"/>
      <point x="840" y="337" type="line"/>
    </contour>
  </outline>
</glyph>
<glyph name="uni00AD" format="1">
  <advance width="1033"/>
  <unicode hex="00AD"/>
  <outline>
    <contour>
      <point x="153" y="658" type="line"/>
      <point x="153" y="824" type="line"/>
      <point x="880" y="824" type="line"/>
      <point x="879" y="658" type="line"/>
    </contour>
  </outline>
</glyph>
<glyph name="macron" format="1">
  <advance width="928"/>
  <unicode hex="00AF"/>
  <outline>
    <contour>
      <point x="153" y="132" type="line"/>
      <point x="153" y="280" type="line"/>
      <point x="744" y="280" type="line"/>
      <point x="744" y="132" type="line"/>
    </contour>
  </outline>
</glyph>
<glyph name="degree" format="1">
  <advance width="959"/>
  <unicode hex="00B0"/>
  <outline>
    <contour>
      <point x="478" y="639" type="curve" smooth="yes"/>
      <point x="304" y="639"/>
      <point x="144" y="753"/>
      <point x="144" y="953" type="curve" smooth="yes"/>
      <point x="144" y="1158"/>
      <point x="316" y="1276"/>
      <point x="478" y="1276" type="curve" smooth="yes"/>
      <point x="643" y="1276"/>
      <point x="815" y="1158"/>
      <point x="815" y="953" type="curve" smooth="yes"/>
      <point x="815" y="753"/>
      <point x="655" y="639"/>
    </contour>
    <contour>
      <point x="478" y="1146" type="curve" smooth="yes"/>
      <point x="355" y="1146"/>
      <point x="290" y="1050"/>
      <point x="290" y="953" type="curve" smooth="yes"/>
      <point x="290" y="858"/>
      <point x="353" y="763"/>
      <point x="478" y="763" type="curve" smooth="yes"/>
      <point x="607" y="763"/>
      <point x="669" y="858"/>
      <point x="669" y="953" type="curve" smooth="yes"/>
      <point x="669" y="1050"/>
      <point x="604" y="1146"/>
    </contour>
  </outline>
</glyph>
<glyph name="plusminus" format="1">
  <advance width="1159"/>
  <unicode hex="00B1"/>
  <outline>
    <contour>
      <point x="490" y="358" type="line"/>
      <point x="490" y="648" type="line"/>
      <point x="199" y="648" type="line"/>
      <point x="199" y="795" type="line"/>
      <point x="490" y="795" type="line"/>
      <point x="490" y="1086" type="line"/>
      <point x="636" y="1086" type="line"/>
      <point x="636" y="795" type="line"/>
      <point x="927" y="795" type="line"/>
      <point x="927" y="648" type="line"/>
      <point x="637" y="648" type="line"/>
      <point x="637" y="358" type="line"/>
    </contour>
    <contour>
      <point x="199" y="45" type="line"/>
      <point x="199" y="192" type="line"/>
      <point x="927" y="192" type="line"/>
      <point x="927" y="45" type="line"/>
    </contour>
  </outline>
</glyph>
<glyph name="uni00B2" format="1">
  <advance width="986"/>
  <unicode hex="00B2"/>
  <outline>
    <contour>
      <point x="117" y="422" type="line"/>
      <point x="431" y="856" type="line" smooth="yes"/>
      <point x="479" y="921"/>
      <point x="508" y="976"/>
      <point x="508" y="1030" type="curve" smooth="yes"/>
      <point x="508" y="1097"/>
      <point x="462" y="1132"/>
      <point x="402" y="1132" type="curve" smooth="yes"/>
      <point x="328" y="1132"/>
      <point x="232" y="1075"/>
      <point x="222" y="1067" type="curve"/>
      <point x="167" y="1188" type="line"/>
      <point x="179" y="1199"/>
      <point x="302" y="1276"/>
      <point x="419" y="1276" type="curve" smooth="yes"/>
      <point x="581" y="1276"/>
      <point x="676" y="1171"/>
      <point x="676" y="1028" type="curve" smooth="yes"/>
      <point x="676" y="938"/>
      <point x="625" y="846"/>
      <point x="551" y="749" type="curve" smooth="yes"/>
      <point x="409" y="563" type="line"/>
      <point x="674" y="563" type="line"/>
      <point x="674" y="422" type="line"/>
    </contour>
  </outline>
</glyph>
<glyph name="threesuperior" format="1">
  <advance width="978"/>
  <unicode hex="00B3"/>
  <outline>
    <contour>
      <point x="533" y="401" type="curve" smooth="yes"/>
      <point x="407" y="401"/>
      <point x="295" y="448"/>
      <point x="279" y="457" type="curve"/>
      <point x="313" y="586" type="line"/>
      <point x="374" y="555"/>
      <point x="442" y="540"/>
      <point x="509" y="540" type="curve" smooth="yes"/>
      <point x="579" y="540"/>
      <point x="640" y="580"/>
      <point x="640" y="652" type="curve" smooth="yes"/>
      <point x="640" y="740"/>
      <point x="561" y="782"/>
      <point x="409" y="822" type="curve"/>
      <point x="409" y="884" type="line"/>
      <point x="550" y="917"/>
      <point x="628" y="971"/>
      <point x="628" y="1040" type="curve" smooth="yes"/>
      <point x="628" y="1096"/>
      <point x="587" y="1140"/>
      <point x="506" y="1140" type="curve" smooth="yes"/>
      <point x="456" y="1140"/>
      <point x="387" y="1125"/>
      <point x="314" y="1090" type="curve"/>
      <point x="272" y="1211" type="line"/>
      <point x="339" y="1255"/>
      <point x="451" y="1279"/>
      <point x="535" y="1279" type="curve" smooth="yes"/>
      <point x="678" y="1279"/>
      <point x="787" y="1189"/>
      <point x="787" y="1052" type="curve" smooth="yes"/>
      <point x="787" y="965"/>
      <point x="726" y="899"/>
      <point x="640" y="865" type="curve"/>
      <point x="740" y="823"/>
      <point x="810" y="752"/>
      <point x="810" y="631" type="curve" smooth="yes"/>
      <point x="810" y="501"/>
      <point x="706" y="401"/>
    </contour>
  </outline>
</glyph>
<glyph name="acute" format="1">
  <advance width="501"/>
  <unicode hex="00B4"/>
  <outline>
    <contour>
      <point x="99.5" y="97" type="curve" smooth="yes"/>
      <point x="82.5" y="97"/>
      <point x="68.5" y="111"/>
      <point x="68.5" y="132" type="curve" smooth="yes"/>
      <point x="68.5" y="139"/>
      <point x="69.5" y="149"/>
      <point x="74.5" y="158" type="curve" smooth="yes"/>
      <point x="268.5" y="524" type="line" smooth="yes"/>
      <point x="297.5" y="583"/>
      <point x="338.5" y="607"/>
      <point x="374.5" y="607" type="curve" smooth="yes"/>
      <point x="420.5" y="607"/>
      <point x="462.5" y="570"/>
      <point x="462.5" y="520" type="curve" smooth="yes"/>
      <point x="462.5" y="493"/>
      <point x="450.5" y="463"/>
      <point x="422.5" y="433" type="curve" smooth="yes"/>
      <point x="134.5" y="115" type="line" smooth="yes"/>
      <point x="123.5" y="102"/>
      <point x="110.5" y="97"/>
    </contour>
  </outline>
</glyph>
<glyph name="uni00B5" format="1">
  <advance width="1135"/>
  <unicode hex="00B5"/>
  <outline>
    <contour>
      <point x="122" y="-248" type="line"/>
      <point x="122" y="861" type="line"/>
      <point x="360" y="861" type="line"/>
      <point x="360" y="302" type="line" smooth="yes"/>
      <point x="360" y="196"/>
      <point x="424" y="157"/>
      <point x="522" y="157" type="curve" smooth="yes"/>
      <point x="643" y="157"/>
      <point x="746" y="236"/>
      <point x="766" y="275" type="curve"/>
      <point x="766" y="861" type="line"/>
      <point x="1004" y="861" type="line"/>
      <point x="1004" y="0" type="line"/>
      <point x="769" y="0" type="line"/>
      <point x="769" y="107" type="line"/>
      <point x="697" y="43"/>
      <point x="594" y="-25"/>
      <point x="454" y="-25" type="curve" smooth="yes"/>
      <point x="421" y="-25"/>
      <point x="390" y="-21"/>
      <point x="360" y="-13" type="curve"/>
      <point x="360" y="-248" type="line"/>
    </contour>
  </outline>
</glyph>
<glyph name="periodcentered" format="1">
  <advance width="475"/>
  <unicode hex="00B7"/>
  <outline>
    <contour>
      <point x="238" y="163" type="curve" smooth="yes"/>
      <point x="145" y="163"/>
      <point x="92" y="233"/>
      <point x="92" y="306" type="curve" smooth="yes"/>
      <point x="92" y="376"/>
      <point x="144" y="449"/>
      <point x="238" y="449" type="curve" smooth="yes"/>
      <point x="330" y="449"/>
      <point x="384" y="375"/>
      <point x="384" y="306" type="curve" smooth="yes"/>
      <point x="384" y="234"/>
      <point x="329" y="163"/>
    </contour>
  </outline>
</glyph>
<glyph name="cedilla" format="1">
  <advance width="476"/>
  <unicode hex="00B8"/>
  <outline>
    <contour>
      <point x="353" y="-399" type="line"/>
      <point x="211" y="-399"/>
      <point x="120" y="-325"/>
      <point x="120" y="-250" type="curve" smooth="yes"/>
      <point x="120" y="-197"/>
      <point x="166" y="-143"/>
      <point x="271" y="-113" type="curve"/>
      <point x="271" y="0" type="line"/>
      <point x="362" y="0" type="line"/>
      <point x="362" y="-160" type="line"/>
      <point x="292" y="-169"/>
      <point x="263" y="-202"/>
      <point x="263" y="-237" type="curve" smooth="yes"/>
      <point x="263" y="-278"/>
      <point x="302" y="-321"/>
      <point x="365" y="-334" type="curve"/>
    </contour>
  </outline>
</glyph>
<glyph name="onesuperior" format="1">
  <advance width="699"/>
  <unicode hex="00B9"/>
  <outline>
    <contour>
      <point x="317" y="426" type="line"/>
      <point x="317" y="1031" type="line"/>
      <point x="270" y="1005"/>
      <point x="222" y="986"/>
      <point x="150" y="965" type="curve"/>
      <point x="150" y="1115" type="line"/>
      <point x="223" y="1142"/>
      <point x="489" y="1285"/>
      <point x="489" y="1285" type="curve"/>
      <point x="489" y="426" type="line"/>
    </contour>
  </outline>
</glyph>
<glyph name="ordmasculine" format="1">
  <advance width="1134"/>
  <unicode hex="00BA"/>
  <outline>
    <contour>
      <point x="577" y="376" type="curve" smooth="yes"/>
      <point x="314" y="376"/>
      <point x="97" y="552"/>
      <point x="97" y="829" type="curve" smooth="yes"/>
      <point x="97" y="1106"/>
      <point x="315" y="1283"/>
      <point x="578" y="1283" type="curve" smooth="yes"/>
      <point x="836" y="1283"/>
      <point x="1057" y="1107"/>
      <point x="1057" y="829" type="curve" smooth="yes"/>
      <point x="1057" y="553"/>
      <point x="840" y="376"/>
    </contour>
    <contour>
      <point x="577" y="564" type="curve" smooth="yes"/>
      <point x="746" y="564"/>
      <point x="832" y="695"/>
      <point x="832" y="828" type="curve" smooth="yes"/>
      <point x="832" y="961"/>
      <point x="746" y="1094"/>
      <point x="577" y="1094" type="curve" smooth="yes"/>
      <point x="409" y="1094"/>
      <point x="322" y="961"/>
      <point x="322" y="829" type="curve" smooth="yes"/>
      <point x="322" y="691"/>
      <point x="409" y="564"/>
    </contour>
  </outline>
</glyph>
<glyph name="guillemotright" format="1">
  <advance width="909"/>
  <unicode hex="00BB"/>
  <outline>
    <contour>
      <point x="89" y="867" type="curve" smooth="yes"/>
      <point x="97" y="867"/>
      <point x="107" y="865"/>
      <point x="117" y="860" type="curve"/>
      <point x="412" y="629" type="line"/>
      <point x="459" y="599"/>
      <point x="483" y="558"/>
      <point x="483" y="517" type="curve" smooth="yes"/>
      <point x="483" y="476"/>
      <point x="458" y="434"/>
      <point x="412" y="405" type="curve"/>
      <point x="117" y="174" type="line"/>
      <point x="107" y="170"/>
      <point x="97" y="168"/>
      <point x="89" y="168" type="curve" smooth="yes"/>
      <point x="68" y="168"/>
      <point x="53" y="182"/>
      <point x="53" y="200" type="curve" smooth="yes"/>
      <point x="53" y="212"/>
      <point x="59" y="224"/>
      <point x="72" y="237" type="curve"/>
      <point x="270" y="517" type="line"/>
      <point x="72" y="798" type="line"/>
      <point x="59" y="810"/>
      <point x="53" y="822"/>
      <point x="53" y="834" type="curve" smooth="yes"/>
      <point x="53" y="852"/>
      <point x="68" y="867"/>
    </contour>
    <contour>
      <point x="439" y="867" type="curve" smooth="yes"/>
      <point x="447" y="867"/>
      <point x="456" y="865"/>
      <point x="467" y="860" type="curve"/>
      <point x="761" y="629" type="line"/>
      <point x="809" y="599"/>
      <point x="833" y="558"/>
      <point x="833" y="517" type="curve" smooth="yes"/>
      <point x="833" y="476"/>
      <point x="808" y="434"/>
      <point x="761" y="405" type="curve"/>
      <point x="467" y="174" type="line"/>
      <point x="456" y="170"/>
      <point x="447" y="168"/>
      <point x="439" y="168" type="curve" smooth="yes"/>
      <point x="417" y="168"/>
      <point x="402" y="182"/>
      <point x="402" y="200" type="curve" smooth="yes"/>
      <point x="402" y="212"/>
      <point x="409" y="224"/>
      <point x="421" y="237" type="curve"/>
      <point x="619" y="517" type="line"/>
      <point x="421" y="798" type="line"/>
      <point x="409" y="810"/>
      <point x="402" y="822"/>
      <point x="402" y="834" type="curve" smooth="yes"/>
      <point x="402" y="852"/>
      <point x="417" y="867"/>
    </contour>
  </outline>
</glyph>
<glyph name="onequarter" format="1">
  <advance width="1624"/>
  <unicode hex="00BC"/>
  <outline>
    <contour>
      <point x="236" y="417" type="line"/>
      <point x="236" y="1031" type="line"/>
      <point x="189" y="1005"/>
      <point x="141" y="986"/>
      <point x="69" y="965" type="curve"/>
      <point x="69" y="1106" type="line"/>
      <point x="142" y="1133"/>
      <point x="399" y="1276"/>
      <point x="399" y="1276" type="curve"/>
      <point x="399" y="417" type="line"/>
    </contour>
    <contour>
      <point x="269" y="0" type="line"/>
      <point x="1078" y="1241" type="line"/>
      <point x="1244" y="1241" type="line"/>
      <point x="433" y="0" type="line"/>
    </contour>
    <contour>
      <point x="1256" y="0" type="line"/>
      <point x="1256" y="171" type="line"/>
      <point x="825" y="171" type="line"/>
      <point x="1422" y="900" type="line"/>
      <point x="1422" y="302" type="line"/>
      <point x="1557" y="302" type="line"/>
      <point x="1557" y="171" type="line"/>
      <point x="1422" y="171" type="line"/>
      <point x="1422" y="0" type="line"/>
    </contour>
    <contour>
      <point x="1093" y="302" type="line"/>
      <point x="1256" y="302" type="line"/>
      <point x="1256" y="529" type="line"/>
    </contour>
  </outline>
</glyph>
<glyph name="onehalf" format="1">
  <advance width="1687"/>
  <unicode hex="00BD"/>
  <outline>
    <contour>
      <point x="234" y="417" type="line"/>
      <point x="234" y="1031" type="line"/>
      <point x="187" y="1005"/>
      <point x="139" y="986"/>
      <point x="67" y="965" type="curve"/>
      <point x="67" y="1106" type="line"/>
      <point x="140" y="1133"/>
      <point x="397" y="1276"/>
      <point x="397" y="1276" type="curve"/>
      <point x="397" y="417" type="line"/>
    </contour>
    <contour>
      <point x="1057" y="0" type="line"/>
      <point x="1372" y="434" type="line" smooth="yes"/>
      <point x="1420" y="499"/>
      <point x="1448" y="554"/>
      <point x="1448" y="608" type="curve" smooth="yes"/>
      <point x="1448" y="675"/>
      <point x="1402" y="710"/>
      <point x="1342" y="710" type="curve" smooth="yes"/>
      <point x="1268" y="710"/>
      <point x="1172" y="653"/>
      <point x="1162" y="645" type="curve"/>
      <point x="1107" y="766" type="line"/>
      <point x="1119" y="777"/>
      <point x="1243" y="854"/>
      <point x="1360" y="854" type="curve" smooth="yes"/>
      <point x="1522" y="854"/>
      <point x="1616" y="749"/>
      <point x="1616" y="606" type="curve" smooth="yes"/>
      <point x="1616" y="516"/>
      <point x="1565" y="424"/>
      <point x="1491" y="327" type="curve" smooth="yes"/>
      <point x="1350" y="141" type="line"/>
      <point x="1614" y="141" type="line"/>
      <point x="1614" y="0" type="line"/>
    </contour>
    <contour>
      <point x="273" y="0" type="line"/>
      <point x="1082" y="1241" type="line"/>
      <point x="1248" y="1241" type="line"/>
      <point x="437" y="0" type="line"/>
    </contour>
  </outline>
</glyph>
<glyph name="threequarters" format="1">
  <advance width="1800"/>
  <unicode hex="00BE"/>
  <outline>
    <contour>
      <point x="445" y="0" type="line"/>
      <point x="1254" y="1241" type="line"/>
      <point x="1420" y="1241" type="line"/>
      <point x="609" y="0" type="line"/>
    </contour>
    <contour>
      <point x="1432" y="0" type="line"/>
      <point x="1432" y="171" type="line"/>
      <point x="1001" y="171" type="line"/>
      <point x="1598" y="900" type="line"/>
      <point x="1598" y="302" type="line"/>
      <point x="1733" y="302" type="line"/>
      <point x="1733" y="171" type="line"/>
      <point x="1598" y="171" type="line"/>
      <point x="1598" y="0" type="line"/>
    </contour>
    <contour>
      <point x="1269" y="302" type="line"/>
      <point x="1432" y="302" type="line"/>
      <point x="1432" y="529" type="line"/>
    </contour>
    <contour>
      <point x="329" y="401" type="curve" smooth="yes"/>
      <point x="203" y="401"/>
      <point x="91" y="448"/>
      <point x="75" y="457" type="curve"/>
      <point x="109" y="586" type="line"/>
      <point x="170" y="555"/>
      <point x="238" y="540"/>
      <point x="305" y="540" type="curve" smooth="yes"/>
      <point x="375" y="540"/>
      <point x="436" y="580"/>
      <point x="436" y="652" type="curve" smooth="yes"/>
      <point x="436" y="740"/>
      <point x="357" y="782"/>
      <point x="205" y="822" type="curve"/>
      <point x="205" y="884" type="line"/>
      <point x="346" y="917"/>
      <point x="424" y="971"/>
      <point x="424" y="1040" type="curve" smooth="yes"/>
      <point x="424" y="1096"/>
      <point x="383" y="1140"/>
      <point x="302" y="1140" type="curve" smooth="yes"/>
      <point x="252" y="1140"/>
      <point x="183" y="1125"/>
      <point x="110" y="1090" type="curve"/>
      <point x="68" y="1211" type="line"/>
      <point x="135" y="1255"/>
      <point x="247" y="1279"/>
      <point x="331" y="1279" type="curve" smooth="yes"/>
      <point x="474" y="1279"/>
      <point x="583" y="1189"/>
      <point x="583" y="1052" type="curve" smooth="yes"/>
      <point x="583" y="965"/>
      <point x="522" y="899"/>
      <point x="436" y="865" type="curve"/>
      <point x="537" y="823"/>
      <point x="606" y="752"/>
      <point x="606" y="631" type="curve" smooth="yes"/>
      <point x="606" y="501"/>
      <point x="502" y="401"/>
    </contour>
  </outline>
</glyph>
<glyph name="questiondown" format="1">
  <advance width="1036"/>
  <unicode hex="00BF"/>
  <outline>
    <contour>
      <point x="655" y="887" type="curve" smooth="yes"/>
      <point x="748" y="887"/>
      <point x="802" y="817"/>
      <point x="802" y="744" type="curve" smooth="yes"/>
      <point x="802" y="674"/>
      <point x="749" y="601"/>
      <point x="655" y="601" type="curve" smooth="yes"/>
      <point x="563" y="601"/>
      <point x="510" y="675"/>
      <point x="510" y="744" type="curve" smooth="yes"/>
      <point x="510" y="816"/>
      <point x="564" y="887"/>
    </contour>
    <contour>
      <point x="509" y="-404" type="curve" smooth="yes"/>
      <point x="276" y="-404"/>
      <point x="131" y="-278"/>
      <point x="131" y="-77" type="curve" smooth="yes"/>
      <point x="131" y="74"/>
      <point x="238" y="215"/>
      <point x="548" y="477" type="curve"/>
      <point x="731" y="477" type="line"/>
      <point x="442" y="150"/>
      <point x="383" y="63"/>
      <point x="383" y="-41" type="curve" smooth="yes"/>
      <point x="383" y="-138"/>
      <point x="448" y="-189"/>
      <point x="536" y="-189" type="curve" smooth="yes"/>
      <point x="639" y="-189"/>
      <point x="771" y="-116"/>
      <point x="793" y="-100" type="curve"/>
      <point x="876" y="-280" type="line"/>
      <point x="858" y="-296"/>
      <point x="682" y="-404"/>
    </contour>
  </outline>
</glyph>
<glyph name="AE" format="1">
  <advance width="1466"/>
  <unicode hex="00C6"/>
  <outline>
    <contour>
      <point x="648" y="450" type="line"/>
      <point x="648" y="803" type="line"/>
      <point x="506" y="450" type="line"/>
    </contour>
    <contour>
      <point x="648" y="1241" type="line"/>
      <point x="1370" y="1241" type="line"/>
      <point x="1370" y="1028" type="line"/>
      <point x="895" y="1028" type="line"/>
      <point x="895" y="744" type="line"/>
      <point x="1305" y="744" type="line"/>
      <point x="1305" y="534" type="line"/>
      <point x="893" y="534" type="line"/>
      <point x="893" y="220" type="line"/>
      <point x="1380" y="220" type="line"/>
      <point x="1380" y="0" type="line"/>
      <point x="648" y="0" type="line"/>
      <point x="648" y="293" type="line"/>
      <point x="457" y="293" type="line"/>
      <point x="332" y="0" type="line"/>
      <point x="64" y="0" type="line"/>
      <point x="648" y="1239" type="line"/>
    </contour>
  </outline>
</glyph>
<glyph name="Oslash" format="1">
  <advance width="1533"/>
  <unicode hex="00D8"/>
  <outline>
    <contour>
      <point x="949" y="1008" type="line"/>
      <point x="887" y="1043"/>
      <point x="817" y="1060"/>
      <point x="746" y="1060" type="curve" smooth="yes"/>
      <point x="537" y="1060"/>
      <point x="340" y="912"/>
      <point x="340" y="620" type="curve" smooth="yes"/>
      <point x="340" y="469"/>
      <point x="394" y="357"/>
      <point x="474" y="284" type="curve"/>
    </contour>
    <contour>
      <point x="1039" y="939" type="curve"/>
      <point x="568" y="222" type="line"/>
      <point x="624" y="196"/>
      <point x="684" y="182"/>
      <point x="746" y="182" type="curve" smooth="yes"/>
      <point x="947" y="182"/>
      <point x="1154" y="329"/>
      <point x="1154" y="619" type="curve" smooth="yes"/>
      <point x="1154" y="759"/>
      <point x="1109" y="866"/>
    </contour>
    <contour>
      <point x="747" y="-33" type="curve" smooth="yes"/>
      <point x="642" y="-33"/>
      <point x="537" y="-12"/>
      <point x="443" y="31" type="curve"/>
      <point x="357" y="-99" type="line"/>
      <point x="261" y="-40" type="line"/>
      <point x="344" y="87" type="line"/>
      <point x="189" y="193"/>
      <point x="81" y="371"/>
      <point x="81" y="620" type="curve" smooth="yes"/>
      <point x="81" y="1058"/>
      <point x="412" y="1275"/>
      <point x="746" y="1275" type="curve" smooth="yes"/>
      <point x="860" y="1275"/>
      <point x="974" y="1250"/>
      <point x="1075" y="1199" type="curve"/>
      <point x="1168" y="1341" type="line"/>
      <point x="1264" y="1281" type="line"/>
      <point x="1171" y="1139" type="line"/>
      <point x="1314" y="1031"/>
      <point x="1412" y="860"/>
      <point x="1412" y="624" type="curve" smooth="yes"/>
      <point x="1412" y="184"/>
      <point x="1080" y="-33"/>
    </contour>
  </outline>
</glyph>
<glyph name="Thorn" format="1">
  <advance width="1063"/>
  <unicode hex="00DE"/>
  <outline>
    <contour>
      <point x="161" y="0" type="line"/>
      <point x="161" y="1241" type="line"/>
      <point x="411" y="1241" type="line"/>
      <point x="411" y="1025" type="line"/>
      <point x="514" y="1025" type="line" smooth="yes"/>
      <point x="797" y="1025"/>
      <point x="987" y="907"/>
      <point x="987" y="652" type="curve" smooth="yes"/>
      <point x="987" y="315"/>
      <point x="671" y="287"/>
      <point x="479" y="287" type="curve" smooth="yes"/>
      <point x="413" y="287" type="line"/>
      <point x="413" y="0" type="line"/>
    </contour>
    <contour>
      <point x="411" y="429" type="line"/>
      <point x="495" y="429" type="line" smooth="yes"/>
      <point x="654" y="429"/>
      <point x="748" y="510"/>
      <point x="748" y="647" type="curve" smooth="yes"/>
      <point x="748" y="764"/>
      <point x="677" y="857"/>
      <point x="482" y="857" type="curve" smooth="yes"/>
      <point x="411" y="857" type="line"/>
    </contour>
  </outline>
</glyph>
<glyph name="germandbls" format="1">
  <advance width="1099"/>
  <unicode hex="00DF"/>
  <outline>
    <contour>
      <point x="698" y="-33" type="curve" smooth="yes"/>
      <point x="536" y="-33"/>
      <point x="450" y="20"/>
      <point x="450" y="20" type="curve"/>
      <point x="450" y="224" type="line"/>
      <point x="450" y="224"/>
      <point x="562" y="172"/>
      <point x="658" y="172" type="curve" smooth="yes"/>
      <point x="759" y="172"/>
      <point x="811" y="217"/>
      <point x="811" y="301" type="curve" smooth="yes"/>
      <point x="811" y="358"/>
      <point x="801" y="408"/>
      <point x="691" y="473" type="curve"/>
      <point x="496" y="584" type="line"/>
      <point x="496" y="752" type="line"/>
      <point x="600" y="753"/>
      <point x="710" y="776"/>
      <point x="710" y="910" type="curve" smooth="yes"/>
      <point x="710" y="1010"/>
      <point x="643" y="1063"/>
      <point x="539" y="1063" type="curve" smooth="yes"/>
      <point x="431" y="1063"/>
      <point x="376" y="987"/>
      <point x="376" y="904" type="curve" smooth="yes"/>
      <point x="376" y="0" type="line"/>
      <point x="126" y="0" type="line"/>
      <point x="126" y="902" type="line" smooth="yes"/>
      <point x="126" y="1080"/>
      <point x="274" y="1241"/>
      <point x="511" y="1241" type="curve" smooth="yes"/>
      <point x="776" y="1241"/>
      <point x="923" y="1110"/>
      <point x="923" y="923" type="curve" smooth="yes"/>
      <point x="923" y="830"/>
      <point x="882" y="729"/>
      <point x="740" y="677" type="curve"/>
      <point x="1013" y="527"/>
      <point x="1041" y="420"/>
      <point x="1041" y="293" type="curve" smooth="yes"/>
      <point x="1041" y="56"/>
      <point x="890" y="-33"/>
    </contour>
  </outline>
</glyph>
<glyph name="ae" format="1">
  <advance width="1514"/>
  <unicode hex="00E6"/>
  <outline>
    <contour>
      <point x="359" y="-22" type="curve" smooth="yes"/>
      <point x="222" y="-22"/>
      <point x="102" y="67"/>
      <point x="102" y="219" type="curve" smooth="yes"/>
      <point x="102" y="326"/>
      <point x="192" y="436"/>
      <point x="440" y="493" type="curve"/>
      <point x="570" y="521" type="line"/>
      <point x="570" y="560" type="line" smooth="yes"/>
      <point x="570" y="682"/>
      <point x="495" y="707"/>
      <point x="426" y="707" type="curve" smooth="yes"/>
      <point x="333" y="707"/>
      <point x="218" y="644"/>
      <point x="172" y="619" type="curve"/>
      <point x="106" y="784" type="line"/>
      <point x="129" y="799"/>
      <point x="264" y="886"/>
      <point x="455" y="886" type="curve" smooth="yes"/>
      <point x="548" y="886"/>
      <point x="645" y="852"/>
      <point x="702" y="767" type="curve"/>
      <point x="768" y="841"/>
      <point x="876" y="885"/>
      <point x="983" y="885" type="curve" smooth="yes"/>
      <point x="1258" y="885"/>
      <point x="1363" y="683"/>
      <point x="1363" y="442" type="curve" smooth="yes"/>
      <point x="1363" y="389" type="line"/>
      <point x="803" y="389" type="line"/>
      <point x="830" y="222"/>
      <point x="938" y="163"/>
      <point x="1076" y="163" type="curve" smooth="yes"/>
      <point x="1199" y="163"/>
      <point x="1284" y="206"/>
      <point x="1347" y="249" type="curve"/>
      <point x="1347" y="56" type="line"/>
      <point x="1263" y="7"/>
      <point x="1175" y="-24"/>
      <point x="1060" y="-24" type="curve" smooth="yes"/>
      <point x="911" y="-24"/>
      <point x="772" y="27"/>
      <point x="682" y="129" type="curve"/>
      <point x="603" y="47"/>
      <point x="491" y="-22"/>
    </contour>
    <contour>
      <point x="413" y="135" type="curve" smooth="yes"/>
      <point x="485" y="135"/>
      <point x="567" y="186"/>
      <point x="615" y="228" type="curve"/>
      <point x="590" y="281"/>
      <point x="575" y="342"/>
      <point x="572" y="409" type="curve"/>
      <point x="553" y="403"/>
      <point x="469" y="382"/>
      <point x="455" y="374" type="curve"/>
      <point x="357" y="333"/>
      <point x="330" y="277"/>
      <point x="330" y="233" type="curve" smooth="yes"/>
      <point x="330" y="175"/>
      <point x="364" y="135"/>
    </contour>
    <contour>
      <point x="814" y="540" type="curve"/>
      <point x="1171" y="540" type="line"/>
      <point x="1160" y="649"/>
      <point x="1105" y="725"/>
      <point x="1007" y="725" type="curve" smooth="yes"/>
      <point x="883" y="725"/>
      <point x="833" y="618"/>
    </contour>
  </outline>
</glyph>
<glyph name="eth" format="1">
  <advance width="1038"/>
  <unicode hex="00F0"/>
  <outline>
    <contour>
      <point x="508" y="-22" type="curve" smooth="yes"/>
      <point x="260" y="-22"/>
      <point x="56" y="143"/>
      <point x="56" y="393" type="curve" smooth="yes"/>
      <point x="56" y="631"/>
      <point x="248" y="797"/>
      <point x="455" y="797" type="curve" smooth="yes"/>
      <point x="496" y="797"/>
      <point x="538" y="786"/>
      <point x="561" y="777" type="curve"/>
      <point x="410" y="961" type="line"/>
      <point x="279" y="870" type="line"/>
      <point x="228" y="934" type="line"/>
      <point x="359" y="1024" type="line"/>
      <point x="181" y="1241" type="line"/>
      <point x="442" y="1241" type="line"/>
      <point x="442" y="1241"/>
      <point x="479" y="1199"/>
      <point x="528" y="1141" type="curve"/>
      <point x="680" y="1246" type="line"/>
      <point x="731" y="1182" type="line"/>
      <point x="581" y="1078" type="line"/>
      <point x="656" y="989"/>
      <point x="741" y="887"/>
      <point x="779" y="834" type="curve" smooth="yes"/>
      <point x="899" y="668"/>
      <point x="963" y="554"/>
      <point x="963" y="390" type="curve" smooth="yes"/>
      <point x="963" y="160"/>
      <point x="770" y="-22"/>
    </contour>
    <contour>
      <point x="515" y="166" type="curve" smooth="yes"/>
      <point x="656" y="166"/>
      <point x="732" y="274"/>
      <point x="732" y="386" type="curve" smooth="yes"/>
      <point x="732" y="504"/>
      <point x="654" y="619"/>
      <point x="508" y="619" type="curve" smooth="yes"/>
      <point x="371" y="619"/>
      <point x="283" y="517"/>
      <point x="283" y="393" type="curve" smooth="yes"/>
      <point x="283" y="275"/>
      <point x="374" y="166"/>
    </contour>
  </outline>
</glyph>
<glyph name="divide" format="1">
  <advance width="543"/>
  <unicode hex="00F7"/>
  <outline>
    <contour>
      <point x="-93" y="380" type="line"/>
      <point x="-93" y="527" type="line"/>
      <point x="635" y="527" type="line"/>
      <point x="635" y="380" type="line"/>
    </contour>
    <contour>
      <point x="280" y="619" type="curve" smooth="yes"/>
      <point x="207" y="619"/>
      <point x="165" y="673"/>
      <point x="165" y="730" type="curve" smooth="yes"/>
      <point x="165" y="785"/>
      <point x="207" y="842"/>
      <point x="280" y="842" type="curve" smooth="yes"/>
      <point x="352" y="842"/>
      <point x="393" y="784"/>
      <point x="393" y="730" type="curve" smooth="yes"/>
      <point x="393" y="674"/>
      <point x="351" y="619"/>
    </contour>
    <contour>
      <point x="280" y="61" type="curve" smooth="yes"/>
      <point x="207" y="61"/>
      <point x="165" y="115"/>
      <point x="165" y="172" type="curve" smooth="yes"/>
      <point x="165" y="227"/>
      <point x="207" y="284"/>
      <point x="280" y="284" type="curve" smooth="yes"/>
      <point x="352" y="284"/>
      <point x="393" y="226"/>
      <point x="393" y="172" type="curve" smooth="yes"/>
      <point x="393" y="116"/>
      <point x="351" y="61"/>
    </contour>
  </outline>
</glyph>
<glyph name="oslash" format="1">
  <advance width="1146"/>
  <unicode hex="00F8"/>
  <outline>
    <contour>
      <point x="466" y="186" type="line"/>
      <point x="497" y="173"/>
      <point x="533" y="166"/>
      <point x="573" y="166" type="curve" smooth="yes"/>
      <point x="742" y="166"/>
      <point x="828" y="297"/>
      <point x="828" y="430" type="curve" smooth="yes"/>
      <point x="828" y="500"/>
      <point x="805" y="569"/>
      <point x="758" y="620" type="curve"/>
    </contour>
    <contour>
      <point x="396" y="233" type="curve"/>
      <point x="690" y="670" type="line"/>
      <point x="657" y="686"/>
      <point x="618" y="696"/>
      <point x="573" y="696" type="curve" smooth="yes"/>
      <point x="405" y="696"/>
      <point x="318" y="563"/>
      <point x="318" y="431" type="curve" smooth="yes"/>
      <point x="318" y="355"/>
      <point x="345" y="283"/>
    </contour>
    <contour>
      <point x="573" y="-22" type="curve" smooth="yes"/>
      <point x="495" y="-22"/>
      <point x="421" y="-7"/>
      <point x="356" y="22" type="curve"/>
      <point x="278" y="-94" type="line"/>
      <point x="208" y="-46" type="line"/>
      <point x="282" y="63" type="line"/>
      <point x="168" y="141"/>
      <point x="93" y="269"/>
      <point x="93" y="431" type="curve" smooth="yes"/>
      <point x="93" y="708"/>
      <point x="311" y="885"/>
      <point x="574" y="885" type="curve" smooth="yes"/>
      <point x="655" y="885"/>
      <point x="733" y="868"/>
      <point x="801" y="835" type="curve"/>
      <point x="880" y="952" type="line"/>
      <point x="949" y="904" type="line"/>
      <point x="874" y="792" type="line"/>
      <point x="982" y="713"/>
      <point x="1053" y="589"/>
      <point x="1053" y="431" type="curve" smooth="yes"/>
      <point x="1053" y="155"/>
      <point x="836" y="-22"/>
    </contour>
  </outline>
</glyph>
<glyph name="Dcroat" format="1">
  <advance width="1401"/>
  <unicode hex="0110"/>
  <outline>
    <contour>
      <point x="391" y="699" type="line"/>
      <point x="693" y="699" type="line"/>
      <point x="693" y="544" type="line"/>
      <point x="391" y="544" type="line"/>
      <point x="391" y="194" type="line"/>
      <point x="621" y="194" type="line" smooth="yes"/>
      <point x="902" y="194"/>
      <point x="1049" y="370"/>
      <point x="1049" y="623" type="curve" smooth="yes"/>
      <point x="1049" y="870"/>
      <point x="909" y="1048"/>
      <point x="664" y="1048" type="curve" smooth="yes"/>
      <point x="391" y="1048" type="line"/>
    </contour>
    <contour>
      <point x="145" y="0" type="line"/>
      <point x="145" y="544" type="line"/>
      <point x="1" y="544" type="line"/>
      <point x="1" y="699" type="line"/>
      <point x="145" y="699" type="line"/>
      <point x="145" y="1241" type="line"/>
      <point x="679" y="1241" type="line" smooth="yes"/>
      <point x="1087" y="1241"/>
      <point x="1304" y="986"/>
      <point x="1304" y="627" type="curve" smooth="yes"/>
      <point x="1304" y="296"/>
      <point x="1070" y="0"/>
      <point x="651" y="0" type="curve" smooth="yes"/>
    </contour>
  </outline>
</glyph>
<glyph name="dcroat" format="1">
  <advance width="1088"/>
  <unicode hex="0111"/>
  <outline>
    <contour>
      <point x="604" y="159" type="curve" smooth="yes"/>
      <point x="649" y="159"/>
      <point x="690" y="166"/>
      <point x="721" y="171" type="curve"/>
      <point x="721" y="652" type="line"/>
      <point x="684" y="669"/>
      <point x="620" y="698"/>
      <point x="549" y="698" type="curve" smooth="yes"/>
      <point x="401" y="698"/>
      <point x="316" y="587"/>
      <point x="316" y="438" type="curve" smooth="yes"/>
      <point x="316" y="250"/>
      <point x="431" y="159"/>
    </contour>
    <contour>
      <point x="574" y="-19" type="curve" smooth="yes"/>
      <point x="267" y="-19"/>
      <point x="87" y="160"/>
      <point x="87" y="457" type="curve" smooth="yes"/>
      <point x="87" y="698"/>
      <point x="262" y="886"/>
      <point x="488" y="886" type="curve" smooth="yes"/>
      <point x="588" y="886"/>
      <point x="670" y="850"/>
      <point x="721" y="822" type="curve"/>
      <point x="721" y="984" type="line"/>
      <point x="482" y="984" type="line"/>
      <point x="482" y="1119" type="line"/>
      <point x="721" y="1119" type="line"/>
      <point x="721" y="1234" type="line"/>
      <point x="954" y="1267" type="line"/>
      <point x="954" y="1119" type="line"/>
      <point x="1076" y="1119" type="line"/>
      <point x="1076" y="984" type="line"/>
      <point x="954" y="984" type="line"/>
      <point x="954" y="52" type="line"/>
      <point x="813" y="5"/>
      <point x="683" y="-19"/>
    </contour>
  </outline>
</glyph>
<glyph name="gcommaaccent" format="1">
  <advance width="1101"/>
  <unicode hex="0123"/>
  <outline>
    <contour>
      <point x="580" y="-393" type="curve" smooth="yes"/>
      <point x="423" y="-393"/>
      <point x="304" y="-338"/>
      <point x="277" y="-328" type="curve"/>
      <point x="277" y="-130" type="line"/>
      <point x="293" y="-137"/>
      <point x="427" y="-189"/>
      <point x="568" y="-189" type="curve" smooth="yes"/>
      <point x="671" y="-189"/>
      <point x="757" y="-147"/>
      <point x="757" y="-26" type="curve" smooth="yes"/>
      <point x="757" y="-21"/>
      <point x="757" y="6"/>
      <point x="756" y="13" type="curve"/>
      <point x="714" y="-2"/>
      <point x="627" y="-15"/>
      <point x="568" y="-15" type="curve" smooth="yes"/>
      <point x="243" y="-15"/>
      <point x="87" y="210"/>
      <point x="87" y="437" type="curve" smooth="yes"/>
      <point x="87" y="683"/>
      <point x="267" y="883"/>
      <point x="508" y="883" type="curve" smooth="yes"/>
      <point x="599" y="883"/>
      <point x="706" y="838"/>
      <point x="741" y="804" type="curve"/>
      <point x="741" y="861" type="line"/>
      <point x="971" y="861" type="line"/>
      <point x="971" y="-19" type="line" smooth="yes"/>
      <point x="971" y="-304"/>
      <point x="780" y="-393"/>
    </contour>
    <contour>
      <point x="589" y="163" type="curve" smooth="yes"/>
      <point x="641" y="163"/>
      <point x="696" y="169"/>
      <point x="739" y="180" type="curve"/>
      <point x="739" y="649" type="line"/>
      <point x="706" y="669"/>
      <point x="637" y="697"/>
      <point x="568" y="697" type="curve" smooth="yes"/>
      <point x="403" y="697"/>
      <point x="315" y="574"/>
      <point x="315" y="426" type="curve" smooth="yes"/>
      <point x="315" y="264"/>
      <point x="421" y="163"/>
    </contour>
    <contour>
      <point x="715" y="1427" type="line"/>
      <point x="669" y="1369"/>
      <point x="623" y="1313"/>
      <point x="603" y="1253" type="curve"/>
      <point x="674" y="1239"/>
      <point x="715" y="1177"/>
      <point x="715" y="1114" type="curve" smooth="yes"/>
      <point x="715" y="1044"/>
      <point x="662" y="971"/>
      <point x="569" y="971" type="curve" smooth="yes"/>
      <point x="476" y="971"/>
      <point x="424" y="1045"/>
      <point x="424" y="1114" type="curve" smooth="yes"/>
      <point x="424" y="1197"/>
      <point x="481" y="1299"/>
      <point x="633" y="1427" type="curve"/>
    </contour>
  </outline>
</glyph>
<glyph name="Hbar" format="1">
  <advance width="1322"/>
  <unicode hex="0126"/>
  <outline>
    <contour>
      <point x="920" y="941" type="line"/>
      <point x="401" y="941" type="line"/>
      <point x="401" y="762" type="line"/>
      <point x="920" y="762" type="line"/>
    </contour>
    <contour>
      <point x="1" y="941" type="line"/>
      <point x="1" y="1096" type="line"/>
      <point x="145" y="1096" type="line"/>
      <point x="145" y="1241" type="line"/>
      <point x="401" y="1241" type="line"/>
      <point x="401" y="1096" type="line"/>
      <point x="920" y="1096" type="line"/>
      <point x="920" y="1241" type="line"/>
      <point x="1176" y="1241" type="line"/>
      <point x="1176" y="1096" type="line"/>
      <point x="1322" y="1096" type="line"/>
      <point x="1322" y="941" type="line"/>
      <point x="1176" y="941" type="line"/>
      <point x="1176" y="0" type="line"/>
      <point x="920" y="0" type="line"/>
      <point x="920" y="542" type="line"/>
      <point x="401" y="542" type="line"/>
      <point x="401" y="0" type="line"/>
      <point x="145" y="0" type="line"/>
      <point x="145" y="941" type="line"/>
    </contour>
  </outline>
</glyph>
<glyph name="dotlessi" format="1">
  <advance width="537"/>
  <unicode hex="0131"/>
  <outline>
    <contour>
      <point x="154" y="0" type="line"/>
      <point x="154" y="861" type="line"/>
      <point x="385" y="861" type="line"/>
      <point x="385" y="0" type="line"/>
    </contour>
  </outline>
</glyph>
<glyph name="IJ" format="1">
  <advance width="1574"/>
  <unicode hex="0132"/>
  <outline>
    <contour>
      <point x="173" y="0" type="line"/>
      <point x="173" y="1241" type="line"/>
      <point x="429" y="1241" type="line"/>
      <point x="429" y="0" type="line"/>
    </contour>
    <contour>
      <point x="967" y="-26" type="curve" smooth="yes"/>
      <point x="782" y="-26"/>
      <point x="702" y="37"/>
      <point x="693" y="42" type="curve"/>
      <point x="693" y="249" type="line"/>
      <point x="721" y="236"/>
      <point x="830" y="169"/>
      <point x="945" y="169" type="curve" smooth="yes"/>
      <point x="1099" y="169"/>
      <point x="1168" y="260"/>
      <point x="1168" y="483" type="curve" smooth="yes"/>
      <point x="1168" y="1241" type="line"/>
      <point x="1413" y="1241" type="line"/>
      <point x="1413" y="479" type="line" smooth="yes"/>
      <point x="1413" y="140"/>
      <point x="1276" y="-26"/>
    </contour>
  </outline>
</glyph>
<glyph name="ij" format="1">
  <advance width="1102"/>
  <unicode hex="0133"/>
  <outline>
    <contour>
      <point x="269" y="997" type="curve" smooth="yes"/>
      <point x="177" y="997"/>
      <point x="123" y="1067"/>
      <point x="123" y="1140" type="curve" smooth="yes"/>
      <point x="123" y="1210"/>
      <point x="176" y="1283"/>
      <point x="269" y="1283" type="curve" smooth="yes"/>
      <point x="362" y="1283"/>
      <point x="414" y="1209"/>
      <point x="414" y="1140" type="curve" smooth="yes"/>
      <point x="414" y="1068"/>
      <point x="361" y="997"/>
    </contour>
    <contour>
      <point x="154" y="0" type="line"/>
      <point x="154" y="861" type="line"/>
      <point x="385" y="861" type="line"/>
      <point x="385" y="0" type="line"/>
    </contour>
    <contour>
      <point x="833" y="989" type="curve" smooth="yes"/>
      <point x="743" y="989"/>
      <point x="686" y="1060"/>
      <point x="686" y="1133" type="curve" smooth="yes"/>
      <point x="686" y="1205"/>
      <point x="743" y="1274"/>
      <point x="833" y="1274" type="curve" smooth="yes"/>
      <point x="925" y="1274"/>
      <point x="979" y="1204"/>
      <point x="979" y="1133" type="curve" smooth="yes"/>
      <point x="979" y="1060"/>
      <point x="925" y="989"/>
    </contour>
    <contour>
      <point x="584" y="-340" type="curve"/>
      <point x="538" y="-151" type="line"/>
      <point x="541" y="-151"/>
      <point x="572" y="-144"/>
      <point x="575" y="-143" type="curve" smooth="yes"/>
      <point x="653" y="-129"/>
      <point x="719" y="-112"/>
      <point x="719" y="-12" type="curve" smooth="yes"/>
      <point x="719" y="861" type="line"/>
      <point x="953" y="861" type="line"/>
      <point x="953" y="-36" type="line" smooth="yes"/>
      <point x="953" y="-157"/>
      <point x="902" y="-336"/>
    </contour>
  </outline>
</glyph>
<glyph name="kgreenlandic" format="1">
  <advance width="1019"/>
  <unicode hex="0138"/>
  <outline>
    <contour>
      <point x="134" y="0" type="line"/>
      <point x="134" y="860" type="line"/>
      <point x="367" y="860" type="line"/>
      <point x="367" y="493" type="line"/>
      <point x="683" y="860" type="line"/>
      <point x="973" y="860" type="line"/>
      <point x="600" y="439" type="line"/>
      <point x="1026" y="0" type="line"/>
      <point x="728" y="0" type="line"/>
      <point x="367" y="374" type="line"/>
      <point x="367" y="0" type="line"/>
    </contour>
  </outline>
</glyph>
<glyph name="Lslash" format="1">
  <advance width="1009"/>
  <unicode hex="0141"/>
  <outline>
    <contour>
      <point x="155" y="0" type="line"/>
      <point x="155" y="461" type="line"/>
      <point x="1" y="384" type="line"/>
      <point x="1" y="539" type="line"/>
      <point x="155" y="616" type="line"/>
      <point x="155" y="1241" type="line"/>
      <point x="411" y="1241" type="line"/>
      <point x="411" y="745" type="line"/>
      <point x="693" y="886" type="line"/>
      <point x="693" y="731" type="line"/>
      <point x="411" y="590" type="line"/>
      <point x="411" y="221" type="line"/>
      <point x="914" y="221" type="line"/>
      <point x="914" y="0" type="line"/>
    </contour>
  </outline>
</glyph>
<glyph name="lslash" format="1">
  <advance width="677"/>
  <unicode hex="0142"/>
  <outline>
    <contour>
      <point x="408" y="-22" type="curve" smooth="yes"/>
      <point x="264" y="-22"/>
      <point x="134" y="71"/>
      <point x="134" y="255" type="curve" smooth="yes"/>
      <point x="134" y="493" type="line"/>
      <point x="1" y="424" type="line"/>
      <point x="1" y="579" type="line"/>
      <point x="134" y="648" type="line"/>
      <point x="134" y="1234" type="line"/>
      <point x="367" y="1267" type="line"/>
      <point x="367" y="769" type="line"/>
      <point x="591" y="886" type="line"/>
      <point x="591" y="731" type="line"/>
      <point x="367" y="614" type="line"/>
      <point x="367" y="283" type="line" smooth="yes"/>
      <point x="367" y="199"/>
      <point x="405" y="173"/>
      <point x="465" y="173" type="curve" smooth="yes"/>
      <point x="522" y="173"/>
      <point x="587" y="193"/>
      <point x="616" y="205" type="curve"/>
      <point x="616" y="19" type="line"/>
      <point x="599" y="11"/>
      <point x="528" y="-22"/>
    </contour>
  </outline>
</glyph>
<glyph name="napostrophe" format="1">
  <advance width="1143"/>
  <unicode hex="0149"/>
  <outline>
    <component base="n"/>
    <contour>
      <point x="54.5" y="1044.9" type="line"/>
      <point x="100.5" y="1102.9"/>
      <point x="146.5" y="1158.9"/>
      <point x="166.5" y="1218.9" type="curve"/>
      <point x="95.5" y="1232.9"/>
      <point x="54.5" y="1294.9"/>
      <point x="54.5" y="1357.9" type="curve" smooth="yes"/>
      <point x="54.5" y="1427.9"/>
      <point x="107.5" y="1500.9"/>
      <point x="200.5" y="1500.9" type="curve" smooth="yes"/>
      <point x="293.5" y="1500.9"/>
      <point x="345.5" y="1426.9"/>
      <point x="345.5" y="1357.9" type="curve" smooth="yes"/>
      <point x="345.5" y="1274.9"/>
      <point x="288.5" y="1172.9"/>
      <point x="136.5" y="1044.9" type="curve"/>
    </contour>
  </outline>
</glyph>
<glyph name="Eng" format="1">
  <advance width="1350"/>
  <unicode hex="014A"/>
  <outline>
    <contour>
      <point x="835" y="-388" type="curve"/>
      <point x="789" y="-199" type="line"/>
      <point x="792" y="-199"/>
      <point x="823" y="-192"/>
      <point x="826" y="-191" type="curve" smooth="yes"/>
      <point x="904" y="-177"/>
      <point x="967" y="-160"/>
      <point x="967" y="-60" type="curve" smooth="yes"/>
      <point x="967" y="72" type="line"/>
      <point x="401" y="683" type="line"/>
      <point x="401" y="0" type="line"/>
      <point x="145" y="0" type="line"/>
      <point x="145" y="1297" type="line"/>
      <point x="948" y="419" type="line"/>
      <point x="948" y="1241" type="line"/>
      <point x="1204" y="1241" type="line"/>
      <point x="1204" y="-84" type="line" smooth="yes"/>
      <point x="1204" y="-205"/>
      <point x="1153" y="-384"/>
    </contour>
  </outline>
</glyph>
<glyph name="eng" format="1">
  <advance width="1143"/>
  <unicode hex="014B"/>
  <outline>
    <contour>
      <point x="654" y="-388" type="curve"/>
      <point x="608" y="-199" type="line"/>
      <point x="611" y="-199"/>
      <point x="642" y="-192"/>
      <point x="645" y="-191" type="curve" smooth="yes"/>
      <point x="723" y="-177"/>
      <point x="786" y="-160"/>
      <point x="786" y="-60" type="curve" smooth="yes"/>
      <point x="786" y="559" type="line" smooth="yes"/>
      <point x="786" y="664"/>
      <point x="718" y="704"/>
      <point x="621" y="704" type="curve" smooth="yes"/>
      <point x="499" y="704"/>
      <point x="392" y="624"/>
      <point x="372" y="585" type="curve"/>
      <point x="372" y="0" type="line"/>
      <point x="134" y="0" type="line"/>
      <point x="134" y="860" type="line"/>
      <point x="369" y="860" type="line"/>
      <point x="369" y="759" type="line"/>
      <point x="442" y="822"/>
      <point x="553" y="885"/>
      <point x="694" y="885" type="curve" smooth="yes"/>
      <point x="873" y="885"/>
      <point x="1023" y="760"/>
      <point x="1023" y="580" type="curve" smooth="yes"/>
      <point x="1023" y="-84" type="line" smooth="yes"/>
      <point x="1023" y="-205"/>
      <point x="972" y="-384"/>
    </contour>
  </outline>
</glyph>
<glyph name="Tbar" format="1">
  <advance width="1122"/>
  <unicode hex="0166"/>
  <outline>
    <contour>
      <point x="218" y="378" type="line"/>
      <point x="218" y="524" type="line"/>
      <point x="429" y="524" type="line"/>
      <point x="429" y="1020" type="line"/>
      <point x="55" y="1020" type="line"/>
      <point x="55" y="1241" type="line"/>
      <point x="1059" y="1241" type="line"/>
      <point x="1059" y="1020" type="line"/>
      <point x="685" y="1020" type="line"/>
      <point x="685" y="524" type="line"/>
      <point x="892" y="524" type="line"/>
      <point x="892" y="378" type="line"/>
      <point x="685" y="378" type="line"/>
      <point x="685" y="0" type="line"/>
      <point x="429" y="0" type="line"/>
      <point x="429" y="378" type="line"/>
    </contour>
  </outline>
</glyph>
<glyph name="tbar" format="1">
  <advance width="786"/>
  <unicode hex="0167"/>
  <outline>
    <contour>
      <point x="71" y="378" type="line"/>
      <point x="71" y="524" type="line"/>
      <point x="175" y="524" type="line"/>
      <point x="175" y="679" type="line"/>
      <point x="109" y="679" type="line" smooth="yes"/>
      <point x="77" y="679"/>
      <point x="59" y="696"/>
      <point x="59" y="718" type="curve" smooth="yes"/>
      <point x="59" y="731"/>
      <point x="66" y="745"/>
      <point x="79" y="758" type="curve" smooth="yes"/>
      <point x="404" y="1096" type="line"/>
      <point x="404" y="860" type="line"/>
      <point x="675" y="860" type="line"/>
      <point x="675" y="679" type="line"/>
      <point x="404" y="679" type="line"/>
      <point x="404" y="524" type="line"/>
      <point x="662" y="524" type="line"/>
      <point x="662" y="378" type="line"/>
      <point x="404" y="378" type="line"/>
      <point x="404" y="271" type="line" smooth="yes"/>
      <point x="404" y="192"/>
      <point x="451" y="171"/>
      <point x="510" y="171" type="curve" smooth="yes"/>
      <point x="592" y="171"/>
      <point x="686" y="214"/>
      <point x="720" y="229" type="curve"/>
      <point x="720" y="53" type="line"/>
      <point x="706" y="43"/>
      <point x="620" y="-22"/>
      <point x="461" y="-22" type="curve" smooth="yes"/>
      <point x="316" y="-22"/>
      <point x="175" y="60"/>
      <point x="175" y="212" type="curve" smooth="yes"/>
      <point x="175" y="378" type="line"/>
    </contour>
  </outline>
</glyph>
<glyph name="florin" format="1">
  <advance width="1019"/>
  <unicode hex="0192"/>
  <outline>
    <contour>
      <point x="276" y="-323" type="curve" smooth="yes"/>
      <point x="210" y="-323"/>
      <point x="143" y="-306"/>
      <point x="66" y="-272" type="curve"/>
      <point x="83" y="-115" type="line"/>
      <point x="105" y="-124"/>
      <point x="161" y="-150"/>
      <point x="219" y="-150" type="curve" smooth="yes"/>
      <point x="284" y="-150"/>
      <point x="336" y="-120"/>
      <point x="346" y="-14" type="curve" smooth="yes"/>
      <point x="411" y="631" type="line"/>
      <point x="263" y="631" type="line"/>
      <point x="276" y="764" type="line"/>
      <point x="424" y="764" type="line"/>
      <point x="438" y="927" type="line" smooth="yes"/>
      <point x="455" y="1132"/>
      <point x="568" y="1251"/>
      <point x="775" y="1251" type="curve" smooth="yes"/>
      <point x="861" y="1251"/>
      <point x="938" y="1220"/>
      <point x="953" y="1215" type="curve"/>
      <point x="936" y="1052" type="line"/>
      <point x="901" y="1064"/>
      <point x="866" y="1073"/>
      <point x="825" y="1073" type="curve" smooth="yes"/>
      <point x="749" y="1073"/>
      <point x="683" y="1040"/>
      <point x="673" y="927" type="curve" smooth="yes"/>
      <point x="659" y="764" type="line"/>
      <point x="843" y="764" type="line"/>
      <point x="830" y="631" type="line"/>
      <point x="644" y="631" type="line"/>
      <point x="580" y="0" type="line" smooth="yes"/>
      <point x="559" y="-213"/>
      <point x="446" y="-323"/>
    </contour>
  </outline>
</glyph>
<glyph name="uni01C4" format="1">
  <advance width="2460"/>
  <unicode hex="01C4"/>
  <outline>
    <contour>
      <point x="145" y="0" type="line"/>
      <point x="145" y="1241" type="line"/>
      <point x="679" y="1241" type="line" smooth="yes"/>
      <point x="1087" y="1241"/>
      <point x="1304" y="986"/>
      <point x="1304" y="627" type="curve" smooth="yes"/>
      <point x="1304" y="296"/>
      <point x="1070" y="0"/>
      <point x="651" y="0" type="curve" smooth="yes"/>
    </contour>
    <contour>
      <point x="391" y="194" type="line"/>
      <point x="621" y="194" type="line" smooth="yes"/>
      <point x="902" y="194"/>
      <point x="1049" y="370"/>
      <point x="1049" y="623" type="curve" smooth="yes"/>
      <point x="1049" y="870"/>
      <point x="909" y="1048"/>
      <point x="664" y="1048" type="curve" smooth="yes"/>
      <point x="391" y="1048" type="line"/>
    </contour>
    <contour>
      <point x="1481" y="0" type="line"/>
      <point x="1992" y="1020" type="line"/>
      <point x="1509" y="1020" type="line"/>
      <point x="1509" y="1241" type="line"/>
      <point x="2368" y="1241" type="line"/>
      <point x="1866" y="221" type="line"/>
      <point x="2351" y="221" type="line"/>
      <point x="2351" y="0" type="line"/>
    </contour>
    <contour>
      <point x="1915" y="1383" type="curve" smooth="yes"/>
      <point x="1874" y="1383"/>
      <point x="1835" y="1411"/>
      <point x="1808" y="1466" type="curve" smooth="yes"/>
      <point x="1649" y="1794" type="line" smooth="yes"/>
      <point x="1644" y="1804"/>
      <point x="1642" y="1813"/>
      <point x="1642" y="1821" type="curve" smooth="yes"/>
      <point x="1642" y="1841"/>
      <point x="1656" y="1855"/>
      <point x="1673" y="1855" type="curve" smooth="yes"/>
      <point x="1685" y="1855"/>
      <point x="1697" y="1849"/>
      <point x="1708" y="1837" type="curve" smooth="yes"/>
      <point x="1915" y="1609" type="line"/>
      <point x="2122" y="1837" type="line" smooth="yes"/>
      <point x="2134" y="1849"/>
      <point x="2146" y="1855"/>
      <point x="2157" y="1855" type="curve" smooth="yes"/>
      <point x="2174" y="1855"/>
      <point x="2188" y="1841"/>
      <point x="2188" y="1821" type="curve" smooth="yes"/>
      <point x="2188" y="1813"/>
      <point x="2186" y="1804"/>
      <point x="2181" y="1794" type="curve" smooth="yes"/>
      <point x="2022" y="1466" type="line" smooth="yes"/>
      <point x="1995" y="1411"/>
      <point x="1957" y="1383"/>
    </contour>
  </outline>
</glyph>
<glyph name="uni01C5" format="1">
  <advance width="2301"/>
  <unicode hex="01C5"/>
  <outline>
    <contour>
      <point x="145" y="0" type="line"/>
      <point x="145" y="1241" type="line"/>
      <point x="679" y="1241" type="line" smooth="yes"/>
      <point x="1087" y="1241"/>
      <point x="1304" y="986"/>
      <point x="1304" y="627" type="curve" smooth="yes"/>
      <point x="1304" y="296"/>
      <point x="1070" y="0"/>
      <point x="651" y="0" type="curve" smooth="yes"/>
    </contour>
    <contour>
      <point x="391" y="194" type="line"/>
      <point x="621" y="194" type="line" smooth="yes"/>
      <point x="902" y="194"/>
      <point x="1049" y="370"/>
      <point x="1049" y="623" type="curve" smooth="yes"/>
      <point x="1049" y="870"/>
      <point x="909" y="1048"/>
      <point x="664" y="1048" type="curve" smooth="yes"/>
      <point x="391" y="1048" type="line"/>
    </contour>
    <contour>
      <point x="1470" y="0" type="line"/>
      <point x="1903" y="685" type="line"/>
      <point x="1503" y="685" type="line"/>
      <point x="1503" y="861" type="line"/>
      <point x="2239" y="861" type="line"/>
      <point x="1832" y="181" type="line"/>
      <point x="2209" y="181" type="line"/>
      <point x="2209" y="0" type="line"/>
    </contour>
    <contour>
      <point x="1898" y="976" type="curve" smooth="yes"/>
      <point x="1857" y="976"/>
      <point x="1818" y="1004"/>
      <point x="1791" y="1059" type="curve" smooth="yes"/>
      <point x="1632" y="1387" type="line" smooth="yes"/>
      <point x="1627" y="1397"/>
      <point x="1625" y="1406"/>
      <point x="1625" y="1414" type="curve" smooth="yes"/>
      <point x="1625" y="1434"/>
      <point x="1639" y="1448"/>
      <point x="1656" y="1448" type="curve" smooth="yes"/>
      <point x="1668" y="1448"/>
      <point x="1680" y="1442"/>
      <point x="1691" y="1430" type="curve" smooth="yes"/>
      <point x="1898" y="1202" type="line"/>
      <point x="2105" y="1430" type="line" smooth="yes"/>
      <point x="2117" y="1442"/>
      <point x="2129" y="1448"/>
      <point x="2140" y="1448" type="curve" smooth="yes"/>
      <point x="2157" y="1448"/>
      <point x="2171" y="1434"/>
      <point x="2171" y="1414" type="curve" smooth="yes"/>
      <point x="2171" y="1406"/>
      <point x="2169" y="1397"/>
      <point x="2164" y="1387" type="curve" smooth="yes"/>
      <point x="2005" y="1059" type="line" smooth="yes"/>
      <point x="1978" y="1004"/>
      <point x="1940" y="976"/>
    </contour>
  </outline>
</glyph>
<glyph name="uni01C6" format="1">
  <advance width="1988"/>
  <unicode hex="01C6"/>
  <outline>
    <contour>
      <point x="574" y="-19" type="curve" smooth="yes"/>
      <point x="267" y="-19"/>
      <point x="87" y="160"/>
      <point x="87" y="457" type="curve" smooth="yes"/>
      <point x="87" y="698"/>
      <point x="262" y="886"/>
      <point x="488" y="886" type="curve" smooth="yes"/>
      <point x="588" y="886"/>
      <point x="670" y="850"/>
      <point x="721" y="822" type="curve"/>
      <point x="721" y="1234" type="line"/>
      <point x="954" y="1267" type="line"/>
      <point x="954" y="52" type="line"/>
      <point x="813" y="5"/>
      <point x="683" y="-19"/>
    </contour>
    <contour>
      <point x="604" y="159" type="curve" smooth="yes"/>
      <point x="649" y="159"/>
      <point x="690" y="166"/>
      <point x="721" y="171" type="curve"/>
      <point x="721" y="652" type="line"/>
      <point x="684" y="669"/>
      <point x="620" y="698"/>
      <point x="549" y="698" type="curve" smooth="yes"/>
      <point x="401" y="698"/>
      <point x="316" y="587"/>
      <point x="316" y="438" type="curve" smooth="yes"/>
      <point x="316" y="250"/>
      <point x="431" y="159"/>
    </contour>
    <contour>
      <point x="1157" y="0" type="line"/>
      <point x="1590" y="685" type="line"/>
      <point x="1190" y="685" type="line"/>
      <point x="1190" y="861" type="line"/>
      <point x="1926" y="861" type="line"/>
      <point x="1519" y="181" type="line"/>
      <point x="1896" y="181" type="line"/>
      <point x="1896" y="0" type="line"/>
    </contour>
    <contour>
      <point x="1585" y="976" type="curve" smooth="yes"/>
      <point x="1544" y="976"/>
      <point x="1505" y="1004"/>
      <point x="1478" y="1059" type="curve" smooth="yes"/>
      <point x="1319" y="1387" type="line" smooth="yes"/>
      <point x="1314" y="1397"/>
      <point x="1312" y="1406"/>
      <point x="1312" y="1414" type="curve" smooth="yes"/>
      <point x="1312" y="1434"/>
      <point x="1326" y="1448"/>
      <point x="1343" y="1448" type="curve" smooth="yes"/>
      <point x="1355" y="1448"/>
      <point x="1367" y="1442"/>
      <point x="1378" y="1430" type="curve" smooth="yes"/>
      <point x="1585" y="1202" type="line"/>
      <point x="1792" y="1430" type="line" smooth="yes"/>
      <point x="1804" y="1442"/>
      <point x="1816" y="1448"/>
      <point x="1827" y="1448" type="curve" smooth="yes"/>
      <point x="1844" y="1448"/>
      <point x="1858" y="1434"/>
      <point x="1858" y="1414" type="curve" smooth="yes"/>
      <point x="1858" y="1406"/>
      <point x="1856" y="1397"/>
      <point x="1851" y="1387" type="curve" smooth="yes"/>
      <point x="1692" y="1059" type="line" smooth="yes"/>
      <point x="1665" y="1004"/>
      <point x="1627" y="976"/>
    </contour>
  </outline>
</glyph>
<glyph name="uni01C7" format="1">
  <advance width="1997"/>
  <unicode hex="01C7"/>
  <outline>
    <contour>
      <point x="155" y="0" type="line"/>
      <point x="155" y="1241" type="line"/>
      <point x="411" y="1241" type="line"/>
      <point x="411" y="221" type="line"/>
      <point x="914" y="221" type="line"/>
      <point x="914" y="0" type="line"/>
    </contour>
    <contour>
      <point x="1390" y="-26" type="curve" smooth="yes"/>
      <point x="1205" y="-26"/>
      <point x="1125" y="37"/>
      <point x="1116" y="42" type="curve"/>
      <point x="1116" y="249" type="line"/>
      <point x="1144" y="236"/>
      <point x="1253" y="169"/>
      <point x="1368" y="169" type="curve" smooth="yes"/>
      <point x="1522" y="169"/>
      <point x="1591" y="260"/>
      <point x="1591" y="483" type="curve" smooth="yes"/>
      <point x="1591" y="1241" type="line"/>
      <point x="1836" y="1241" type="line"/>
      <point x="1836" y="479" type="line" smooth="yes"/>
      <point x="1836" y="140"/>
      <point x="1699" y="-26"/>
    </contour>
  </outline>
</glyph>
<glyph name="uni01C8" format="1">
  <advance width="1574"/>
  <unicode hex="01C8"/>
  <outline>
    <contour>
      <point x="155" y="0" type="line"/>
      <point x="155" y="1241" type="line"/>
      <point x="411" y="1241" type="line"/>
      <point x="411" y="221" type="line"/>
      <point x="914" y="221" type="line"/>
      <point x="914" y="0" type="line"/>
    </contour>
    <contour>
      <point x="1305" y="989" type="curve" smooth="yes"/>
      <point x="1215" y="989"/>
      <point x="1158" y="1060"/>
      <point x="1158" y="1133" type="curve" smooth="yes"/>
      <point x="1158" y="1205"/>
      <point x="1215" y="1274"/>
      <point x="1305" y="1274" type="curve" smooth="yes"/>
      <point x="1397" y="1274"/>
      <point x="1451" y="1204"/>
      <point x="1451" y="1133" type="curve" smooth="yes"/>
      <point x="1451" y="1060"/>
      <point x="1397" y="989"/>
    </contour>
    <contour>
      <point x="1056" y="-340" type="curve"/>
      <point x="1010" y="-151" type="line"/>
      <point x="1013" y="-151"/>
      <point x="1044" y="-144"/>
      <point x="1047" y="-143" type="curve" smooth="yes"/>
      <point x="1125" y="-129"/>
      <point x="1191" y="-112"/>
      <point x="1191" y="-12" type="curve" smooth="yes"/>
      <point x="1191" y="861" type="line"/>
      <point x="1425" y="861" type="line"/>
      <point x="1425" y="-36" type="line" smooth="yes"/>
      <point x="1425" y="-157"/>
      <point x="1374" y="-336"/>
    </contour>
  </outline>
</glyph>
<glyph name="uni01C9" format="1">
  <advance width="1242"/>
  <unicode hex="01C9"/>
  <outline>
    <contour>
      <point x="408" y="-22" type="curve" smooth="yes"/>
      <point x="264" y="-22"/>
      <point x="134" y="71"/>
      <point x="134" y="255" type="curve" smooth="yes"/>
      <point x="134" y="1234" type="line"/>
      <point x="367" y="1267" type="line"/>
      <point x="367" y="283" type="line" smooth="yes"/>
      <point x="367" y="199"/>
      <point x="405" y="173"/>
      <point x="465" y="173" type="curve" smooth="yes"/>
      <point x="522" y="173"/>
      <point x="587" y="193"/>
      <point x="616" y="205" type="curve"/>
      <point x="616" y="19" type="line"/>
      <point x="599" y="11"/>
      <point x="528" y="-22"/>
    </contour>
    <contour>
      <point x="973" y="989" type="curve" smooth="yes"/>
      <point x="883" y="989"/>
      <point x="826" y="1060"/>
      <point x="826" y="1133" type="curve" smooth="yes"/>
      <point x="826" y="1205"/>
      <point x="883" y="1274"/>
      <point x="973" y="1274" type="curve" smooth="yes"/>
      <point x="1065" y="1274"/>
      <point x="1119" y="1204"/>
      <point x="1119" y="1133" type="curve" smooth="yes"/>
      <point x="1119" y="1060"/>
      <point x="1065" y="989"/>
    </contour>
    <contour>
      <point x="724" y="-340" type="curve"/>
      <point x="678" y="-151" type="line"/>
      <point x="681" y="-151"/>
      <point x="712" y="-144"/>
      <point x="715" y="-143" type="curve" smooth="yes"/>
      <point x="793" y="-129"/>
      <point x="859" y="-112"/>
      <point x="859" y="-12" type="curve" smooth="yes"/>
      <point x="859" y="861" type="line"/>
      <point x="1093" y="861" type="line"/>
      <point x="1093" y="-36" type="line" smooth="yes"/>
      <point x="1093" y="-157"/>
      <point x="1042" y="-336"/>
    </contour>
  </outline>
</glyph>
<glyph name="uni01CA" format="1">
  <advance width="2338"/>
  <unicode hex="01CA"/>
  <outline>
    <contour>
      <point x="1204" y="-50" type="line"/>
      <point x="401" y="733" type="line"/>
      <point x="401" y="0" type="line"/>
      <point x="145" y="0" type="line"/>
      <point x="145" y="1297" type="line"/>
      <point x="948" y="507" type="line"/>
      <point x="948" y="1241" type="line"/>
      <point x="1204" y="1241" type="line"/>
    </contour>
    <contour>
      <point x="1731" y="-26" type="curve" smooth="yes"/>
      <point x="1546" y="-26"/>
      <point x="1466" y="37"/>
      <point x="1457" y="42" type="curve"/>
      <point x="1457" y="249" type="line"/>
      <point x="1485" y="236"/>
      <point x="1594" y="169"/>
      <point x="1709" y="169" type="curve" smooth="yes"/>
      <point x="1863" y="169"/>
      <point x="1932" y="260"/>
      <point x="1932" y="483" type="curve" smooth="yes"/>
      <point x="1932" y="1241" type="line"/>
      <point x="2177" y="1241" type="line"/>
      <point x="2177" y="479" type="line" smooth="yes"/>
      <point x="2177" y="140"/>
      <point x="2040" y="-26"/>
    </contour>
  </outline>
</glyph>
<glyph name="uni01CB" format="1">
  <advance width="1915"/>
  <unicode hex="01CB"/>
  <outline>
    <contour>
      <point x="1204" y="-50" type="line"/>
      <point x="401" y="733" type="line"/>
      <point x="401" y="0" type="line"/>
      <point x="145" y="0" type="line"/>
      <point x="145" y="1297" type="line"/>
      <point x="948" y="507" type="line"/>
      <point x="948" y="1241" type="line"/>
      <point x="1204" y="1241" type="line"/>
    </contour>
    <contour>
      <point x="1646" y="989" type="curve" smooth="yes"/>
      <point x="1556" y="989"/>
      <point x="1499" y="1060"/>
      <point x="1499" y="1133" type="curve" smooth="yes"/>
      <point x="1499" y="1205"/>
      <point x="1556" y="1274"/>
      <point x="1646" y="1274" type="curve" smooth="yes"/>
      <point x="1738" y="1274"/>
      <point x="1792" y="1204"/>
      <point x="1792" y="1133" type="curve" smooth="yes"/>
      <point x="1792" y="1060"/>
      <point x="1738" y="989"/>
    </contour>
    <contour>
      <point x="1397" y="-340" type="curve"/>
      <point x="1351" y="-151" type="line"/>
      <point x="1354" y="-151"/>
      <point x="1385" y="-144"/>
      <point x="1388" y="-143" type="curve" smooth="yes"/>
      <point x="1466" y="-129"/>
      <point x="1532" y="-112"/>
      <point x="1532" y="-12" type="curve" smooth="yes"/>
      <point x="1532" y="861" type="line"/>
      <point x="1766" y="861" type="line"/>
      <point x="1766" y="-36" type="line" smooth="yes"/>
      <point x="1766" y="-157"/>
      <point x="1715" y="-336"/>
    </contour>
  </outline>
</glyph>
<glyph name="uni01CC" format="1">
  <advance width="1708"/>
  <unicode hex="01CC"/>
  <outline>
    <contour>
      <point x="134" y="0" type="line"/>
      <point x="134" y="861" type="line"/>
      <point x="369" y="861" type="line"/>
      <point x="369" y="759" type="line"/>
      <point x="442" y="822"/>
      <point x="553" y="885"/>
      <point x="694" y="885" type="curve" smooth="yes"/>
      <point x="873" y="885"/>
      <point x="1023" y="760"/>
      <point x="1023" y="580" type="curve" smooth="yes"/>
      <point x="1023" y="0" type="line"/>
      <point x="786" y="0" type="line"/>
      <point x="786" y="559" type="line" smooth="yes"/>
      <point x="786" y="664"/>
      <point x="718" y="704"/>
      <point x="621" y="704" type="curve" smooth="yes"/>
      <point x="499" y="704"/>
      <point x="392" y="624"/>
      <point x="372" y="585" type="curve"/>
      <point x="372" y="0" type="line"/>
    </contour>
    <contour>
      <point x="1439" y="989" type="curve" smooth="yes"/>
      <point x="1349" y="989"/>
      <point x="1292" y="1060"/>
      <point x="1292" y="1133" type="curve" smooth="yes"/>
      <point x="1292" y="1205"/>
      <point x="1349" y="1274"/>
      <point x="1439" y="1274" type="curve" smooth="yes"/>
      <point x="1531" y="1274"/>
      <point x="1585" y="1204"/>
      <point x="1585" y="1133" type="curve" smooth="yes"/>
      <point x="1585" y="1060"/>
      <point x="1531" y="989"/>
    </contour>
    <contour>
      <point x="1190" y="-340" type="curve"/>
      <point x="1144" y="-151" type="line"/>
      <point x="1147" y="-151"/>
      <point x="1178" y="-144"/>
      <point x="1181" y="-143" type="curve" smooth="yes"/>
      <point x="1259" y="-129"/>
      <point x="1325" y="-112"/>
      <point x="1325" y="-12" type="curve" smooth="yes"/>
      <point x="1325" y="861" type="line"/>
      <point x="1559" y="861" type="line"/>
      <point x="1559" y="-36" type="line" smooth="yes"/>
      <point x="1559" y="-157"/>
      <point x="1508" y="-336"/>
    </contour>
  </outline>
</glyph>
<glyph name="uni01F1" format="1">
  <advance width="2460"/>
  <unicode hex="01F1"/>
  <outline>
    <contour>
      <point x="145" y="0" type="line"/>
      <point x="145" y="1241" type="line"/>
      <point x="679" y="1241" type="line" smooth="yes"/>
      <point x="1087" y="1241"/>
      <point x="1304" y="986"/>
      <point x="1304" y="627" type="curve" smooth="yes"/>
      <point x="1304" y="296"/>
      <point x="1070" y="0"/>
      <point x="651" y="0" type="curve" smooth="yes"/>
    </contour>
    <contour>
      <point x="391" y="194" type="line"/>
      <point x="621" y="194" type="line" smooth="yes"/>
      <point x="902" y="194"/>
      <point x="1049" y="370"/>
      <point x="1049" y="623" type="curve" smooth="yes"/>
      <point x="1049" y="870"/>
      <point x="909" y="1048"/>
      <point x="664" y="1048" type="curve" smooth="yes"/>
      <point x="391" y="1048" type="line"/>
    </contour>
    <contour>
      <point x="1481" y="0" type="line"/>
      <point x="1992" y="1020" type="line"/>
      <point x="1509" y="1020" type="line"/>
      <point x="1509" y="1241" type="line"/>
      <point x="2368" y="1241" type="line"/>
      <point x="1866" y="221" type="line"/>
      <point x="2351" y="221" type="line"/>
      <point x="2351" y="0" type="line"/>
    </contour>
  </outline>
</glyph>
<glyph name="uni01F3" format="1">
  <advance width="1988"/>
  <unicode hex="01F3"/>
  <outline>
    <contour>
      <point x="574" y="-19" type="curve" smooth="yes"/>
      <point x="267" y="-19"/>
      <point x="87" y="160"/>
      <point x="87" y="457" type="curve" smooth="yes"/>
      <point x="87" y="698"/>
      <point x="262" y="886"/>
      <point x="488" y="886" type="curve" smooth="yes"/>
      <point x="588" y="886"/>
      <point x="670" y="850"/>
      <point x="721" y="822" type="curve"/>
      <point x="721" y="1234" type="line"/>
      <point x="954" y="1267" type="line"/>
      <point x="954" y="52" type="line"/>
      <point x="813" y="5"/>
      <point x="683" y="-19"/>
    </contour>
    <contour>
      <point x="604" y="159" type="curve" smooth="yes"/>
      <point x="649" y="159"/>
      <point x="690" y="166"/>
      <point x="721" y="171" type="curve"/>
      <point x="721" y="652" type="line"/>
      <point x="684" y="669"/>
      <point x="620" y="698"/>
      <point x="549" y="698" type="curve" smooth="yes"/>
      <point x="401" y="698"/>
      <point x="316" y="587"/>
      <point x="316" y="438" type="curve" smooth="yes"/>
      <point x="316" y="250"/>
      <point x="431" y="159"/>
    </contour>
    <contour>
      <point x="1157" y="0" type="line"/>
      <point x="1590" y="685" type="line"/>
      <point x="1190" y="685" type="line"/>
      <point x="1190" y="861" type="line"/>
      <point x="1926" y="861" type="line"/>
      <point x="1519" y="181" type="line"/>
      <point x="1896" y="181" type="line"/>
      <point x="1896" y="0" type="line"/>
    </contour>
  </outline>
</glyph>
<glyph name="uni0237" format="1">
  <advance width="565"/>
  <unicode hex="0237"/>
  <outline>
    <contour>
      <point x="47" y="-340" type="curve"/>
      <point x="1" y="-151" type="line"/>
      <point x="4" y="-151"/>
      <point x="35" y="-144"/>
      <point x="38" y="-143" type="curve" smooth="yes"/>
      <point x="116" y="-129"/>
      <point x="182" y="-112"/>
      <point x="182" y="-12" type="curve" smooth="yes"/>
      <point x="182" y="861" type="line"/>
      <point x="416" y="861" type="line"/>
      <point x="416" y="-36" type="line" smooth="yes"/>
      <point x="416" y="-157"/>
      <point x="365" y="-336"/>
    </contour>
  </outline>
</glyph>
<glyph name="circumflex" format="1">
  <advance width="825"/>
  <unicode hex="02C6"/>
  <outline>
    <contour>
      <point x="170" y="106" type="curve" smooth="yes"/>
      <point x="153" y="106"/>
      <point x="139" y="120"/>
      <point x="139" y="140" type="curve" smooth="yes"/>
      <point x="139" y="148"/>
      <point x="141" y="157"/>
      <point x="146" y="167" type="curve" smooth="yes"/>
      <point x="305" y="495" type="line" smooth="yes"/>
      <point x="332" y="550"/>
      <point x="370" y="578"/>
      <point x="412" y="578" type="curve" smooth="yes"/>
      <point x="453" y="578"/>
      <point x="492" y="550"/>
      <point x="519" y="495" type="curve" smooth="yes"/>
      <point x="678" y="167" type="line" smooth="yes"/>
      <point x="683" y="157"/>
      <point x="685" y="148"/>
      <point x="685" y="140" type="curve" smooth="yes"/>
      <point x="685" y="120"/>
      <point x="671" y="106"/>
      <point x="654" y="106" type="curve" smooth="yes"/>
      <point x="643" y="106"/>
      <point x="631" y="112"/>
      <point x="619" y="124" type="curve" smooth="yes"/>
      <point x="412" y="352" type="line"/>
      <point x="205" y="124" type="line" smooth="yes"/>
      <point x="194" y="112"/>
      <point x="182" y="106"/>
    </contour>
  </outline>
</glyph>
<glyph name="caron" format="1">
  <advance width="825"/>
  <unicode hex="02C7"/>
  <outline>
    <contour>
      <point x="412" y="109" type="curve" smooth="yes"/>
      <point x="371" y="109"/>
      <point x="332" y="137"/>
      <point x="305" y="192" type="curve" smooth="yes"/>
      <point x="146" y="520" type="line" smooth="yes"/>
      <point x="141" y="530"/>
      <point x="139" y="539"/>
      <point x="139" y="547" type="curve" smooth="yes"/>
      <point x="139" y="567"/>
      <point x="153" y="581"/>
      <point x="170" y="581" type="curve" smooth="yes"/>
      <point x="182" y="581"/>
      <point x="194" y="575"/>
      <point x="205" y="563" type="curve" smooth="yes"/>
      <point x="412" y="335" type="line"/>
      <point x="619" y="563" type="line" smooth="yes"/>
      <point x="631" y="575"/>
      <point x="643" y="581"/>
      <point x="654" y="581" type="curve" smooth="yes"/>
      <point x="671" y="581"/>
      <point x="685" y="567"/>
      <point x="685" y="547" type="curve" smooth="yes"/>
      <point x="685" y="539"/>
      <point x="683" y="530"/>
      <point x="678" y="520" type="curve" smooth="yes"/>
      <point x="519" y="192" type="line" smooth="yes"/>
      <point x="492" y="137"/>
      <point x="454" y="109"/>
    </contour>
  </outline>
</glyph>
<glyph name="breve" format="1">
  <advance width="781"/>
  <unicode hex="02D8"/>
  <outline>
    <contour>
      <point x="234" y="444" type="line"/>
      <point x="234" y="328"/>
      <point x="302" y="289"/>
      <point x="390" y="289" type="curve" smooth="yes"/>
      <point x="480" y="289"/>
      <point x="548" y="330"/>
      <point x="548" y="444" type="curve"/>
      <point x="688" y="444" type="line"/>
      <point x="688" y="294"/>
      <point x="580" y="144"/>
      <point x="390" y="144" type="curve" smooth="yes"/>
      <point x="205" y="144"/>
      <point x="98" y="283"/>
      <point x="98" y="444" type="curve"/>
    </contour>
  </outline>
</glyph>
<glyph name="dotaccent" format="1">
  <advance width="584"/>
  <unicode hex="02D9"/>
  <outline>
    <contour>
      <point x="299" y="172" type="curve" smooth="yes"/>
      <point x="206" y="172"/>
      <point x="152" y="242"/>
      <point x="152" y="315" type="curve" smooth="yes"/>
      <point x="152" y="385"/>
      <point x="205" y="458"/>
      <point x="299" y="458" type="curve" smooth="yes"/>
      <point x="391" y="458"/>
      <point x="444" y="384"/>
      <point x="444" y="315" type="curve" smooth="yes"/>
      <point x="444" y="243"/>
      <point x="390" y="172"/>
    </contour>
  </outline>
</glyph>
<glyph name="ogonek" format="1">
  <advance width="451"/>
  <unicode hex="02DB"/>
  <outline>
    <contour>
      <point x="264" y="-404" type="line"/>
      <point x="164" y="-367"/>
      <point x="113" y="-312"/>
      <point x="113" y="-244" type="curve" smooth="yes"/>
      <point x="113" y="-172"/>
      <point x="170" y="-88"/>
      <point x="274" y="0" type="curve"/>
      <point x="343" y="0" type="line"/>
      <point x="293" y="-64"/>
      <point x="265" y="-126"/>
      <point x="265" y="-189" type="curve" smooth="yes"/>
      <point x="265" y="-241"/>
      <point x="290" y="-273"/>
      <point x="353" y="-326" type="curve"/>
    </contour>
  </outline>
</glyph>
<glyph name="tilde" format="1">
  <advance width="975"/>
  <unicode hex="02DC"/>
  <outline>
    <contour>
      <point x="641" y="170" type="curve" smooth="yes"/>
      <point x="495" y="170"/>
      <point x="407" y="279"/>
      <point x="327" y="279" type="curve" smooth="yes"/>
      <point x="284" y="279"/>
      <point x="268" y="258"/>
      <point x="259" y="184" type="curve"/>
      <point x="139" y="184" type="line"/>
      <point x="142" y="360"/>
      <point x="181" y="437"/>
      <point x="331" y="437" type="curve" smooth="yes"/>
      <point x="471" y="437"/>
      <point x="601" y="328"/>
      <point x="656" y="328" type="curve" smooth="yes"/>
      <point x="697" y="328"/>
      <point x="704" y="350"/>
      <point x="714" y="423" type="curve"/>
      <point x="833" y="423" type="line"/>
      <point x="830" y="248"/>
      <point x="788" y="170"/>
    </contour>
  </outline>
</glyph>
<glyph name="hungarumlaut" format="1">
  <advance width="781"/>
  <unicode hex="02DD"/>
  <outline>
    <contour>
      <point x="481" y="97" type="curve" smooth="yes"/>
      <point x="464" y="97"/>
      <point x="450" y="111"/>
      <point x="450" y="132" type="curve" smooth="yes"/>
      <point x="450" y="139"/>
      <point x="451" y="149"/>
      <point x="456" y="158" type="curve" smooth="yes"/>
      <point x="650" y="524" type="line"/>
      <point x="679" y="583"/>
      <point x="720" y="607"/>
      <point x="756" y="607" type="curve" smooth="yes"/>
      <point x="802" y="607"/>
      <point x="844" y="570"/>
      <point x="844" y="520" type="curve" smooth="yes"/>
      <point x="844" y="493"/>
      <point x="832" y="463"/>
      <point x="804" y="433" type="curve" smooth="yes"/>
      <point x="516" y="115" type="line" smooth="yes"/>
      <point x="505" y="102"/>
      <point x="492" y="97"/>
    </contour>
    <contour>
      <point x="149" y="97" type="curve" smooth="yes"/>
      <point x="132" y="97"/>
      <point x="118" y="111"/>
      <point x="118" y="132" type="curve" smooth="yes"/>
      <point x="118" y="139"/>
      <point x="119" y="149"/>
      <point x="124" y="158" type="curve" smooth="yes"/>
      <point x="318" y="524" type="line"/>
      <point x="347" y="583"/>
      <point x="388" y="607"/>
      <point x="424" y="607" type="curve" smooth="yes"/>
      <point x="470" y="607"/>
      <point x="512" y="570"/>
      <point x="512" y="520" type="curve" smooth="yes"/>
      <point x="512" y="493"/>
      <point x="500" y="463"/>
      <point x="472" y="433" type="curve" smooth="yes"/>
      <point x="184" y="115" type="line" smooth="yes"/>
      <point x="173" y="102"/>
      <point x="160" y="97"/>
    </contour>
  </outline>
</glyph>
<glyph name="uni0307" format="1">
  <advance width="475"/>
  <unicode hex="0307"/>
  <outline>
    <contour>
      <point x="252" y="163" type="curve" smooth="yes"/>
      <point x="159" y="163"/>
      <point x="105" y="233"/>
      <point x="105" y="306" type="curve" smooth="yes"/>
      <point x="105" y="376"/>
      <point x="158" y="449"/>
      <point x="252" y="449" type="curve" smooth="yes"/>
      <point x="344" y="449"/>
      <point x="397" y="375"/>
      <point x="397" y="306" type="curve" smooth="yes"/>
      <point x="397" y="234"/>
      <point x="343" y="163"/>
    </contour>
  </outline>
</glyph>
<glyph name="dblgravecmb" format="1">
  <advance width="651"/>
  <unicode hex="030F"/>
  <outline>
    <contour>
      <point x="620" y="97" type="curve" smooth="yes"/>
      <point x="609" y="97"/>
      <point x="597" y="103"/>
      <point x="585" y="115" type="curve" smooth="yes"/>
      <point x="332" y="395" type="line" smooth="yes"/>
      <point x="304" y="425"/>
      <point x="292" y="455"/>
      <point x="292" y="482" type="curve" smooth="yes"/>
      <point x="292" y="532"/>
      <point x="332" y="569"/>
      <point x="378" y="569" type="curve" smooth="yes"/>
      <point x="415" y="569"/>
      <point x="456" y="546"/>
      <point x="485" y="486" type="curve" smooth="yes"/>
      <point x="645" y="158" type="line" smooth="yes"/>
      <point x="649" y="148"/>
      <point x="651" y="139"/>
      <point x="651" y="132" type="curve" smooth="yes"/>
      <point x="651" y="111"/>
      <point x="637" y="97"/>
    </contour>
    <contour>
      <point x="280" y="97" type="curve" smooth="yes"/>
      <point x="269" y="97"/>
      <point x="257" y="103"/>
      <point x="245" y="115" type="curve" smooth="yes"/>
      <point x="-8" y="395" type="line" smooth="yes"/>
      <point x="-36" y="425"/>
      <point x="-48" y="455"/>
      <point x="-48" y="482" type="curve" smooth="yes"/>
      <point x="-48" y="532"/>
      <point x="-8" y="569"/>
      <point x="38" y="569" type="curve" smooth="yes"/>
      <point x="75" y="569"/>
      <point x="116" y="546"/>
      <point x="145" y="486" type="curve" smooth="yes"/>
      <point x="305" y="158" type="line" smooth="yes"/>
      <point x="309" y="148"/>
      <point x="311" y="139"/>
      <point x="311" y="132" type="curve" smooth="yes"/>
      <point x="311" y="111"/>
      <point x="297" y="97"/>
    </contour>
  </outline>
</glyph>
<glyph name="uni0311" format="1">
  <advance width="781"/>
  <unicode hex="0311"/>
  <outline>
    <contour>
      <point x="545" y="144" type="line"/>
      <point x="545" y="260"/>
      <point x="477" y="299"/>
      <point x="389" y="299" type="curve" smooth="yes"/>
      <point x="299" y="299"/>
      <point x="229" y="258"/>
      <point x="229" y="144" type="curve"/>
      <point x="89" y="144" type="line"/>
      <point x="89" y="294"/>
      <point x="199" y="444"/>
      <point x="389" y="444" type="curve" smooth="yes"/>
      <point x="574" y="444"/>
      <point x="679" y="305"/>
      <point x="679" y="144" type="curve"/>
    </contour>
  </outline>
</glyph>
<glyph name="uni0326" format="1">
  <advance width="500"/>
  <unicode hex="0326"/>
  <outline>
    <contour>
      <point x="364" y="-133" type="curve" smooth="yes"/>
      <point x="409" y="-133"/>
      <point x="450" y="-169"/>
      <point x="450" y="-218" type="curve" smooth="yes"/>
      <point x="450" y="-242"/>
      <point x="440" y="-269"/>
      <point x="417" y="-297" type="curve" smooth="yes"/>
      <point x="218" y="-536" type="line" smooth="yes"/>
      <point x="207" y="-550"/>
      <point x="193" y="-556"/>
      <point x="182" y="-556" type="curve" smooth="yes"/>
      <point x="164" y="-556"/>
      <point x="148" y="-542"/>
      <point x="148" y="-522" type="curve" smooth="yes"/>
      <point x="148" y="-516"/>
      <point x="149" y="-510"/>
      <point x="152" y="-504" type="curve" smooth="yes"/>
      <point x="261" y="-220" type="line"/>
      <point x="286" y="-158"/>
      <point x="327" y="-133"/>
    </contour>
  </outline>
</glyph>
<glyph name="endash" format="1">
  <advance width="1024"/>
  <unicode hex="2013"/>
  <outline>
    <contour>
      <point x="178" y="475" type="line"/>
      <point x="178" y="678" type="line"/>
      <point x="885" y="678" type="line"/>
      <point x="885" y="475" type="line"/>
    </contour>
  </outline>
</glyph>
<glyph name="emdash" format="1">
  <advance width="2048"/>
  <unicode hex="2014"/>
  <outline>
    <contour>
      <point x="178" y="475" type="line"/>
      <point x="178" y="678" type="line"/>
      <point x="1909" y="678" type="line"/>
      <point x="1909" y="475" type="line"/>
    </contour>
  </outline>
</glyph>
<glyph name="quoteleft" format="1">
  <advance width="578"/>
  <unicode hex="2018"/>
  <outline>
    <contour>
      <point x="434" y="1241" type="line"/>
      <point x="388" y="1183"/>
      <point x="342" y="1127"/>
      <point x="322" y="1067" type="curve"/>
      <point x="393" y="1053"/>
      <point x="434" y="991"/>
      <point x="434" y="928" type="curve" smooth="yes"/>
      <point x="434" y="858"/>
      <point x="381" y="785"/>
      <point x="288" y="785" type="curve" smooth="yes"/>
      <point x="195" y="785"/>
      <point x="143" y="859"/>
      <point x="143" y="928" type="curve" smooth="yes"/>
      <point x="143" y="1011"/>
      <point x="200" y="1113"/>
      <point x="352" y="1241" type="curve"/>
    </contour>
  </outline>
</glyph>
<glyph name="quotesinglbase" format="1">
  <advance width="578"/>
  <unicode hex="201A"/>
  <outline>
    <contour>
      <point x="144" y="-166" type="line"/>
      <point x="190" y="-108"/>
      <point x="236" y="-52"/>
      <point x="256" y="8" type="curve"/>
      <point x="185" y="22"/>
      <point x="144" y="84"/>
      <point x="144" y="147" type="curve" smooth="yes"/>
      <point x="144" y="217"/>
      <point x="197" y="290"/>
      <point x="290" y="290" type="curve" smooth="yes"/>
      <point x="383" y="290"/>
      <point x="435" y="216"/>
      <point x="435" y="147" type="curve" smooth="yes"/>
      <point x="435" y="64"/>
      <point x="378" y="-38"/>
      <point x="226" y="-166" type="curve"/>
    </contour>
  </outline>
</glyph>
<glyph name="quotedblleft" format="1">
  <advance width="937"/>
  <unicode hex="201C"/>
  <outline>
    <contour>
      <point x="434" y="1241" type="line"/>
      <point x="388" y="1183"/>
      <point x="342" y="1127"/>
      <point x="322" y="1067" type="curve"/>
      <point x="393" y="1053"/>
      <point x="434" y="991"/>
      <point x="434" y="928" type="curve" smooth="yes"/>
      <point x="434" y="858"/>
      <point x="381" y="785"/>
      <point x="288" y="785" type="curve" smooth="yes"/>
      <point x="195" y="785"/>
      <point x="143" y="859"/>
      <point x="143" y="928" type="curve" smooth="yes"/>
      <point x="143" y="1011"/>
      <point x="200" y="1113"/>
      <point x="352" y="1241" type="curve"/>
    </contour>
    <contour>
      <point x="792" y="1241" type="line"/>
      <point x="746" y="1183"/>
      <point x="700" y="1127"/>
      <point x="680" y="1067" type="curve"/>
      <point x="751" y="1053"/>
      <point x="792" y="991"/>
      <point x="792" y="928" type="curve" smooth="yes"/>
      <point x="792" y="858"/>
      <point x="739" y="785"/>
      <point x="646" y="785" type="curve" smooth="yes"/>
      <point x="553" y="785"/>
      <point x="502" y="859"/>
      <point x="502" y="928" type="curve" smooth="yes"/>
      <point x="502" y="1011"/>
      <point x="558" y="1113"/>
      <point x="710" y="1241" type="curve"/>
    </contour>
  </outline>
</glyph>
<glyph name="quotedblright" format="1">
  <advance width="955"/>
  <unicode hex="201D"/>
  <outline>
    <contour>
      <point x="144" y="785" type="line"/>
      <point x="190" y="843"/>
      <point x="236" y="899"/>
      <point x="256" y="959" type="curve"/>
      <point x="185" y="973"/>
      <point x="144" y="1035"/>
      <point x="144" y="1098" type="curve" smooth="yes"/>
      <point x="144" y="1168"/>
      <point x="197" y="1241"/>
      <point x="290" y="1241" type="curve" smooth="yes"/>
      <point x="383" y="1241"/>
      <point x="435" y="1167"/>
      <point x="435" y="1098" type="curve" smooth="yes"/>
      <point x="435" y="1015"/>
      <point x="378" y="913"/>
      <point x="226" y="785" type="curve"/>
    </contour>
    <contour>
      <point x="522" y="785" type="line"/>
      <point x="568" y="843"/>
      <point x="614" y="899"/>
      <point x="634" y="959" type="curve"/>
      <point x="563" y="973"/>
      <point x="522" y="1035"/>
      <point x="522" y="1098" type="curve" smooth="yes"/>
      <point x="522" y="1168"/>
      <point x="575" y="1241"/>
      <point x="668" y="1241" type="curve" smooth="yes"/>
      <point x="761" y="1241"/>
      <point x="812" y="1167"/>
      <point x="812" y="1098" type="curve" smooth="yes"/>
      <point x="812" y="1015"/>
      <point x="756" y="913"/>
      <point x="604" y="785" type="curve"/>
    </contour>
  </outline>
</glyph>
<glyph name="quotedblbase" format="1">
  <advance width="947"/>
  <unicode hex="201E"/>
  <outline>
    <contour>
      <point x="144" y="-166" type="line"/>
      <point x="190" y="-108"/>
      <point x="236" y="-52"/>
      <point x="256" y="8" type="curve"/>
      <point x="185" y="22"/>
      <point x="144" y="84"/>
      <point x="144" y="147" type="curve" smooth="yes"/>
      <point x="144" y="217"/>
      <point x="197" y="290"/>
      <point x="290" y="290" type="curve" smooth="yes"/>
      <point x="383" y="290"/>
      <point x="435" y="216"/>
      <point x="435" y="147" type="curve" smooth="yes"/>
      <point x="435" y="64"/>
      <point x="378" y="-38"/>
      <point x="226" y="-166" type="curve"/>
    </contour>
    <contour>
      <point x="512" y="-166" type="line"/>
      <point x="558" y="-108"/>
      <point x="604" y="-52"/>
      <point x="624" y="8" type="curve"/>
      <point x="553" y="22"/>
      <point x="512" y="84"/>
      <point x="512" y="147" type="curve" smooth="yes"/>
      <point x="512" y="217"/>
      <point x="565" y="290"/>
      <point x="658" y="290" type="curve" smooth="yes"/>
      <point x="751" y="290"/>
      <point x="804" y="216"/>
      <point x="804" y="147" type="curve" smooth="yes"/>
      <point x="804" y="64"/>
      <point x="746" y="-38"/>
      <point x="594" y="-166" type="curve"/>
    </contour>
  </outline>
</glyph>
<glyph name="dagger" format="1">
  <advance width="1023"/>
  <unicode hex="2020"/>
  <outline>
    <contour>
      <point x="438" y="0" type="line"/>
      <point x="438" y="735" type="line"/>
      <point x="147" y="735" type="line"/>
      <point x="147" y="881" type="line"/>
      <point x="438" y="881" type="line"/>
      <point x="438" y="1172" type="line"/>
      <point x="584" y="1172" type="line"/>
      <point x="584" y="881" type="line"/>
      <point x="875" y="881" type="line"/>
      <point x="875" y="735" type="line"/>
      <point x="585" y="735" type="line"/>
      <point x="585" y="0" type="line"/>
    </contour>
  </outline>
</glyph>
<glyph name="daggerdbl" format="1">
  <advance width="1031"/>
  <unicode hex="2021"/>
  <outline>
    <contour>
      <point x="442" y="0" type="line"/>
      <point x="442" y="276" type="line"/>
      <point x="151" y="276" type="line"/>
      <point x="151" y="422" type="line"/>
      <point x="442" y="422" type="line"/>
      <point x="442" y="735" type="line"/>
      <point x="151" y="735" type="line"/>
      <point x="151" y="881" type="line"/>
      <point x="442" y="881" type="line"/>
      <point x="442" y="1172" type="line"/>
      <point x="587" y="1172" type="line"/>
      <point x="587" y="881" type="line"/>
      <point x="879" y="881" type="line"/>
      <point x="879" y="735" type="line"/>
      <point x="588" y="735" type="line"/>
      <point x="588" y="422" type="line"/>
      <point x="879" y="422" type="line"/>
      <point x="879" y="276" type="line"/>
      <point x="588" y="276" type="line"/>
      <point x="588" y="0" type="line"/>
    </contour>
  </outline>
</glyph>
<glyph name="bullet" format="1">
  <advance width="727"/>
  <unicode hex="2022"/>
  <outline>
    <contour>
      <point x="361" y="397" type="curve" smooth="yes"/>
      <point x="253" y="397"/>
      <point x="146" y="469"/>
      <point x="146" y="618" type="curve" smooth="yes"/>
      <point x="146" y="766"/>
      <point x="254" y="840"/>
      <point x="363" y="840" type="curve" smooth="yes"/>
      <point x="472" y="840"/>
      <point x="581" y="765"/>
      <point x="581" y="617" type="curve" smooth="yes"/>
      <point x="581" y="472"/>
      <point x="471" y="397"/>
    </contour>
  </outline>
</glyph>
<glyph name="ellipsis" format="1">
  <advance width="1570"/>
  <unicode hex="2026"/>
  <outline>
    <contour>
      <point x="1310" y="-16" type="curve" smooth="yes"/>
      <point x="1217" y="-16"/>
      <point x="1163" y="54"/>
      <point x="1163" y="127" type="curve" smooth="yes"/>
      <point x="1163" y="197"/>
      <point x="1216" y="270"/>
      <point x="1310" y="270" type="curve" smooth="yes"/>
      <point x="1402" y="270"/>
      <point x="1455" y="196"/>
      <point x="1455" y="127" type="curve" smooth="yes"/>
      <point x="1455" y="55"/>
      <point x="1401" y="-16"/>
    </contour>
    <contour>
      <point x="786" y="-16" type="curve" smooth="yes"/>
      <point x="693" y="-16"/>
      <point x="639" y="54"/>
      <point x="639" y="127" type="curve" smooth="yes"/>
      <point x="639" y="197"/>
      <point x="692" y="270"/>
      <point x="786" y="270" type="curve" smooth="yes"/>
      <point x="878" y="270"/>
      <point x="931" y="196"/>
      <point x="931" y="127" type="curve" smooth="yes"/>
      <point x="931" y="55"/>
      <point x="877" y="-16"/>
    </contour>
    <contour>
      <point x="263" y="-16" type="curve" smooth="yes"/>
      <point x="170" y="-16"/>
      <point x="116" y="54"/>
      <point x="116" y="127" type="curve" smooth="yes"/>
      <point x="116" y="197"/>
      <point x="169" y="270"/>
      <point x="263" y="270" type="curve" smooth="yes"/>
      <point x="355" y="270"/>
      <point x="408" y="196"/>
      <point x="408" y="127" type="curve" smooth="yes"/>
      <point x="408" y="55"/>
      <point x="354" y="-16"/>
    </contour>
  </outline>
</glyph>
<glyph name="perthousand" format="1">
  <advance width="2049"/>
  <unicode hex="2030"/>
  <outline>
    <contour>
      <point x="1708" y="-2" type="curve" smooth="yes"/>
      <point x="1550" y="-2"/>
      <point x="1420" y="104"/>
      <point x="1420" y="270" type="curve" smooth="yes"/>
      <point x="1420" y="436"/>
      <point x="1551" y="542"/>
      <point x="1709" y="542" type="curve" smooth="yes"/>
      <point x="1864" y="542"/>
      <point x="1996" y="437"/>
      <point x="1996" y="270" type="curve" smooth="yes"/>
      <point x="1996" y="104"/>
      <point x="1866" y="-2"/>
    </contour>
    <contour>
      <point x="1708" y="111" type="curve" smooth="yes"/>
      <point x="1809" y="111"/>
      <point x="1861" y="189"/>
      <point x="1861" y="269" type="curve" smooth="yes"/>
      <point x="1861" y="349"/>
      <point x="1809" y="429"/>
      <point x="1708" y="429" type="curve" smooth="yes"/>
      <point x="1607" y="429"/>
      <point x="1555" y="349"/>
      <point x="1555" y="270" type="curve" smooth="yes"/>
      <point x="1555" y="187"/>
      <point x="1607" y="111"/>
    </contour>
    <contour>
      <point x="1072" y="-2" type="curve" smooth="yes"/>
      <point x="914" y="-2"/>
      <point x="784" y="104"/>
      <point x="784" y="270" type="curve" smooth="yes"/>
      <point x="784" y="436"/>
      <point x="915" y="542"/>
      <point x="1073" y="542" type="curve" smooth="yes"/>
      <point x="1228" y="542"/>
      <point x="1360" y="437"/>
      <point x="1360" y="270" type="curve" smooth="yes"/>
      <point x="1360" y="104"/>
      <point x="1230" y="-2"/>
    </contour>
    <contour>
      <point x="1072" y="111" type="curve" smooth="yes"/>
      <point x="1173" y="111"/>
      <point x="1225" y="189"/>
      <point x="1225" y="269" type="curve" smooth="yes"/>
      <point x="1225" y="349"/>
      <point x="1173" y="429"/>
      <point x="1072" y="429" type="curve" smooth="yes"/>
      <point x="971" y="429"/>
      <point x="919" y="349"/>
      <point x="919" y="270" type="curve" smooth="yes"/>
      <point x="919" y="187"/>
      <point x="971" y="111"/>
    </contour>
    <contour>
      <point x="345" y="724" type="curve" smooth="yes"/>
      <point x="187" y="724"/>
      <point x="57" y="830"/>
      <point x="57" y="996" type="curve" smooth="yes"/>
      <point x="57" y="1162"/>
      <point x="188" y="1268"/>
      <point x="346" y="1268" type="curve" smooth="yes"/>
      <point x="501" y="1268"/>
      <point x="633" y="1163"/>
      <point x="633" y="996" type="curve" smooth="yes"/>
      <point x="633" y="830"/>
      <point x="503" y="724"/>
    </contour>
    <contour>
      <point x="345" y="837" type="curve" smooth="yes"/>
      <point x="446" y="837"/>
      <point x="498" y="915"/>
      <point x="498" y="995" type="curve" smooth="yes"/>
      <point x="498" y="1075"/>
      <point x="446" y="1155"/>
      <point x="345" y="1155" type="curve" smooth="yes"/>
      <point x="244" y="1155"/>
      <point x="192" y="1075"/>
      <point x="192" y="996" type="curve" smooth="yes"/>
      <point x="192" y="913"/>
      <point x="244" y="837"/>
    </contour>
    <contour>
      <point x="299" y="0" type="line"/>
      <point x="1018" y="1241" type="line"/>
      <point x="1101" y="1241" type="line"/>
      <point x="380" y="0" type="line"/>
    </contour>
  </outline>
</glyph>
<glyph name="guilsinglleft" format="1">
  <advance width="565"/>
  <unicode hex="2039"/>
  <outline>
    <contour>
      <point x="463" y="168" type="curve" smooth="yes"/>
      <point x="455" y="168"/>
      <point x="445" y="170"/>
      <point x="435" y="175" type="curve"/>
      <point x="140" y="406" type="line"/>
      <point x="93" y="436"/>
      <point x="69" y="477"/>
      <point x="69" y="518" type="curve" smooth="yes"/>
      <point x="69" y="559"/>
      <point x="94" y="601"/>
      <point x="140" y="630" type="curve"/>
      <point x="435" y="861" type="line"/>
      <point x="445" y="865"/>
      <point x="455" y="867"/>
      <point x="463" y="867" type="curve" smooth="yes"/>
      <point x="485" y="867"/>
      <point x="499" y="853"/>
      <point x="499" y="835" type="curve" smooth="yes"/>
      <point x="499" y="823"/>
      <point x="493" y="811"/>
      <point x="480" y="798" type="curve"/>
      <point x="282" y="518" type="line"/>
      <point x="480" y="237" type="line"/>
      <point x="493" y="225"/>
      <point x="499" y="213"/>
      <point x="499" y="201" type="curve" smooth="yes"/>
      <point x="499" y="183"/>
      <point x="485" y="168"/>
    </contour>
  </outline>
</glyph>
<glyph name="fraction" format="1">
  <advance width="1100"/>
  <unicode hex="2044"/>
  <outline>
    <contour>
      <point x="60" y="0" type="line"/>
      <point x="869" y="1241" type="line"/>
      <point x="1035" y="1241" type="line"/>
      <point x="224" y="0" type="line"/>
    </contour>
  </outline>
</glyph>
<glyph name="Euro" format="1">
  <advance width="1318"/>
  <unicode hex="20AC"/>
  <outline>
    <contour>
      <point x="840" y="-33" type="curve" smooth="yes"/>
      <point x="531" y="-33"/>
      <point x="279" y="135"/>
      <point x="196" y="418" type="curve"/>
      <point x="69" y="418" type="line"/>
      <point x="69" y="550" type="line"/>
      <point x="171" y="550" type="line"/>
      <point x="169" y="576"/>
      <point x="167" y="602"/>
      <point x="167" y="629" type="curve" smooth="yes"/>
      <point x="167" y="640"/>
      <point x="168" y="651"/>
      <point x="168" y="662" type="curve"/>
      <point x="69" y="662" type="line"/>
      <point x="69" y="794" type="line"/>
      <point x="186" y="794" type="line"/>
      <point x="254" y="1097"/>
      <point x="515" y="1275"/>
      <point x="834" y="1275" type="curve" smooth="yes"/>
      <point x="1034" y="1275"/>
      <point x="1210" y="1193"/>
      <point x="1246" y="1173" type="curve"/>
      <point x="1246" y="938" type="line"/>
      <point x="1134" y="1014"/>
      <point x="992" y="1058"/>
      <point x="858" y="1058" type="curve" smooth="yes"/>
      <point x="677" y="1058"/>
      <point x="511" y="979"/>
      <point x="452" y="794" type="curve"/>
      <point x="835" y="794" type="line"/>
      <point x="835" y="662" type="line"/>
      <point x="426" y="662" type="line"/>
      <point x="426" y="651"/>
      <point x="425" y="640"/>
      <point x="425" y="629" type="curve" smooth="yes"/>
      <point x="425" y="601"/>
      <point x="427" y="575"/>
      <point x="430" y="550" type="curve"/>
      <point x="835" y="550" type="line"/>
      <point x="835" y="418" type="line"/>
      <point x="467" y="418" type="line"/>
      <point x="537" y="258"/>
      <point x="691" y="183"/>
      <point x="862" y="183" type="curve" smooth="yes"/>
      <point x="994" y="183"/>
      <point x="1133" y="227"/>
      <point x="1246" y="302" type="curve"/>
      <point x="1246" y="65" type="line"/>
      <point x="1211" y="47"/>
      <point x="1037" y="-33"/>
    </contour>
  </outline>
</glyph>
<glyph name="trademark" format="1">
  <advance width="1931"/>
  <unicode hex="2122"/>
  <outline>
    <contour>
      <point x="1336" y="365" type="line"/>
      <point x="1046" y="842" type="line"/>
      <point x="972" y="373" type="line"/>
      <point x="804" y="373" type="line"/>
      <point x="958" y="1284" type="line"/>
      <point x="1335" y="650" type="line"/>
      <point x="1712" y="1284" type="line"/>
      <point x="1866" y="373" type="line"/>
      <point x="1698" y="373" type="line"/>
      <point x="1624" y="842" type="line"/>
    </contour>
    <contour>
      <point x="335" y="373" type="line"/>
      <point x="335" y="1087" type="line"/>
      <point x="73" y="1087" type="line"/>
      <point x="73" y="1242" type="line"/>
      <point x="776" y="1242" type="line"/>
      <point x="776" y="1087" type="line"/>
      <point x="514" y="1087" type="line"/>
      <point x="514" y="373" type="line"/>
    </contour>
  </outline>
</glyph>
<glyph name="infinity" format="1">
  <advance width="1526"/>
  <unicode hex="221E"/>
  <outline>
    <contour>
      <point x="1263" y="616" type="curve" smooth="yes"/>
      <point x="1263" y="694"/>
      <point x="1217" y="740"/>
      <point x="1146" y="740" type="curve" smooth="yes"/>
      <point x="1040" y="740"/>
      <point x="986" y="684"/>
      <point x="879" y="616" type="curve"/>
      <point x="986" y="548"/>
      <point x="1040" y="492"/>
      <point x="1146" y="492" type="curve" smooth="yes"/>
      <point x="1217" y="492"/>
      <point x="1263" y="538"/>
    </contour>
    <contour>
      <point x="764" y="541" type="curve"/>
      <point x="632" y="451"/>
      <point x="533" y="358"/>
      <point x="378" y="358" type="curve" smooth="yes"/>
      <point x="230" y="358"/>
      <point x="148" y="441"/>
      <point x="146" y="616" type="curve"/>
      <point x="148" y="791"/>
      <point x="230" y="874"/>
      <point x="378" y="874" type="curve" smooth="yes"/>
      <point x="533" y="874"/>
      <point x="632" y="781"/>
      <point x="764" y="691" type="curve"/>
      <point x="902" y="781"/>
      <point x="995" y="874"/>
      <point x="1150" y="874" type="curve" smooth="yes"/>
      <point x="1298" y="874"/>
      <point x="1380" y="791"/>
      <point x="1382" y="616" type="curve"/>
      <point x="1380" y="441"/>
      <point x="1298" y="358"/>
      <point x="1150" y="358" type="curve" smooth="yes"/>
      <point x="995" y="358"/>
      <point x="902" y="451"/>
    </contour>
    <contour>
      <point x="265" y="616" type="curve" smooth="yes"/>
      <point x="265" y="538"/>
      <point x="311" y="492"/>
      <point x="382" y="492" type="curve" smooth="yes"/>
      <point x="488" y="492"/>
      <point x="542" y="548"/>
      <point x="649" y="616" type="curve"/>
      <point x="542" y="684"/>
      <point x="488" y="740"/>
      <point x="382" y="740" type="curve" smooth="yes"/>
      <point x="311" y="740"/>
      <point x="265" y="694"/>
    </contour>
  </outline>
</glyph>
<glyph name="integral" format="1">
  <advance width="1019"/>
  <unicode hex="222B"/>
  <outline>
    <contour>
      <point x="277" y="-323" type="curve" smooth="yes"/>
      <point x="210" y="-323"/>
      <point x="144" y="-306"/>
      <point x="67" y="-272" type="curve"/>
      <point x="83" y="-115" type="line"/>
      <point x="105" y="-124"/>
      <point x="161" y="-150"/>
      <point x="220" y="-150" type="curve" smooth="yes"/>
      <point x="285" y="-150"/>
      <point x="337" y="-120"/>
      <point x="347" y="-14" type="curve" smooth="yes"/>
      <point x="438" y="927" type="line" smooth="yes"/>
      <point x="458" y="1132"/>
      <point x="569" y="1251"/>
      <point x="776" y="1251" type="curve" smooth="yes"/>
      <point x="861" y="1251"/>
      <point x="938" y="1220"/>
      <point x="953" y="1215" type="curve"/>
      <point x="937" y="1052" type="line"/>
      <point x="901" y="1064"/>
      <point x="867" y="1073"/>
      <point x="825" y="1073" type="curve" smooth="yes"/>
      <point x="749" y="1073"/>
      <point x="685" y="1040"/>
      <point x="674" y="927" type="curve" smooth="yes"/>
      <point x="581" y="0" type="line" smooth="yes"/>
      <point x="559" y="-213"/>
      <point x="446" y="-323"/>
    </contour>
  </outline>
</glyph>
<glyph name="notequal" format="1">
  <advance width="1161"/>
  <unicode hex="2260"/>
  <outline>
    <contour>
      <point x="125" y="-60" type="line"/>
      <point x="295" y="325" type="line"/>
      <point x="200" y="325" type="line"/>
      <point x="200" y="472" type="line"/>
      <point x="360" y="472" type="line"/>
      <point x="438" y="648" type="line"/>
      <point x="200" y="648" type="line"/>
      <point x="200" y="795" type="line"/>
      <point x="503" y="795" type="line"/>
      <point x="674" y="1181" type="line"/>
      <point x="896" y="1181" type="line"/>
      <point x="725" y="795" type="line"/>
      <point x="928" y="795" type="line"/>
      <point x="928" y="648" type="line"/>
      <point x="659" y="648" type="line"/>
      <point x="581" y="472" type="line"/>
      <point x="928" y="472" type="line"/>
      <point x="928" y="325" type="line"/>
      <point x="516" y="325" type="line"/>
      <point x="345" y="-60" type="line"/>
    </contour>
  </outline>
</glyph>
<glyph name="lessequal" format="1">
  <advance width="1056"/>
  <unicode hex="2264"/>
  <outline>
    <contour>
      <point x="139" y="0" type="line"/>
      <point x="139" y="143" type="line"/>
      <point x="945" y="143" type="line"/>
      <point x="945" y="0" type="line"/>
    </contour>
    <contour>
      <point x="945" y="226" type="line"/>
      <point x="109" y="614" type="line"/>
      <point x="945" y="997" type="line"/>
      <point x="945" y="799" type="line"/>
      <point x="512" y="615" type="line"/>
      <point x="945" y="440" type="line"/>
    </contour>
  </outline>
</glyph>
<glyph name="lozenge" format="1">
  <advance width="968"/>
  <unicode hex="25CA"/>
  <outline>
    <contour>
      <point x="485" y="-26" type="line"/>
      <point x="122" y="628" type="line"/>
      <point x="482" y="1283" type="line"/>
      <point x="845" y="628" type="line"/>
    </contour>
    <contour>
      <point x="485" y="281" type="line"/>
      <point x="658" y="628" type="line"/>
      <point x="482" y="976" type="line"/>
      <point x="307" y="628" type="line"/>
    </contour>
  </outline>
</glyph>
<glyph name="uniFB00" format="1">
  <advance width="1304"/>
  <unicode hex="FB00"/>
  <outline>
    <contour>
      <point x="214" y="0" type="line"/>
      <point x="214" y="677" type="line"/>
      <point x="73" y="677" type="line"/>
      <point x="73" y="861" type="line"/>
      <point x="211" y="861" type="line"/>
      <point x="211" y="927" type="line" smooth="yes"/>
      <point x="211" y="1132"/>
      <point x="314" y="1251"/>
      <point x="521" y="1251" type="curve" smooth="yes"/>
      <point x="607" y="1251"/>
      <point x="671" y="1219"/>
      <point x="686" y="1215" type="curve"/>
      <point x="686" y="1013" type="line"/>
      <point x="673" y="1017"/>
      <point x="623" y="1044"/>
      <point x="560" y="1044" type="curve" smooth="yes"/>
      <point x="498" y="1044"/>
      <point x="446" y="1018"/>
      <point x="446" y="927" type="curve" smooth="yes"/>
      <point x="446" y="861" type="line"/>
      <point x="824" y="861" type="line"/>
      <point x="824" y="927" type="line" smooth="yes"/>
      <point x="824" y="1132"/>
      <point x="928" y="1251"/>
      <point x="1135" y="1251" type="curve" smooth="yes"/>
      <point x="1220" y="1251"/>
      <point x="1291" y="1219"/>
      <point x="1306" y="1215" type="curve"/>
      <point x="1306" y="1013" type="line"/>
      <point x="1293" y="1017"/>
      <point x="1237" y="1044"/>
      <point x="1174" y="1044" type="curve" smooth="yes"/>
      <point x="1112" y="1044"/>
      <point x="1060" y="1018"/>
      <point x="1060" y="927" type="curve" smooth="yes"/>
      <point x="1060" y="861" type="line"/>
      <point x="1278" y="861" type="line"/>
      <point x="1278" y="677" type="line"/>
      <point x="1061" y="677" type="line"/>
      <point x="1061" y="0" type="line"/>
      <point x="827" y="0" type="line"/>
      <point x="827" y="677" type="line"/>
      <point x="447" y="677" type="line"/>
      <point x="447" y="0" type="line"/>
    </contour>
  </outline>
</glyph>
<glyph name="uniFB01" format="1">
  <advance width="1221"/>
  <unicode hex="FB01"/>
  <outline>
    <contour>
      <point x="191" y="0" type="line"/>
      <point x="191" y="677" type="line"/>
      <point x="73" y="677" type="line"/>
      <point x="73" y="861" type="line"/>
      <point x="188" y="861" type="line"/>
      <point x="188" y="927" type="line" smooth="yes"/>
      <point x="188" y="1132"/>
      <point x="291" y="1251"/>
      <point x="499" y="1251" type="curve" smooth="yes"/>
      <point x="584" y="1251"/>
      <point x="671" y="1219"/>
      <point x="686" y="1215" type="curve"/>
      <point x="686" y="1013" type="line"/>
      <point x="673" y="1017"/>
      <point x="600" y="1044"/>
      <point x="538" y="1044" type="curve" smooth="yes"/>
      <point x="475" y="1044"/>
      <point x="423" y="1018"/>
      <point x="423" y="927" type="curve" smooth="yes"/>
      <point x="423" y="861" type="line"/>
      <point x="1069" y="861" type="line"/>
      <point x="1069" y="0" type="line"/>
      <point x="838" y="0" type="line"/>
      <point x="838" y="677" type="line"/>
      <point x="424" y="677" type="line"/>
      <point x="424" y="0" type="line"/>
    </contour>
    <contour>
      <point x="953" y="997" type="curve" smooth="yes"/>
      <point x="861" y="997"/>
      <point x="807" y="1067"/>
      <point x="807" y="1140" type="curve" smooth="yes"/>
      <point x="807" y="1210"/>
      <point x="860" y="1283"/>
      <point x="953" y="1283" type="curve" smooth="yes"/>
      <point x="1046" y="1283"/>
      <point x="1098" y="1209"/>
      <point x="1098" y="1140" type="curve" smooth="yes"/>
      <point x="1098" y="1068"/>
      <point x="1045" y="997"/>
    </contour>
  </outline>
</glyph>
